G04 EAGLE Gerber RS-274X export*
G75*
%MOMM*%
%FSLAX34Y34*%
%LPD*%
%INSoldermask Bottom*%
%IPPOS*%
%AMOC8*
5,1,8,0,0,1.08239X$1,22.5*%
G01*
%ADD10R,1.611200X1.611200*%
%ADD11C,1.524000*%
%ADD12P,1.649562X8X202.500000*%
%ADD13P,1.951982X8X22.500000*%
%ADD14C,1.803400*%
%ADD15C,1.524000*%
%ADD16P,1.649562X8X22.500000*%
%ADD17P,1.649562X8X292.500000*%
%ADD18C,1.625600*%
%ADD19C,2.387600*%
%ADD20C,1.403200*%
%ADD21P,1.869504X8X22.500000*%
%ADD22P,1.649562X8X112.500000*%
%ADD23R,1.371600X1.803400*%
%ADD24R,0.152400X1.828800*%


D10*
X38100Y25400D03*
X38100Y76200D03*
X63500Y25400D03*
X63500Y76200D03*
X88900Y25400D03*
X88900Y76200D03*
X114300Y25400D03*
X114300Y76200D03*
X139700Y25400D03*
X139700Y76200D03*
X165100Y25400D03*
X165100Y76200D03*
X190500Y25400D03*
X190500Y76200D03*
X215900Y25400D03*
X215900Y76200D03*
X241300Y25400D03*
X241300Y76200D03*
X266700Y25400D03*
X266700Y76200D03*
X292100Y25400D03*
X292100Y76200D03*
X317500Y25400D03*
X317500Y76200D03*
X342900Y25400D03*
X342900Y76200D03*
X368300Y25400D03*
X368300Y76200D03*
X393700Y25400D03*
X393700Y76200D03*
X419100Y25400D03*
X419100Y76200D03*
X444500Y25400D03*
X444500Y76200D03*
X469900Y25400D03*
X469900Y76200D03*
X495300Y25400D03*
X495300Y76200D03*
X520700Y25400D03*
X520700Y76200D03*
X546100Y25400D03*
X546100Y76200D03*
X571500Y25400D03*
X571500Y76200D03*
X596900Y25400D03*
X596900Y76200D03*
X622300Y25400D03*
X622300Y76200D03*
X647700Y25400D03*
X647700Y76200D03*
D11*
X565404Y431800D02*
X552196Y431800D01*
X552196Y406400D02*
X565404Y406400D01*
X565404Y381000D02*
X552196Y381000D01*
X552196Y355600D02*
X565404Y355600D01*
X565404Y330200D02*
X552196Y330200D01*
X552196Y304800D02*
X565404Y304800D01*
X565404Y279400D02*
X552196Y279400D01*
X552196Y254000D02*
X565404Y254000D01*
X565404Y228600D02*
X552196Y228600D01*
X552196Y203200D02*
X565404Y203200D01*
X565404Y177800D02*
X552196Y177800D01*
X552196Y152400D02*
X565404Y152400D01*
X628396Y152400D02*
X641604Y152400D01*
X641604Y177800D02*
X628396Y177800D01*
X628396Y203200D02*
X641604Y203200D01*
X641604Y228600D02*
X628396Y228600D01*
X628396Y254000D02*
X641604Y254000D01*
X641604Y279400D02*
X628396Y279400D01*
X628396Y304800D02*
X641604Y304800D01*
X641604Y330200D02*
X628396Y330200D01*
X628396Y355600D02*
X641604Y355600D01*
X641604Y381000D02*
X628396Y381000D01*
X628396Y406400D02*
X641604Y406400D01*
X641604Y431800D02*
X628396Y431800D01*
D12*
X635000Y457200D03*
X609600Y457200D03*
D13*
X660400Y520700D03*
D14*
X635000Y520700D03*
D11*
X63500Y171704D02*
X63500Y158496D01*
X88900Y158496D02*
X88900Y171704D01*
X114300Y171704D02*
X114300Y158496D01*
X139700Y158496D02*
X139700Y171704D01*
X165100Y171704D02*
X165100Y158496D01*
X190500Y158496D02*
X190500Y171704D01*
X215900Y171704D02*
X215900Y158496D01*
X241300Y158496D02*
X241300Y171704D01*
X266700Y171704D02*
X266700Y158496D01*
X292100Y158496D02*
X292100Y171704D01*
X317500Y171704D02*
X317500Y158496D01*
X342900Y158496D02*
X342900Y171704D01*
X368300Y171704D02*
X368300Y158496D01*
X393700Y158496D02*
X393700Y171704D01*
X393700Y310896D02*
X393700Y324104D01*
X368300Y324104D02*
X368300Y310896D01*
X342900Y310896D02*
X342900Y324104D01*
X317500Y324104D02*
X317500Y310896D01*
X292100Y310896D02*
X292100Y324104D01*
X266700Y324104D02*
X266700Y310896D01*
X241300Y310896D02*
X241300Y324104D01*
X215900Y324104D02*
X215900Y310896D01*
X190500Y310896D02*
X190500Y324104D01*
X165100Y324104D02*
X165100Y310896D01*
X139700Y310896D02*
X139700Y324104D01*
X114300Y324104D02*
X114300Y310896D01*
X88900Y310896D02*
X88900Y324104D01*
X63500Y324104D02*
X63500Y310896D01*
D15*
X52070Y381000D03*
X100330Y381000D03*
D16*
X38100Y431800D03*
X63500Y431800D03*
D12*
X114300Y431800D03*
X88900Y431800D03*
D16*
X228600Y139700D03*
X254000Y139700D03*
D12*
X203200Y139700D03*
X177800Y139700D03*
X152654Y685800D03*
X202946Y685800D03*
X177800Y711200D03*
D17*
X241300Y685800D03*
X241300Y660400D03*
D15*
X368300Y584200D03*
X393700Y584200D03*
X393700Y660400D03*
X368300Y660400D03*
X419100Y584200D03*
X444500Y584200D03*
X419100Y660400D03*
X444500Y660400D03*
D16*
X406400Y685800D03*
X431800Y685800D03*
D17*
X342900Y635000D03*
X342900Y609600D03*
X469900Y635000D03*
X469900Y609600D03*
D13*
X190500Y469900D03*
D14*
X165100Y469900D03*
D12*
X533400Y685800D03*
X457200Y685800D03*
D17*
X520700Y635000D03*
X520700Y609600D03*
D18*
X292100Y691388D02*
X292100Y705612D01*
X317500Y705612D02*
X317500Y691388D01*
D19*
X50800Y520700D03*
X100800Y545700D03*
X100800Y570700D03*
X100800Y495700D03*
X100800Y470700D03*
D20*
X50800Y570700D03*
X25800Y570700D03*
X25800Y470700D03*
X50800Y470700D03*
D19*
X100800Y520300D03*
D21*
X342900Y673100D03*
D17*
X571500Y673100D03*
X571500Y596900D03*
D13*
X635000Y596900D03*
D14*
X609600Y596900D03*
D13*
X635000Y685800D03*
D14*
X609600Y685800D03*
D17*
X571500Y558800D03*
X571500Y533400D03*
D19*
X50800Y660400D03*
X100800Y685400D03*
X100800Y710400D03*
X100800Y635400D03*
X100800Y610400D03*
D20*
X50800Y710400D03*
X25800Y710400D03*
X25800Y610400D03*
X50800Y610400D03*
D19*
X100800Y660000D03*
D21*
X571500Y495300D03*
D22*
X279400Y355600D03*
X279400Y431800D03*
D12*
X279400Y469900D03*
X254000Y469900D03*
D15*
X317500Y355600D03*
X342900Y355600D03*
X342900Y431800D03*
X317500Y431800D03*
X368300Y355600D03*
X393700Y355600D03*
X368300Y431800D03*
X393700Y431800D03*
D12*
X368300Y469900D03*
X342900Y469900D03*
X469900Y469900D03*
X393700Y469900D03*
D17*
X393700Y520700D03*
X393700Y495300D03*
D22*
X317500Y469900D03*
X317500Y495300D03*
D12*
X241300Y355600D03*
X165100Y355600D03*
X241300Y393700D03*
X215900Y393700D03*
D13*
X190500Y584200D03*
D14*
X165100Y584200D03*
D12*
X508000Y520700D03*
X431800Y520700D03*
D23*
X477520Y393700D03*
X462280Y393700D03*
D24*
X469900Y393700D03*
D23*
X477520Y342900D03*
X462280Y342900D03*
D24*
X469900Y342900D03*
D23*
X477520Y292100D03*
X462280Y292100D03*
D24*
X469900Y292100D03*
D12*
X419100Y558800D03*
X393700Y558800D03*
D21*
X279400Y139700D03*
M02*
