G04 EAGLE Gerber RS-274X export*
G75*
%MOMM*%
%FSLAX34Y34*%
%LPD*%
%INBoard Outline*%
%IPPOS*%
%AMOC8*
5,1,8,0,0,1.08239X$1,22.5*%
G01*
%ADD10C,0.000000*%
%ADD11C,0.254000*%


D10*
X0Y0D02*
X685800Y0D01*
X685800Y736600D01*
X0Y736600D01*
X0Y0D01*
X44800Y570700D02*
X44802Y570854D01*
X44808Y571009D01*
X44818Y571163D01*
X44832Y571317D01*
X44850Y571470D01*
X44871Y571623D01*
X44897Y571776D01*
X44927Y571927D01*
X44960Y572078D01*
X44998Y572228D01*
X45039Y572377D01*
X45084Y572525D01*
X45133Y572671D01*
X45186Y572817D01*
X45242Y572960D01*
X45302Y573103D01*
X45366Y573243D01*
X45433Y573383D01*
X45504Y573520D01*
X45578Y573655D01*
X45656Y573789D01*
X45737Y573920D01*
X45822Y574049D01*
X45910Y574177D01*
X46001Y574301D01*
X46095Y574424D01*
X46193Y574544D01*
X46293Y574661D01*
X46397Y574776D01*
X46503Y574888D01*
X46612Y574997D01*
X46724Y575103D01*
X46839Y575207D01*
X46956Y575307D01*
X47076Y575405D01*
X47199Y575499D01*
X47323Y575590D01*
X47451Y575678D01*
X47580Y575763D01*
X47711Y575844D01*
X47845Y575922D01*
X47980Y575996D01*
X48117Y576067D01*
X48257Y576134D01*
X48397Y576198D01*
X48540Y576258D01*
X48683Y576314D01*
X48829Y576367D01*
X48975Y576416D01*
X49123Y576461D01*
X49272Y576502D01*
X49422Y576540D01*
X49573Y576573D01*
X49724Y576603D01*
X49877Y576629D01*
X50030Y576650D01*
X50183Y576668D01*
X50337Y576682D01*
X50491Y576692D01*
X50646Y576698D01*
X50800Y576700D01*
X50954Y576698D01*
X51109Y576692D01*
X51263Y576682D01*
X51417Y576668D01*
X51570Y576650D01*
X51723Y576629D01*
X51876Y576603D01*
X52027Y576573D01*
X52178Y576540D01*
X52328Y576502D01*
X52477Y576461D01*
X52625Y576416D01*
X52771Y576367D01*
X52917Y576314D01*
X53060Y576258D01*
X53203Y576198D01*
X53343Y576134D01*
X53483Y576067D01*
X53620Y575996D01*
X53755Y575922D01*
X53889Y575844D01*
X54020Y575763D01*
X54149Y575678D01*
X54277Y575590D01*
X54401Y575499D01*
X54524Y575405D01*
X54644Y575307D01*
X54761Y575207D01*
X54876Y575103D01*
X54988Y574997D01*
X55097Y574888D01*
X55203Y574776D01*
X55307Y574661D01*
X55407Y574544D01*
X55505Y574424D01*
X55599Y574301D01*
X55690Y574177D01*
X55778Y574049D01*
X55863Y573920D01*
X55944Y573789D01*
X56022Y573655D01*
X56096Y573520D01*
X56167Y573383D01*
X56234Y573243D01*
X56298Y573103D01*
X56358Y572960D01*
X56414Y572817D01*
X56467Y572671D01*
X56516Y572525D01*
X56561Y572377D01*
X56602Y572228D01*
X56640Y572078D01*
X56673Y571927D01*
X56703Y571776D01*
X56729Y571623D01*
X56750Y571470D01*
X56768Y571317D01*
X56782Y571163D01*
X56792Y571009D01*
X56798Y570854D01*
X56800Y570700D01*
X56798Y570546D01*
X56792Y570391D01*
X56782Y570237D01*
X56768Y570083D01*
X56750Y569930D01*
X56729Y569777D01*
X56703Y569624D01*
X56673Y569473D01*
X56640Y569322D01*
X56602Y569172D01*
X56561Y569023D01*
X56516Y568875D01*
X56467Y568729D01*
X56414Y568583D01*
X56358Y568440D01*
X56298Y568297D01*
X56234Y568157D01*
X56167Y568017D01*
X56096Y567880D01*
X56022Y567745D01*
X55944Y567611D01*
X55863Y567480D01*
X55778Y567351D01*
X55690Y567223D01*
X55599Y567099D01*
X55505Y566976D01*
X55407Y566856D01*
X55307Y566739D01*
X55203Y566624D01*
X55097Y566512D01*
X54988Y566403D01*
X54876Y566297D01*
X54761Y566193D01*
X54644Y566093D01*
X54524Y565995D01*
X54401Y565901D01*
X54277Y565810D01*
X54149Y565722D01*
X54020Y565637D01*
X53889Y565556D01*
X53755Y565478D01*
X53620Y565404D01*
X53483Y565333D01*
X53343Y565266D01*
X53203Y565202D01*
X53060Y565142D01*
X52917Y565086D01*
X52771Y565033D01*
X52625Y564984D01*
X52477Y564939D01*
X52328Y564898D01*
X52178Y564860D01*
X52027Y564827D01*
X51876Y564797D01*
X51723Y564771D01*
X51570Y564750D01*
X51417Y564732D01*
X51263Y564718D01*
X51109Y564708D01*
X50954Y564702D01*
X50800Y564700D01*
X50646Y564702D01*
X50491Y564708D01*
X50337Y564718D01*
X50183Y564732D01*
X50030Y564750D01*
X49877Y564771D01*
X49724Y564797D01*
X49573Y564827D01*
X49422Y564860D01*
X49272Y564898D01*
X49123Y564939D01*
X48975Y564984D01*
X48829Y565033D01*
X48683Y565086D01*
X48540Y565142D01*
X48397Y565202D01*
X48257Y565266D01*
X48117Y565333D01*
X47980Y565404D01*
X47845Y565478D01*
X47711Y565556D01*
X47580Y565637D01*
X47451Y565722D01*
X47323Y565810D01*
X47199Y565901D01*
X47076Y565995D01*
X46956Y566093D01*
X46839Y566193D01*
X46724Y566297D01*
X46612Y566403D01*
X46503Y566512D01*
X46397Y566624D01*
X46293Y566739D01*
X46193Y566856D01*
X46095Y566976D01*
X46001Y567099D01*
X45910Y567223D01*
X45822Y567351D01*
X45737Y567480D01*
X45656Y567611D01*
X45578Y567745D01*
X45504Y567880D01*
X45433Y568017D01*
X45366Y568157D01*
X45302Y568297D01*
X45242Y568440D01*
X45186Y568583D01*
X45133Y568729D01*
X45084Y568875D01*
X45039Y569023D01*
X44998Y569172D01*
X44960Y569322D01*
X44927Y569473D01*
X44897Y569624D01*
X44871Y569777D01*
X44850Y569930D01*
X44832Y570083D01*
X44818Y570237D01*
X44808Y570391D01*
X44802Y570546D01*
X44800Y570700D01*
X19800Y570700D02*
X19802Y570854D01*
X19808Y571009D01*
X19818Y571163D01*
X19832Y571317D01*
X19850Y571470D01*
X19871Y571623D01*
X19897Y571776D01*
X19927Y571927D01*
X19960Y572078D01*
X19998Y572228D01*
X20039Y572377D01*
X20084Y572525D01*
X20133Y572671D01*
X20186Y572817D01*
X20242Y572960D01*
X20302Y573103D01*
X20366Y573243D01*
X20433Y573383D01*
X20504Y573520D01*
X20578Y573655D01*
X20656Y573789D01*
X20737Y573920D01*
X20822Y574049D01*
X20910Y574177D01*
X21001Y574301D01*
X21095Y574424D01*
X21193Y574544D01*
X21293Y574661D01*
X21397Y574776D01*
X21503Y574888D01*
X21612Y574997D01*
X21724Y575103D01*
X21839Y575207D01*
X21956Y575307D01*
X22076Y575405D01*
X22199Y575499D01*
X22323Y575590D01*
X22451Y575678D01*
X22580Y575763D01*
X22711Y575844D01*
X22845Y575922D01*
X22980Y575996D01*
X23117Y576067D01*
X23257Y576134D01*
X23397Y576198D01*
X23540Y576258D01*
X23683Y576314D01*
X23829Y576367D01*
X23975Y576416D01*
X24123Y576461D01*
X24272Y576502D01*
X24422Y576540D01*
X24573Y576573D01*
X24724Y576603D01*
X24877Y576629D01*
X25030Y576650D01*
X25183Y576668D01*
X25337Y576682D01*
X25491Y576692D01*
X25646Y576698D01*
X25800Y576700D01*
X25954Y576698D01*
X26109Y576692D01*
X26263Y576682D01*
X26417Y576668D01*
X26570Y576650D01*
X26723Y576629D01*
X26876Y576603D01*
X27027Y576573D01*
X27178Y576540D01*
X27328Y576502D01*
X27477Y576461D01*
X27625Y576416D01*
X27771Y576367D01*
X27917Y576314D01*
X28060Y576258D01*
X28203Y576198D01*
X28343Y576134D01*
X28483Y576067D01*
X28620Y575996D01*
X28755Y575922D01*
X28889Y575844D01*
X29020Y575763D01*
X29149Y575678D01*
X29277Y575590D01*
X29401Y575499D01*
X29524Y575405D01*
X29644Y575307D01*
X29761Y575207D01*
X29876Y575103D01*
X29988Y574997D01*
X30097Y574888D01*
X30203Y574776D01*
X30307Y574661D01*
X30407Y574544D01*
X30505Y574424D01*
X30599Y574301D01*
X30690Y574177D01*
X30778Y574049D01*
X30863Y573920D01*
X30944Y573789D01*
X31022Y573655D01*
X31096Y573520D01*
X31167Y573383D01*
X31234Y573243D01*
X31298Y573103D01*
X31358Y572960D01*
X31414Y572817D01*
X31467Y572671D01*
X31516Y572525D01*
X31561Y572377D01*
X31602Y572228D01*
X31640Y572078D01*
X31673Y571927D01*
X31703Y571776D01*
X31729Y571623D01*
X31750Y571470D01*
X31768Y571317D01*
X31782Y571163D01*
X31792Y571009D01*
X31798Y570854D01*
X31800Y570700D01*
X31798Y570546D01*
X31792Y570391D01*
X31782Y570237D01*
X31768Y570083D01*
X31750Y569930D01*
X31729Y569777D01*
X31703Y569624D01*
X31673Y569473D01*
X31640Y569322D01*
X31602Y569172D01*
X31561Y569023D01*
X31516Y568875D01*
X31467Y568729D01*
X31414Y568583D01*
X31358Y568440D01*
X31298Y568297D01*
X31234Y568157D01*
X31167Y568017D01*
X31096Y567880D01*
X31022Y567745D01*
X30944Y567611D01*
X30863Y567480D01*
X30778Y567351D01*
X30690Y567223D01*
X30599Y567099D01*
X30505Y566976D01*
X30407Y566856D01*
X30307Y566739D01*
X30203Y566624D01*
X30097Y566512D01*
X29988Y566403D01*
X29876Y566297D01*
X29761Y566193D01*
X29644Y566093D01*
X29524Y565995D01*
X29401Y565901D01*
X29277Y565810D01*
X29149Y565722D01*
X29020Y565637D01*
X28889Y565556D01*
X28755Y565478D01*
X28620Y565404D01*
X28483Y565333D01*
X28343Y565266D01*
X28203Y565202D01*
X28060Y565142D01*
X27917Y565086D01*
X27771Y565033D01*
X27625Y564984D01*
X27477Y564939D01*
X27328Y564898D01*
X27178Y564860D01*
X27027Y564827D01*
X26876Y564797D01*
X26723Y564771D01*
X26570Y564750D01*
X26417Y564732D01*
X26263Y564718D01*
X26109Y564708D01*
X25954Y564702D01*
X25800Y564700D01*
X25646Y564702D01*
X25491Y564708D01*
X25337Y564718D01*
X25183Y564732D01*
X25030Y564750D01*
X24877Y564771D01*
X24724Y564797D01*
X24573Y564827D01*
X24422Y564860D01*
X24272Y564898D01*
X24123Y564939D01*
X23975Y564984D01*
X23829Y565033D01*
X23683Y565086D01*
X23540Y565142D01*
X23397Y565202D01*
X23257Y565266D01*
X23117Y565333D01*
X22980Y565404D01*
X22845Y565478D01*
X22711Y565556D01*
X22580Y565637D01*
X22451Y565722D01*
X22323Y565810D01*
X22199Y565901D01*
X22076Y565995D01*
X21956Y566093D01*
X21839Y566193D01*
X21724Y566297D01*
X21612Y566403D01*
X21503Y566512D01*
X21397Y566624D01*
X21293Y566739D01*
X21193Y566856D01*
X21095Y566976D01*
X21001Y567099D01*
X20910Y567223D01*
X20822Y567351D01*
X20737Y567480D01*
X20656Y567611D01*
X20578Y567745D01*
X20504Y567880D01*
X20433Y568017D01*
X20366Y568157D01*
X20302Y568297D01*
X20242Y568440D01*
X20186Y568583D01*
X20133Y568729D01*
X20084Y568875D01*
X20039Y569023D01*
X19998Y569172D01*
X19960Y569322D01*
X19927Y569473D01*
X19897Y569624D01*
X19871Y569777D01*
X19850Y569930D01*
X19832Y570083D01*
X19818Y570237D01*
X19808Y570391D01*
X19802Y570546D01*
X19800Y570700D01*
X19800Y470700D02*
X19802Y470854D01*
X19808Y471009D01*
X19818Y471163D01*
X19832Y471317D01*
X19850Y471470D01*
X19871Y471623D01*
X19897Y471776D01*
X19927Y471927D01*
X19960Y472078D01*
X19998Y472228D01*
X20039Y472377D01*
X20084Y472525D01*
X20133Y472671D01*
X20186Y472817D01*
X20242Y472960D01*
X20302Y473103D01*
X20366Y473243D01*
X20433Y473383D01*
X20504Y473520D01*
X20578Y473655D01*
X20656Y473789D01*
X20737Y473920D01*
X20822Y474049D01*
X20910Y474177D01*
X21001Y474301D01*
X21095Y474424D01*
X21193Y474544D01*
X21293Y474661D01*
X21397Y474776D01*
X21503Y474888D01*
X21612Y474997D01*
X21724Y475103D01*
X21839Y475207D01*
X21956Y475307D01*
X22076Y475405D01*
X22199Y475499D01*
X22323Y475590D01*
X22451Y475678D01*
X22580Y475763D01*
X22711Y475844D01*
X22845Y475922D01*
X22980Y475996D01*
X23117Y476067D01*
X23257Y476134D01*
X23397Y476198D01*
X23540Y476258D01*
X23683Y476314D01*
X23829Y476367D01*
X23975Y476416D01*
X24123Y476461D01*
X24272Y476502D01*
X24422Y476540D01*
X24573Y476573D01*
X24724Y476603D01*
X24877Y476629D01*
X25030Y476650D01*
X25183Y476668D01*
X25337Y476682D01*
X25491Y476692D01*
X25646Y476698D01*
X25800Y476700D01*
X25954Y476698D01*
X26109Y476692D01*
X26263Y476682D01*
X26417Y476668D01*
X26570Y476650D01*
X26723Y476629D01*
X26876Y476603D01*
X27027Y476573D01*
X27178Y476540D01*
X27328Y476502D01*
X27477Y476461D01*
X27625Y476416D01*
X27771Y476367D01*
X27917Y476314D01*
X28060Y476258D01*
X28203Y476198D01*
X28343Y476134D01*
X28483Y476067D01*
X28620Y475996D01*
X28755Y475922D01*
X28889Y475844D01*
X29020Y475763D01*
X29149Y475678D01*
X29277Y475590D01*
X29401Y475499D01*
X29524Y475405D01*
X29644Y475307D01*
X29761Y475207D01*
X29876Y475103D01*
X29988Y474997D01*
X30097Y474888D01*
X30203Y474776D01*
X30307Y474661D01*
X30407Y474544D01*
X30505Y474424D01*
X30599Y474301D01*
X30690Y474177D01*
X30778Y474049D01*
X30863Y473920D01*
X30944Y473789D01*
X31022Y473655D01*
X31096Y473520D01*
X31167Y473383D01*
X31234Y473243D01*
X31298Y473103D01*
X31358Y472960D01*
X31414Y472817D01*
X31467Y472671D01*
X31516Y472525D01*
X31561Y472377D01*
X31602Y472228D01*
X31640Y472078D01*
X31673Y471927D01*
X31703Y471776D01*
X31729Y471623D01*
X31750Y471470D01*
X31768Y471317D01*
X31782Y471163D01*
X31792Y471009D01*
X31798Y470854D01*
X31800Y470700D01*
X31798Y470546D01*
X31792Y470391D01*
X31782Y470237D01*
X31768Y470083D01*
X31750Y469930D01*
X31729Y469777D01*
X31703Y469624D01*
X31673Y469473D01*
X31640Y469322D01*
X31602Y469172D01*
X31561Y469023D01*
X31516Y468875D01*
X31467Y468729D01*
X31414Y468583D01*
X31358Y468440D01*
X31298Y468297D01*
X31234Y468157D01*
X31167Y468017D01*
X31096Y467880D01*
X31022Y467745D01*
X30944Y467611D01*
X30863Y467480D01*
X30778Y467351D01*
X30690Y467223D01*
X30599Y467099D01*
X30505Y466976D01*
X30407Y466856D01*
X30307Y466739D01*
X30203Y466624D01*
X30097Y466512D01*
X29988Y466403D01*
X29876Y466297D01*
X29761Y466193D01*
X29644Y466093D01*
X29524Y465995D01*
X29401Y465901D01*
X29277Y465810D01*
X29149Y465722D01*
X29020Y465637D01*
X28889Y465556D01*
X28755Y465478D01*
X28620Y465404D01*
X28483Y465333D01*
X28343Y465266D01*
X28203Y465202D01*
X28060Y465142D01*
X27917Y465086D01*
X27771Y465033D01*
X27625Y464984D01*
X27477Y464939D01*
X27328Y464898D01*
X27178Y464860D01*
X27027Y464827D01*
X26876Y464797D01*
X26723Y464771D01*
X26570Y464750D01*
X26417Y464732D01*
X26263Y464718D01*
X26109Y464708D01*
X25954Y464702D01*
X25800Y464700D01*
X25646Y464702D01*
X25491Y464708D01*
X25337Y464718D01*
X25183Y464732D01*
X25030Y464750D01*
X24877Y464771D01*
X24724Y464797D01*
X24573Y464827D01*
X24422Y464860D01*
X24272Y464898D01*
X24123Y464939D01*
X23975Y464984D01*
X23829Y465033D01*
X23683Y465086D01*
X23540Y465142D01*
X23397Y465202D01*
X23257Y465266D01*
X23117Y465333D01*
X22980Y465404D01*
X22845Y465478D01*
X22711Y465556D01*
X22580Y465637D01*
X22451Y465722D01*
X22323Y465810D01*
X22199Y465901D01*
X22076Y465995D01*
X21956Y466093D01*
X21839Y466193D01*
X21724Y466297D01*
X21612Y466403D01*
X21503Y466512D01*
X21397Y466624D01*
X21293Y466739D01*
X21193Y466856D01*
X21095Y466976D01*
X21001Y467099D01*
X20910Y467223D01*
X20822Y467351D01*
X20737Y467480D01*
X20656Y467611D01*
X20578Y467745D01*
X20504Y467880D01*
X20433Y468017D01*
X20366Y468157D01*
X20302Y468297D01*
X20242Y468440D01*
X20186Y468583D01*
X20133Y468729D01*
X20084Y468875D01*
X20039Y469023D01*
X19998Y469172D01*
X19960Y469322D01*
X19927Y469473D01*
X19897Y469624D01*
X19871Y469777D01*
X19850Y469930D01*
X19832Y470083D01*
X19818Y470237D01*
X19808Y470391D01*
X19802Y470546D01*
X19800Y470700D01*
X44800Y470700D02*
X44802Y470854D01*
X44808Y471009D01*
X44818Y471163D01*
X44832Y471317D01*
X44850Y471470D01*
X44871Y471623D01*
X44897Y471776D01*
X44927Y471927D01*
X44960Y472078D01*
X44998Y472228D01*
X45039Y472377D01*
X45084Y472525D01*
X45133Y472671D01*
X45186Y472817D01*
X45242Y472960D01*
X45302Y473103D01*
X45366Y473243D01*
X45433Y473383D01*
X45504Y473520D01*
X45578Y473655D01*
X45656Y473789D01*
X45737Y473920D01*
X45822Y474049D01*
X45910Y474177D01*
X46001Y474301D01*
X46095Y474424D01*
X46193Y474544D01*
X46293Y474661D01*
X46397Y474776D01*
X46503Y474888D01*
X46612Y474997D01*
X46724Y475103D01*
X46839Y475207D01*
X46956Y475307D01*
X47076Y475405D01*
X47199Y475499D01*
X47323Y475590D01*
X47451Y475678D01*
X47580Y475763D01*
X47711Y475844D01*
X47845Y475922D01*
X47980Y475996D01*
X48117Y476067D01*
X48257Y476134D01*
X48397Y476198D01*
X48540Y476258D01*
X48683Y476314D01*
X48829Y476367D01*
X48975Y476416D01*
X49123Y476461D01*
X49272Y476502D01*
X49422Y476540D01*
X49573Y476573D01*
X49724Y476603D01*
X49877Y476629D01*
X50030Y476650D01*
X50183Y476668D01*
X50337Y476682D01*
X50491Y476692D01*
X50646Y476698D01*
X50800Y476700D01*
X50954Y476698D01*
X51109Y476692D01*
X51263Y476682D01*
X51417Y476668D01*
X51570Y476650D01*
X51723Y476629D01*
X51876Y476603D01*
X52027Y476573D01*
X52178Y476540D01*
X52328Y476502D01*
X52477Y476461D01*
X52625Y476416D01*
X52771Y476367D01*
X52917Y476314D01*
X53060Y476258D01*
X53203Y476198D01*
X53343Y476134D01*
X53483Y476067D01*
X53620Y475996D01*
X53755Y475922D01*
X53889Y475844D01*
X54020Y475763D01*
X54149Y475678D01*
X54277Y475590D01*
X54401Y475499D01*
X54524Y475405D01*
X54644Y475307D01*
X54761Y475207D01*
X54876Y475103D01*
X54988Y474997D01*
X55097Y474888D01*
X55203Y474776D01*
X55307Y474661D01*
X55407Y474544D01*
X55505Y474424D01*
X55599Y474301D01*
X55690Y474177D01*
X55778Y474049D01*
X55863Y473920D01*
X55944Y473789D01*
X56022Y473655D01*
X56096Y473520D01*
X56167Y473383D01*
X56234Y473243D01*
X56298Y473103D01*
X56358Y472960D01*
X56414Y472817D01*
X56467Y472671D01*
X56516Y472525D01*
X56561Y472377D01*
X56602Y472228D01*
X56640Y472078D01*
X56673Y471927D01*
X56703Y471776D01*
X56729Y471623D01*
X56750Y471470D01*
X56768Y471317D01*
X56782Y471163D01*
X56792Y471009D01*
X56798Y470854D01*
X56800Y470700D01*
X56798Y470546D01*
X56792Y470391D01*
X56782Y470237D01*
X56768Y470083D01*
X56750Y469930D01*
X56729Y469777D01*
X56703Y469624D01*
X56673Y469473D01*
X56640Y469322D01*
X56602Y469172D01*
X56561Y469023D01*
X56516Y468875D01*
X56467Y468729D01*
X56414Y468583D01*
X56358Y468440D01*
X56298Y468297D01*
X56234Y468157D01*
X56167Y468017D01*
X56096Y467880D01*
X56022Y467745D01*
X55944Y467611D01*
X55863Y467480D01*
X55778Y467351D01*
X55690Y467223D01*
X55599Y467099D01*
X55505Y466976D01*
X55407Y466856D01*
X55307Y466739D01*
X55203Y466624D01*
X55097Y466512D01*
X54988Y466403D01*
X54876Y466297D01*
X54761Y466193D01*
X54644Y466093D01*
X54524Y465995D01*
X54401Y465901D01*
X54277Y465810D01*
X54149Y465722D01*
X54020Y465637D01*
X53889Y465556D01*
X53755Y465478D01*
X53620Y465404D01*
X53483Y465333D01*
X53343Y465266D01*
X53203Y465202D01*
X53060Y465142D01*
X52917Y465086D01*
X52771Y465033D01*
X52625Y464984D01*
X52477Y464939D01*
X52328Y464898D01*
X52178Y464860D01*
X52027Y464827D01*
X51876Y464797D01*
X51723Y464771D01*
X51570Y464750D01*
X51417Y464732D01*
X51263Y464718D01*
X51109Y464708D01*
X50954Y464702D01*
X50800Y464700D01*
X50646Y464702D01*
X50491Y464708D01*
X50337Y464718D01*
X50183Y464732D01*
X50030Y464750D01*
X49877Y464771D01*
X49724Y464797D01*
X49573Y464827D01*
X49422Y464860D01*
X49272Y464898D01*
X49123Y464939D01*
X48975Y464984D01*
X48829Y465033D01*
X48683Y465086D01*
X48540Y465142D01*
X48397Y465202D01*
X48257Y465266D01*
X48117Y465333D01*
X47980Y465404D01*
X47845Y465478D01*
X47711Y465556D01*
X47580Y465637D01*
X47451Y465722D01*
X47323Y465810D01*
X47199Y465901D01*
X47076Y465995D01*
X46956Y466093D01*
X46839Y466193D01*
X46724Y466297D01*
X46612Y466403D01*
X46503Y466512D01*
X46397Y466624D01*
X46293Y466739D01*
X46193Y466856D01*
X46095Y466976D01*
X46001Y467099D01*
X45910Y467223D01*
X45822Y467351D01*
X45737Y467480D01*
X45656Y467611D01*
X45578Y467745D01*
X45504Y467880D01*
X45433Y468017D01*
X45366Y468157D01*
X45302Y468297D01*
X45242Y468440D01*
X45186Y468583D01*
X45133Y468729D01*
X45084Y468875D01*
X45039Y469023D01*
X44998Y469172D01*
X44960Y469322D01*
X44927Y469473D01*
X44897Y469624D01*
X44871Y469777D01*
X44850Y469930D01*
X44832Y470083D01*
X44818Y470237D01*
X44808Y470391D01*
X44802Y470546D01*
X44800Y470700D01*
X44800Y710400D02*
X44802Y710554D01*
X44808Y710709D01*
X44818Y710863D01*
X44832Y711017D01*
X44850Y711170D01*
X44871Y711323D01*
X44897Y711476D01*
X44927Y711627D01*
X44960Y711778D01*
X44998Y711928D01*
X45039Y712077D01*
X45084Y712225D01*
X45133Y712371D01*
X45186Y712517D01*
X45242Y712660D01*
X45302Y712803D01*
X45366Y712943D01*
X45433Y713083D01*
X45504Y713220D01*
X45578Y713355D01*
X45656Y713489D01*
X45737Y713620D01*
X45822Y713749D01*
X45910Y713877D01*
X46001Y714001D01*
X46095Y714124D01*
X46193Y714244D01*
X46293Y714361D01*
X46397Y714476D01*
X46503Y714588D01*
X46612Y714697D01*
X46724Y714803D01*
X46839Y714907D01*
X46956Y715007D01*
X47076Y715105D01*
X47199Y715199D01*
X47323Y715290D01*
X47451Y715378D01*
X47580Y715463D01*
X47711Y715544D01*
X47845Y715622D01*
X47980Y715696D01*
X48117Y715767D01*
X48257Y715834D01*
X48397Y715898D01*
X48540Y715958D01*
X48683Y716014D01*
X48829Y716067D01*
X48975Y716116D01*
X49123Y716161D01*
X49272Y716202D01*
X49422Y716240D01*
X49573Y716273D01*
X49724Y716303D01*
X49877Y716329D01*
X50030Y716350D01*
X50183Y716368D01*
X50337Y716382D01*
X50491Y716392D01*
X50646Y716398D01*
X50800Y716400D01*
X50954Y716398D01*
X51109Y716392D01*
X51263Y716382D01*
X51417Y716368D01*
X51570Y716350D01*
X51723Y716329D01*
X51876Y716303D01*
X52027Y716273D01*
X52178Y716240D01*
X52328Y716202D01*
X52477Y716161D01*
X52625Y716116D01*
X52771Y716067D01*
X52917Y716014D01*
X53060Y715958D01*
X53203Y715898D01*
X53343Y715834D01*
X53483Y715767D01*
X53620Y715696D01*
X53755Y715622D01*
X53889Y715544D01*
X54020Y715463D01*
X54149Y715378D01*
X54277Y715290D01*
X54401Y715199D01*
X54524Y715105D01*
X54644Y715007D01*
X54761Y714907D01*
X54876Y714803D01*
X54988Y714697D01*
X55097Y714588D01*
X55203Y714476D01*
X55307Y714361D01*
X55407Y714244D01*
X55505Y714124D01*
X55599Y714001D01*
X55690Y713877D01*
X55778Y713749D01*
X55863Y713620D01*
X55944Y713489D01*
X56022Y713355D01*
X56096Y713220D01*
X56167Y713083D01*
X56234Y712943D01*
X56298Y712803D01*
X56358Y712660D01*
X56414Y712517D01*
X56467Y712371D01*
X56516Y712225D01*
X56561Y712077D01*
X56602Y711928D01*
X56640Y711778D01*
X56673Y711627D01*
X56703Y711476D01*
X56729Y711323D01*
X56750Y711170D01*
X56768Y711017D01*
X56782Y710863D01*
X56792Y710709D01*
X56798Y710554D01*
X56800Y710400D01*
X56798Y710246D01*
X56792Y710091D01*
X56782Y709937D01*
X56768Y709783D01*
X56750Y709630D01*
X56729Y709477D01*
X56703Y709324D01*
X56673Y709173D01*
X56640Y709022D01*
X56602Y708872D01*
X56561Y708723D01*
X56516Y708575D01*
X56467Y708429D01*
X56414Y708283D01*
X56358Y708140D01*
X56298Y707997D01*
X56234Y707857D01*
X56167Y707717D01*
X56096Y707580D01*
X56022Y707445D01*
X55944Y707311D01*
X55863Y707180D01*
X55778Y707051D01*
X55690Y706923D01*
X55599Y706799D01*
X55505Y706676D01*
X55407Y706556D01*
X55307Y706439D01*
X55203Y706324D01*
X55097Y706212D01*
X54988Y706103D01*
X54876Y705997D01*
X54761Y705893D01*
X54644Y705793D01*
X54524Y705695D01*
X54401Y705601D01*
X54277Y705510D01*
X54149Y705422D01*
X54020Y705337D01*
X53889Y705256D01*
X53755Y705178D01*
X53620Y705104D01*
X53483Y705033D01*
X53343Y704966D01*
X53203Y704902D01*
X53060Y704842D01*
X52917Y704786D01*
X52771Y704733D01*
X52625Y704684D01*
X52477Y704639D01*
X52328Y704598D01*
X52178Y704560D01*
X52027Y704527D01*
X51876Y704497D01*
X51723Y704471D01*
X51570Y704450D01*
X51417Y704432D01*
X51263Y704418D01*
X51109Y704408D01*
X50954Y704402D01*
X50800Y704400D01*
X50646Y704402D01*
X50491Y704408D01*
X50337Y704418D01*
X50183Y704432D01*
X50030Y704450D01*
X49877Y704471D01*
X49724Y704497D01*
X49573Y704527D01*
X49422Y704560D01*
X49272Y704598D01*
X49123Y704639D01*
X48975Y704684D01*
X48829Y704733D01*
X48683Y704786D01*
X48540Y704842D01*
X48397Y704902D01*
X48257Y704966D01*
X48117Y705033D01*
X47980Y705104D01*
X47845Y705178D01*
X47711Y705256D01*
X47580Y705337D01*
X47451Y705422D01*
X47323Y705510D01*
X47199Y705601D01*
X47076Y705695D01*
X46956Y705793D01*
X46839Y705893D01*
X46724Y705997D01*
X46612Y706103D01*
X46503Y706212D01*
X46397Y706324D01*
X46293Y706439D01*
X46193Y706556D01*
X46095Y706676D01*
X46001Y706799D01*
X45910Y706923D01*
X45822Y707051D01*
X45737Y707180D01*
X45656Y707311D01*
X45578Y707445D01*
X45504Y707580D01*
X45433Y707717D01*
X45366Y707857D01*
X45302Y707997D01*
X45242Y708140D01*
X45186Y708283D01*
X45133Y708429D01*
X45084Y708575D01*
X45039Y708723D01*
X44998Y708872D01*
X44960Y709022D01*
X44927Y709173D01*
X44897Y709324D01*
X44871Y709477D01*
X44850Y709630D01*
X44832Y709783D01*
X44818Y709937D01*
X44808Y710091D01*
X44802Y710246D01*
X44800Y710400D01*
X19800Y710400D02*
X19802Y710554D01*
X19808Y710709D01*
X19818Y710863D01*
X19832Y711017D01*
X19850Y711170D01*
X19871Y711323D01*
X19897Y711476D01*
X19927Y711627D01*
X19960Y711778D01*
X19998Y711928D01*
X20039Y712077D01*
X20084Y712225D01*
X20133Y712371D01*
X20186Y712517D01*
X20242Y712660D01*
X20302Y712803D01*
X20366Y712943D01*
X20433Y713083D01*
X20504Y713220D01*
X20578Y713355D01*
X20656Y713489D01*
X20737Y713620D01*
X20822Y713749D01*
X20910Y713877D01*
X21001Y714001D01*
X21095Y714124D01*
X21193Y714244D01*
X21293Y714361D01*
X21397Y714476D01*
X21503Y714588D01*
X21612Y714697D01*
X21724Y714803D01*
X21839Y714907D01*
X21956Y715007D01*
X22076Y715105D01*
X22199Y715199D01*
X22323Y715290D01*
X22451Y715378D01*
X22580Y715463D01*
X22711Y715544D01*
X22845Y715622D01*
X22980Y715696D01*
X23117Y715767D01*
X23257Y715834D01*
X23397Y715898D01*
X23540Y715958D01*
X23683Y716014D01*
X23829Y716067D01*
X23975Y716116D01*
X24123Y716161D01*
X24272Y716202D01*
X24422Y716240D01*
X24573Y716273D01*
X24724Y716303D01*
X24877Y716329D01*
X25030Y716350D01*
X25183Y716368D01*
X25337Y716382D01*
X25491Y716392D01*
X25646Y716398D01*
X25800Y716400D01*
X25954Y716398D01*
X26109Y716392D01*
X26263Y716382D01*
X26417Y716368D01*
X26570Y716350D01*
X26723Y716329D01*
X26876Y716303D01*
X27027Y716273D01*
X27178Y716240D01*
X27328Y716202D01*
X27477Y716161D01*
X27625Y716116D01*
X27771Y716067D01*
X27917Y716014D01*
X28060Y715958D01*
X28203Y715898D01*
X28343Y715834D01*
X28483Y715767D01*
X28620Y715696D01*
X28755Y715622D01*
X28889Y715544D01*
X29020Y715463D01*
X29149Y715378D01*
X29277Y715290D01*
X29401Y715199D01*
X29524Y715105D01*
X29644Y715007D01*
X29761Y714907D01*
X29876Y714803D01*
X29988Y714697D01*
X30097Y714588D01*
X30203Y714476D01*
X30307Y714361D01*
X30407Y714244D01*
X30505Y714124D01*
X30599Y714001D01*
X30690Y713877D01*
X30778Y713749D01*
X30863Y713620D01*
X30944Y713489D01*
X31022Y713355D01*
X31096Y713220D01*
X31167Y713083D01*
X31234Y712943D01*
X31298Y712803D01*
X31358Y712660D01*
X31414Y712517D01*
X31467Y712371D01*
X31516Y712225D01*
X31561Y712077D01*
X31602Y711928D01*
X31640Y711778D01*
X31673Y711627D01*
X31703Y711476D01*
X31729Y711323D01*
X31750Y711170D01*
X31768Y711017D01*
X31782Y710863D01*
X31792Y710709D01*
X31798Y710554D01*
X31800Y710400D01*
X31798Y710246D01*
X31792Y710091D01*
X31782Y709937D01*
X31768Y709783D01*
X31750Y709630D01*
X31729Y709477D01*
X31703Y709324D01*
X31673Y709173D01*
X31640Y709022D01*
X31602Y708872D01*
X31561Y708723D01*
X31516Y708575D01*
X31467Y708429D01*
X31414Y708283D01*
X31358Y708140D01*
X31298Y707997D01*
X31234Y707857D01*
X31167Y707717D01*
X31096Y707580D01*
X31022Y707445D01*
X30944Y707311D01*
X30863Y707180D01*
X30778Y707051D01*
X30690Y706923D01*
X30599Y706799D01*
X30505Y706676D01*
X30407Y706556D01*
X30307Y706439D01*
X30203Y706324D01*
X30097Y706212D01*
X29988Y706103D01*
X29876Y705997D01*
X29761Y705893D01*
X29644Y705793D01*
X29524Y705695D01*
X29401Y705601D01*
X29277Y705510D01*
X29149Y705422D01*
X29020Y705337D01*
X28889Y705256D01*
X28755Y705178D01*
X28620Y705104D01*
X28483Y705033D01*
X28343Y704966D01*
X28203Y704902D01*
X28060Y704842D01*
X27917Y704786D01*
X27771Y704733D01*
X27625Y704684D01*
X27477Y704639D01*
X27328Y704598D01*
X27178Y704560D01*
X27027Y704527D01*
X26876Y704497D01*
X26723Y704471D01*
X26570Y704450D01*
X26417Y704432D01*
X26263Y704418D01*
X26109Y704408D01*
X25954Y704402D01*
X25800Y704400D01*
X25646Y704402D01*
X25491Y704408D01*
X25337Y704418D01*
X25183Y704432D01*
X25030Y704450D01*
X24877Y704471D01*
X24724Y704497D01*
X24573Y704527D01*
X24422Y704560D01*
X24272Y704598D01*
X24123Y704639D01*
X23975Y704684D01*
X23829Y704733D01*
X23683Y704786D01*
X23540Y704842D01*
X23397Y704902D01*
X23257Y704966D01*
X23117Y705033D01*
X22980Y705104D01*
X22845Y705178D01*
X22711Y705256D01*
X22580Y705337D01*
X22451Y705422D01*
X22323Y705510D01*
X22199Y705601D01*
X22076Y705695D01*
X21956Y705793D01*
X21839Y705893D01*
X21724Y705997D01*
X21612Y706103D01*
X21503Y706212D01*
X21397Y706324D01*
X21293Y706439D01*
X21193Y706556D01*
X21095Y706676D01*
X21001Y706799D01*
X20910Y706923D01*
X20822Y707051D01*
X20737Y707180D01*
X20656Y707311D01*
X20578Y707445D01*
X20504Y707580D01*
X20433Y707717D01*
X20366Y707857D01*
X20302Y707997D01*
X20242Y708140D01*
X20186Y708283D01*
X20133Y708429D01*
X20084Y708575D01*
X20039Y708723D01*
X19998Y708872D01*
X19960Y709022D01*
X19927Y709173D01*
X19897Y709324D01*
X19871Y709477D01*
X19850Y709630D01*
X19832Y709783D01*
X19818Y709937D01*
X19808Y710091D01*
X19802Y710246D01*
X19800Y710400D01*
X19800Y610400D02*
X19802Y610554D01*
X19808Y610709D01*
X19818Y610863D01*
X19832Y611017D01*
X19850Y611170D01*
X19871Y611323D01*
X19897Y611476D01*
X19927Y611627D01*
X19960Y611778D01*
X19998Y611928D01*
X20039Y612077D01*
X20084Y612225D01*
X20133Y612371D01*
X20186Y612517D01*
X20242Y612660D01*
X20302Y612803D01*
X20366Y612943D01*
X20433Y613083D01*
X20504Y613220D01*
X20578Y613355D01*
X20656Y613489D01*
X20737Y613620D01*
X20822Y613749D01*
X20910Y613877D01*
X21001Y614001D01*
X21095Y614124D01*
X21193Y614244D01*
X21293Y614361D01*
X21397Y614476D01*
X21503Y614588D01*
X21612Y614697D01*
X21724Y614803D01*
X21839Y614907D01*
X21956Y615007D01*
X22076Y615105D01*
X22199Y615199D01*
X22323Y615290D01*
X22451Y615378D01*
X22580Y615463D01*
X22711Y615544D01*
X22845Y615622D01*
X22980Y615696D01*
X23117Y615767D01*
X23257Y615834D01*
X23397Y615898D01*
X23540Y615958D01*
X23683Y616014D01*
X23829Y616067D01*
X23975Y616116D01*
X24123Y616161D01*
X24272Y616202D01*
X24422Y616240D01*
X24573Y616273D01*
X24724Y616303D01*
X24877Y616329D01*
X25030Y616350D01*
X25183Y616368D01*
X25337Y616382D01*
X25491Y616392D01*
X25646Y616398D01*
X25800Y616400D01*
X25954Y616398D01*
X26109Y616392D01*
X26263Y616382D01*
X26417Y616368D01*
X26570Y616350D01*
X26723Y616329D01*
X26876Y616303D01*
X27027Y616273D01*
X27178Y616240D01*
X27328Y616202D01*
X27477Y616161D01*
X27625Y616116D01*
X27771Y616067D01*
X27917Y616014D01*
X28060Y615958D01*
X28203Y615898D01*
X28343Y615834D01*
X28483Y615767D01*
X28620Y615696D01*
X28755Y615622D01*
X28889Y615544D01*
X29020Y615463D01*
X29149Y615378D01*
X29277Y615290D01*
X29401Y615199D01*
X29524Y615105D01*
X29644Y615007D01*
X29761Y614907D01*
X29876Y614803D01*
X29988Y614697D01*
X30097Y614588D01*
X30203Y614476D01*
X30307Y614361D01*
X30407Y614244D01*
X30505Y614124D01*
X30599Y614001D01*
X30690Y613877D01*
X30778Y613749D01*
X30863Y613620D01*
X30944Y613489D01*
X31022Y613355D01*
X31096Y613220D01*
X31167Y613083D01*
X31234Y612943D01*
X31298Y612803D01*
X31358Y612660D01*
X31414Y612517D01*
X31467Y612371D01*
X31516Y612225D01*
X31561Y612077D01*
X31602Y611928D01*
X31640Y611778D01*
X31673Y611627D01*
X31703Y611476D01*
X31729Y611323D01*
X31750Y611170D01*
X31768Y611017D01*
X31782Y610863D01*
X31792Y610709D01*
X31798Y610554D01*
X31800Y610400D01*
X31798Y610246D01*
X31792Y610091D01*
X31782Y609937D01*
X31768Y609783D01*
X31750Y609630D01*
X31729Y609477D01*
X31703Y609324D01*
X31673Y609173D01*
X31640Y609022D01*
X31602Y608872D01*
X31561Y608723D01*
X31516Y608575D01*
X31467Y608429D01*
X31414Y608283D01*
X31358Y608140D01*
X31298Y607997D01*
X31234Y607857D01*
X31167Y607717D01*
X31096Y607580D01*
X31022Y607445D01*
X30944Y607311D01*
X30863Y607180D01*
X30778Y607051D01*
X30690Y606923D01*
X30599Y606799D01*
X30505Y606676D01*
X30407Y606556D01*
X30307Y606439D01*
X30203Y606324D01*
X30097Y606212D01*
X29988Y606103D01*
X29876Y605997D01*
X29761Y605893D01*
X29644Y605793D01*
X29524Y605695D01*
X29401Y605601D01*
X29277Y605510D01*
X29149Y605422D01*
X29020Y605337D01*
X28889Y605256D01*
X28755Y605178D01*
X28620Y605104D01*
X28483Y605033D01*
X28343Y604966D01*
X28203Y604902D01*
X28060Y604842D01*
X27917Y604786D01*
X27771Y604733D01*
X27625Y604684D01*
X27477Y604639D01*
X27328Y604598D01*
X27178Y604560D01*
X27027Y604527D01*
X26876Y604497D01*
X26723Y604471D01*
X26570Y604450D01*
X26417Y604432D01*
X26263Y604418D01*
X26109Y604408D01*
X25954Y604402D01*
X25800Y604400D01*
X25646Y604402D01*
X25491Y604408D01*
X25337Y604418D01*
X25183Y604432D01*
X25030Y604450D01*
X24877Y604471D01*
X24724Y604497D01*
X24573Y604527D01*
X24422Y604560D01*
X24272Y604598D01*
X24123Y604639D01*
X23975Y604684D01*
X23829Y604733D01*
X23683Y604786D01*
X23540Y604842D01*
X23397Y604902D01*
X23257Y604966D01*
X23117Y605033D01*
X22980Y605104D01*
X22845Y605178D01*
X22711Y605256D01*
X22580Y605337D01*
X22451Y605422D01*
X22323Y605510D01*
X22199Y605601D01*
X22076Y605695D01*
X21956Y605793D01*
X21839Y605893D01*
X21724Y605997D01*
X21612Y606103D01*
X21503Y606212D01*
X21397Y606324D01*
X21293Y606439D01*
X21193Y606556D01*
X21095Y606676D01*
X21001Y606799D01*
X20910Y606923D01*
X20822Y607051D01*
X20737Y607180D01*
X20656Y607311D01*
X20578Y607445D01*
X20504Y607580D01*
X20433Y607717D01*
X20366Y607857D01*
X20302Y607997D01*
X20242Y608140D01*
X20186Y608283D01*
X20133Y608429D01*
X20084Y608575D01*
X20039Y608723D01*
X19998Y608872D01*
X19960Y609022D01*
X19927Y609173D01*
X19897Y609324D01*
X19871Y609477D01*
X19850Y609630D01*
X19832Y609783D01*
X19818Y609937D01*
X19808Y610091D01*
X19802Y610246D01*
X19800Y610400D01*
X44800Y610400D02*
X44802Y610554D01*
X44808Y610709D01*
X44818Y610863D01*
X44832Y611017D01*
X44850Y611170D01*
X44871Y611323D01*
X44897Y611476D01*
X44927Y611627D01*
X44960Y611778D01*
X44998Y611928D01*
X45039Y612077D01*
X45084Y612225D01*
X45133Y612371D01*
X45186Y612517D01*
X45242Y612660D01*
X45302Y612803D01*
X45366Y612943D01*
X45433Y613083D01*
X45504Y613220D01*
X45578Y613355D01*
X45656Y613489D01*
X45737Y613620D01*
X45822Y613749D01*
X45910Y613877D01*
X46001Y614001D01*
X46095Y614124D01*
X46193Y614244D01*
X46293Y614361D01*
X46397Y614476D01*
X46503Y614588D01*
X46612Y614697D01*
X46724Y614803D01*
X46839Y614907D01*
X46956Y615007D01*
X47076Y615105D01*
X47199Y615199D01*
X47323Y615290D01*
X47451Y615378D01*
X47580Y615463D01*
X47711Y615544D01*
X47845Y615622D01*
X47980Y615696D01*
X48117Y615767D01*
X48257Y615834D01*
X48397Y615898D01*
X48540Y615958D01*
X48683Y616014D01*
X48829Y616067D01*
X48975Y616116D01*
X49123Y616161D01*
X49272Y616202D01*
X49422Y616240D01*
X49573Y616273D01*
X49724Y616303D01*
X49877Y616329D01*
X50030Y616350D01*
X50183Y616368D01*
X50337Y616382D01*
X50491Y616392D01*
X50646Y616398D01*
X50800Y616400D01*
X50954Y616398D01*
X51109Y616392D01*
X51263Y616382D01*
X51417Y616368D01*
X51570Y616350D01*
X51723Y616329D01*
X51876Y616303D01*
X52027Y616273D01*
X52178Y616240D01*
X52328Y616202D01*
X52477Y616161D01*
X52625Y616116D01*
X52771Y616067D01*
X52917Y616014D01*
X53060Y615958D01*
X53203Y615898D01*
X53343Y615834D01*
X53483Y615767D01*
X53620Y615696D01*
X53755Y615622D01*
X53889Y615544D01*
X54020Y615463D01*
X54149Y615378D01*
X54277Y615290D01*
X54401Y615199D01*
X54524Y615105D01*
X54644Y615007D01*
X54761Y614907D01*
X54876Y614803D01*
X54988Y614697D01*
X55097Y614588D01*
X55203Y614476D01*
X55307Y614361D01*
X55407Y614244D01*
X55505Y614124D01*
X55599Y614001D01*
X55690Y613877D01*
X55778Y613749D01*
X55863Y613620D01*
X55944Y613489D01*
X56022Y613355D01*
X56096Y613220D01*
X56167Y613083D01*
X56234Y612943D01*
X56298Y612803D01*
X56358Y612660D01*
X56414Y612517D01*
X56467Y612371D01*
X56516Y612225D01*
X56561Y612077D01*
X56602Y611928D01*
X56640Y611778D01*
X56673Y611627D01*
X56703Y611476D01*
X56729Y611323D01*
X56750Y611170D01*
X56768Y611017D01*
X56782Y610863D01*
X56792Y610709D01*
X56798Y610554D01*
X56800Y610400D01*
X56798Y610246D01*
X56792Y610091D01*
X56782Y609937D01*
X56768Y609783D01*
X56750Y609630D01*
X56729Y609477D01*
X56703Y609324D01*
X56673Y609173D01*
X56640Y609022D01*
X56602Y608872D01*
X56561Y608723D01*
X56516Y608575D01*
X56467Y608429D01*
X56414Y608283D01*
X56358Y608140D01*
X56298Y607997D01*
X56234Y607857D01*
X56167Y607717D01*
X56096Y607580D01*
X56022Y607445D01*
X55944Y607311D01*
X55863Y607180D01*
X55778Y607051D01*
X55690Y606923D01*
X55599Y606799D01*
X55505Y606676D01*
X55407Y606556D01*
X55307Y606439D01*
X55203Y606324D01*
X55097Y606212D01*
X54988Y606103D01*
X54876Y605997D01*
X54761Y605893D01*
X54644Y605793D01*
X54524Y605695D01*
X54401Y605601D01*
X54277Y605510D01*
X54149Y605422D01*
X54020Y605337D01*
X53889Y605256D01*
X53755Y605178D01*
X53620Y605104D01*
X53483Y605033D01*
X53343Y604966D01*
X53203Y604902D01*
X53060Y604842D01*
X52917Y604786D01*
X52771Y604733D01*
X52625Y604684D01*
X52477Y604639D01*
X52328Y604598D01*
X52178Y604560D01*
X52027Y604527D01*
X51876Y604497D01*
X51723Y604471D01*
X51570Y604450D01*
X51417Y604432D01*
X51263Y604418D01*
X51109Y604408D01*
X50954Y604402D01*
X50800Y604400D01*
X50646Y604402D01*
X50491Y604408D01*
X50337Y604418D01*
X50183Y604432D01*
X50030Y604450D01*
X49877Y604471D01*
X49724Y604497D01*
X49573Y604527D01*
X49422Y604560D01*
X49272Y604598D01*
X49123Y604639D01*
X48975Y604684D01*
X48829Y604733D01*
X48683Y604786D01*
X48540Y604842D01*
X48397Y604902D01*
X48257Y604966D01*
X48117Y605033D01*
X47980Y605104D01*
X47845Y605178D01*
X47711Y605256D01*
X47580Y605337D01*
X47451Y605422D01*
X47323Y605510D01*
X47199Y605601D01*
X47076Y605695D01*
X46956Y605793D01*
X46839Y605893D01*
X46724Y605997D01*
X46612Y606103D01*
X46503Y606212D01*
X46397Y606324D01*
X46293Y606439D01*
X46193Y606556D01*
X46095Y606676D01*
X46001Y606799D01*
X45910Y606923D01*
X45822Y607051D01*
X45737Y607180D01*
X45656Y607311D01*
X45578Y607445D01*
X45504Y607580D01*
X45433Y607717D01*
X45366Y607857D01*
X45302Y607997D01*
X45242Y608140D01*
X45186Y608283D01*
X45133Y608429D01*
X45084Y608575D01*
X45039Y608723D01*
X44998Y608872D01*
X44960Y609022D01*
X44927Y609173D01*
X44897Y609324D01*
X44871Y609477D01*
X44850Y609630D01*
X44832Y609783D01*
X44818Y609937D01*
X44808Y610091D01*
X44802Y610246D01*
X44800Y610400D01*
D11*
X0Y0D02*
X685800Y0D01*
X685800Y736600D01*
X0Y736600D01*
X0Y0D01*
X56800Y570363D02*
X56725Y569693D01*
X56575Y569036D01*
X56352Y568400D01*
X56060Y567793D01*
X55701Y567223D01*
X55281Y566696D01*
X54804Y566219D01*
X54278Y565799D01*
X53707Y565440D01*
X53100Y565148D01*
X52464Y564925D01*
X51807Y564775D01*
X51137Y564700D01*
X50463Y564700D01*
X49793Y564775D01*
X49136Y564925D01*
X48500Y565148D01*
X47893Y565440D01*
X47323Y565799D01*
X46796Y566219D01*
X46319Y566696D01*
X45899Y567223D01*
X45540Y567793D01*
X45248Y568400D01*
X45025Y569036D01*
X44875Y569693D01*
X44800Y570363D01*
X44800Y571037D01*
X44875Y571707D01*
X45025Y572364D01*
X45248Y573000D01*
X45540Y573607D01*
X45899Y574178D01*
X46319Y574704D01*
X46796Y575181D01*
X47323Y575601D01*
X47893Y575960D01*
X48500Y576252D01*
X49136Y576475D01*
X49793Y576625D01*
X50463Y576700D01*
X51137Y576700D01*
X51807Y576625D01*
X52464Y576475D01*
X53100Y576252D01*
X53707Y575960D01*
X54278Y575601D01*
X54804Y575181D01*
X55281Y574704D01*
X55701Y574178D01*
X56060Y573607D01*
X56352Y573000D01*
X56575Y572364D01*
X56725Y571707D01*
X56800Y571037D01*
X56800Y570363D01*
X31800Y570363D02*
X31725Y569693D01*
X31575Y569036D01*
X31352Y568400D01*
X31060Y567793D01*
X30701Y567223D01*
X30281Y566696D01*
X29804Y566219D01*
X29278Y565799D01*
X28707Y565440D01*
X28100Y565148D01*
X27464Y564925D01*
X26807Y564775D01*
X26137Y564700D01*
X25463Y564700D01*
X24793Y564775D01*
X24136Y564925D01*
X23500Y565148D01*
X22893Y565440D01*
X22323Y565799D01*
X21796Y566219D01*
X21319Y566696D01*
X20899Y567223D01*
X20540Y567793D01*
X20248Y568400D01*
X20025Y569036D01*
X19875Y569693D01*
X19800Y570363D01*
X19800Y571037D01*
X19875Y571707D01*
X20025Y572364D01*
X20248Y573000D01*
X20540Y573607D01*
X20899Y574178D01*
X21319Y574704D01*
X21796Y575181D01*
X22323Y575601D01*
X22893Y575960D01*
X23500Y576252D01*
X24136Y576475D01*
X24793Y576625D01*
X25463Y576700D01*
X26137Y576700D01*
X26807Y576625D01*
X27464Y576475D01*
X28100Y576252D01*
X28707Y575960D01*
X29278Y575601D01*
X29804Y575181D01*
X30281Y574704D01*
X30701Y574178D01*
X31060Y573607D01*
X31352Y573000D01*
X31575Y572364D01*
X31725Y571707D01*
X31800Y571037D01*
X31800Y570363D01*
X31800Y470363D02*
X31725Y469693D01*
X31575Y469036D01*
X31352Y468400D01*
X31060Y467793D01*
X30701Y467223D01*
X30281Y466696D01*
X29804Y466219D01*
X29278Y465799D01*
X28707Y465440D01*
X28100Y465148D01*
X27464Y464925D01*
X26807Y464775D01*
X26137Y464700D01*
X25463Y464700D01*
X24793Y464775D01*
X24136Y464925D01*
X23500Y465148D01*
X22893Y465440D01*
X22323Y465799D01*
X21796Y466219D01*
X21319Y466696D01*
X20899Y467223D01*
X20540Y467793D01*
X20248Y468400D01*
X20025Y469036D01*
X19875Y469693D01*
X19800Y470363D01*
X19800Y471037D01*
X19875Y471707D01*
X20025Y472364D01*
X20248Y473000D01*
X20540Y473607D01*
X20899Y474178D01*
X21319Y474704D01*
X21796Y475181D01*
X22323Y475601D01*
X22893Y475960D01*
X23500Y476252D01*
X24136Y476475D01*
X24793Y476625D01*
X25463Y476700D01*
X26137Y476700D01*
X26807Y476625D01*
X27464Y476475D01*
X28100Y476252D01*
X28707Y475960D01*
X29278Y475601D01*
X29804Y475181D01*
X30281Y474704D01*
X30701Y474178D01*
X31060Y473607D01*
X31352Y473000D01*
X31575Y472364D01*
X31725Y471707D01*
X31800Y471037D01*
X31800Y470363D01*
X56800Y470363D02*
X56725Y469693D01*
X56575Y469036D01*
X56352Y468400D01*
X56060Y467793D01*
X55701Y467223D01*
X55281Y466696D01*
X54804Y466219D01*
X54278Y465799D01*
X53707Y465440D01*
X53100Y465148D01*
X52464Y464925D01*
X51807Y464775D01*
X51137Y464700D01*
X50463Y464700D01*
X49793Y464775D01*
X49136Y464925D01*
X48500Y465148D01*
X47893Y465440D01*
X47323Y465799D01*
X46796Y466219D01*
X46319Y466696D01*
X45899Y467223D01*
X45540Y467793D01*
X45248Y468400D01*
X45025Y469036D01*
X44875Y469693D01*
X44800Y470363D01*
X44800Y471037D01*
X44875Y471707D01*
X45025Y472364D01*
X45248Y473000D01*
X45540Y473607D01*
X45899Y474178D01*
X46319Y474704D01*
X46796Y475181D01*
X47323Y475601D01*
X47893Y475960D01*
X48500Y476252D01*
X49136Y476475D01*
X49793Y476625D01*
X50463Y476700D01*
X51137Y476700D01*
X51807Y476625D01*
X52464Y476475D01*
X53100Y476252D01*
X53707Y475960D01*
X54278Y475601D01*
X54804Y475181D01*
X55281Y474704D01*
X55701Y474178D01*
X56060Y473607D01*
X56352Y473000D01*
X56575Y472364D01*
X56725Y471707D01*
X56800Y471037D01*
X56800Y470363D01*
X56800Y710063D02*
X56725Y709393D01*
X56575Y708736D01*
X56352Y708100D01*
X56060Y707493D01*
X55701Y706923D01*
X55281Y706396D01*
X54804Y705919D01*
X54278Y705499D01*
X53707Y705140D01*
X53100Y704848D01*
X52464Y704625D01*
X51807Y704475D01*
X51137Y704400D01*
X50463Y704400D01*
X49793Y704475D01*
X49136Y704625D01*
X48500Y704848D01*
X47893Y705140D01*
X47323Y705499D01*
X46796Y705919D01*
X46319Y706396D01*
X45899Y706923D01*
X45540Y707493D01*
X45248Y708100D01*
X45025Y708736D01*
X44875Y709393D01*
X44800Y710063D01*
X44800Y710737D01*
X44875Y711407D01*
X45025Y712064D01*
X45248Y712700D01*
X45540Y713307D01*
X45899Y713878D01*
X46319Y714404D01*
X46796Y714881D01*
X47323Y715301D01*
X47893Y715660D01*
X48500Y715952D01*
X49136Y716175D01*
X49793Y716325D01*
X50463Y716400D01*
X51137Y716400D01*
X51807Y716325D01*
X52464Y716175D01*
X53100Y715952D01*
X53707Y715660D01*
X54278Y715301D01*
X54804Y714881D01*
X55281Y714404D01*
X55701Y713878D01*
X56060Y713307D01*
X56352Y712700D01*
X56575Y712064D01*
X56725Y711407D01*
X56800Y710737D01*
X56800Y710063D01*
X31800Y710063D02*
X31725Y709393D01*
X31575Y708736D01*
X31352Y708100D01*
X31060Y707493D01*
X30701Y706923D01*
X30281Y706396D01*
X29804Y705919D01*
X29278Y705499D01*
X28707Y705140D01*
X28100Y704848D01*
X27464Y704625D01*
X26807Y704475D01*
X26137Y704400D01*
X25463Y704400D01*
X24793Y704475D01*
X24136Y704625D01*
X23500Y704848D01*
X22893Y705140D01*
X22323Y705499D01*
X21796Y705919D01*
X21319Y706396D01*
X20899Y706923D01*
X20540Y707493D01*
X20248Y708100D01*
X20025Y708736D01*
X19875Y709393D01*
X19800Y710063D01*
X19800Y710737D01*
X19875Y711407D01*
X20025Y712064D01*
X20248Y712700D01*
X20540Y713307D01*
X20899Y713878D01*
X21319Y714404D01*
X21796Y714881D01*
X22323Y715301D01*
X22893Y715660D01*
X23500Y715952D01*
X24136Y716175D01*
X24793Y716325D01*
X25463Y716400D01*
X26137Y716400D01*
X26807Y716325D01*
X27464Y716175D01*
X28100Y715952D01*
X28707Y715660D01*
X29278Y715301D01*
X29804Y714881D01*
X30281Y714404D01*
X30701Y713878D01*
X31060Y713307D01*
X31352Y712700D01*
X31575Y712064D01*
X31725Y711407D01*
X31800Y710737D01*
X31800Y710063D01*
X31800Y610063D02*
X31725Y609393D01*
X31575Y608736D01*
X31352Y608100D01*
X31060Y607493D01*
X30701Y606923D01*
X30281Y606396D01*
X29804Y605919D01*
X29278Y605499D01*
X28707Y605140D01*
X28100Y604848D01*
X27464Y604625D01*
X26807Y604475D01*
X26137Y604400D01*
X25463Y604400D01*
X24793Y604475D01*
X24136Y604625D01*
X23500Y604848D01*
X22893Y605140D01*
X22323Y605499D01*
X21796Y605919D01*
X21319Y606396D01*
X20899Y606923D01*
X20540Y607493D01*
X20248Y608100D01*
X20025Y608736D01*
X19875Y609393D01*
X19800Y610063D01*
X19800Y610737D01*
X19875Y611407D01*
X20025Y612064D01*
X20248Y612700D01*
X20540Y613307D01*
X20899Y613878D01*
X21319Y614404D01*
X21796Y614881D01*
X22323Y615301D01*
X22893Y615660D01*
X23500Y615952D01*
X24136Y616175D01*
X24793Y616325D01*
X25463Y616400D01*
X26137Y616400D01*
X26807Y616325D01*
X27464Y616175D01*
X28100Y615952D01*
X28707Y615660D01*
X29278Y615301D01*
X29804Y614881D01*
X30281Y614404D01*
X30701Y613878D01*
X31060Y613307D01*
X31352Y612700D01*
X31575Y612064D01*
X31725Y611407D01*
X31800Y610737D01*
X31800Y610063D01*
X56800Y610063D02*
X56725Y609393D01*
X56575Y608736D01*
X56352Y608100D01*
X56060Y607493D01*
X55701Y606923D01*
X55281Y606396D01*
X54804Y605919D01*
X54278Y605499D01*
X53707Y605140D01*
X53100Y604848D01*
X52464Y604625D01*
X51807Y604475D01*
X51137Y604400D01*
X50463Y604400D01*
X49793Y604475D01*
X49136Y604625D01*
X48500Y604848D01*
X47893Y605140D01*
X47323Y605499D01*
X46796Y605919D01*
X46319Y606396D01*
X45899Y606923D01*
X45540Y607493D01*
X45248Y608100D01*
X45025Y608736D01*
X44875Y609393D01*
X44800Y610063D01*
X44800Y610737D01*
X44875Y611407D01*
X45025Y612064D01*
X45248Y612700D01*
X45540Y613307D01*
X45899Y613878D01*
X46319Y614404D01*
X46796Y614881D01*
X47323Y615301D01*
X47893Y615660D01*
X48500Y615952D01*
X49136Y616175D01*
X49793Y616325D01*
X50463Y616400D01*
X51137Y616400D01*
X51807Y616325D01*
X52464Y616175D01*
X53100Y615952D01*
X53707Y615660D01*
X54278Y615301D01*
X54804Y614881D01*
X55281Y614404D01*
X55701Y613878D01*
X56060Y613307D01*
X56352Y612700D01*
X56575Y612064D01*
X56725Y611407D01*
X56800Y610737D01*
X56800Y610063D01*
M02*
