G04 EAGLE Gerber RS-274X export*
G75*
%MOMM*%
%FSLAX34Y34*%
%LPD*%
%INSilkscreen Bottom*%
%IPPOS*%
%AMOC8*
5,1,8,0,0,1.08239X$1,22.5*%
G01*
%ADD10C,0.152400*%
%ADD11C,0.127000*%


D10*
X455930Y383540D02*
X483870Y383540D01*
X455930Y403860D02*
X455830Y403858D01*
X455731Y403852D01*
X455631Y403842D01*
X455533Y403829D01*
X455434Y403811D01*
X455337Y403790D01*
X455241Y403765D01*
X455145Y403736D01*
X455051Y403703D01*
X454958Y403667D01*
X454867Y403627D01*
X454777Y403583D01*
X454689Y403536D01*
X454603Y403486D01*
X454519Y403432D01*
X454437Y403375D01*
X454358Y403315D01*
X454280Y403251D01*
X454206Y403185D01*
X454134Y403116D01*
X454065Y403044D01*
X453999Y402970D01*
X453935Y402892D01*
X453875Y402813D01*
X453818Y402731D01*
X453764Y402647D01*
X453714Y402561D01*
X453667Y402473D01*
X453623Y402383D01*
X453583Y402292D01*
X453547Y402199D01*
X453514Y402105D01*
X453485Y402009D01*
X453460Y401913D01*
X453439Y401816D01*
X453421Y401717D01*
X453408Y401619D01*
X453398Y401519D01*
X453392Y401420D01*
X453390Y401320D01*
X483870Y403860D02*
X483970Y403858D01*
X484069Y403852D01*
X484169Y403842D01*
X484267Y403829D01*
X484366Y403811D01*
X484463Y403790D01*
X484559Y403765D01*
X484655Y403736D01*
X484749Y403703D01*
X484842Y403667D01*
X484933Y403627D01*
X485023Y403583D01*
X485111Y403536D01*
X485197Y403486D01*
X485281Y403432D01*
X485363Y403375D01*
X485442Y403315D01*
X485520Y403251D01*
X485594Y403185D01*
X485666Y403116D01*
X485735Y403044D01*
X485801Y402970D01*
X485865Y402892D01*
X485925Y402813D01*
X485982Y402731D01*
X486036Y402647D01*
X486086Y402561D01*
X486133Y402473D01*
X486177Y402383D01*
X486217Y402292D01*
X486253Y402199D01*
X486286Y402105D01*
X486315Y402009D01*
X486340Y401913D01*
X486361Y401816D01*
X486379Y401717D01*
X486392Y401619D01*
X486402Y401519D01*
X486408Y401420D01*
X486410Y401320D01*
X486410Y386080D02*
X486408Y385980D01*
X486402Y385881D01*
X486392Y385781D01*
X486379Y385683D01*
X486361Y385584D01*
X486340Y385487D01*
X486315Y385391D01*
X486286Y385295D01*
X486253Y385201D01*
X486217Y385108D01*
X486177Y385017D01*
X486133Y384927D01*
X486086Y384839D01*
X486036Y384753D01*
X485982Y384669D01*
X485925Y384587D01*
X485865Y384508D01*
X485801Y384430D01*
X485735Y384356D01*
X485666Y384284D01*
X485594Y384215D01*
X485520Y384149D01*
X485442Y384085D01*
X485363Y384025D01*
X485281Y383968D01*
X485197Y383914D01*
X485111Y383864D01*
X485023Y383817D01*
X484933Y383773D01*
X484842Y383733D01*
X484749Y383697D01*
X484655Y383664D01*
X484559Y383635D01*
X484463Y383610D01*
X484366Y383589D01*
X484267Y383571D01*
X484169Y383558D01*
X484069Y383548D01*
X483970Y383542D01*
X483870Y383540D01*
X455930Y383540D02*
X455830Y383542D01*
X455731Y383548D01*
X455631Y383558D01*
X455533Y383571D01*
X455434Y383589D01*
X455337Y383610D01*
X455241Y383635D01*
X455145Y383664D01*
X455051Y383697D01*
X454958Y383733D01*
X454867Y383773D01*
X454777Y383817D01*
X454689Y383864D01*
X454603Y383914D01*
X454519Y383968D01*
X454437Y384025D01*
X454358Y384085D01*
X454280Y384149D01*
X454206Y384215D01*
X454134Y384284D01*
X454065Y384356D01*
X453999Y384430D01*
X453935Y384508D01*
X453875Y384587D01*
X453818Y384669D01*
X453764Y384753D01*
X453714Y384839D01*
X453667Y384927D01*
X453623Y385017D01*
X453583Y385108D01*
X453547Y385201D01*
X453514Y385295D01*
X453485Y385391D01*
X453460Y385487D01*
X453439Y385584D01*
X453421Y385683D01*
X453408Y385781D01*
X453398Y385881D01*
X453392Y385980D01*
X453390Y386080D01*
X453390Y401320D01*
X486410Y401320D02*
X486410Y386080D01*
X483870Y403860D02*
X455930Y403860D01*
D11*
X478149Y415298D02*
X480055Y417205D01*
X483868Y417205D01*
X485775Y415298D01*
X485775Y413392D01*
X483868Y411485D01*
X480055Y411485D01*
X478149Y409578D01*
X478149Y407672D01*
X480055Y405765D01*
X483868Y405765D01*
X485775Y407672D01*
X474081Y407672D02*
X472174Y405765D01*
X470268Y405765D01*
X468361Y407672D01*
X468361Y417205D01*
X466455Y417205D02*
X470268Y417205D01*
X462387Y413392D02*
X458574Y417205D01*
X458574Y405765D01*
X462387Y405765D02*
X454761Y405765D01*
D10*
X455930Y332740D02*
X483870Y332740D01*
X455930Y353060D02*
X455830Y353058D01*
X455731Y353052D01*
X455631Y353042D01*
X455533Y353029D01*
X455434Y353011D01*
X455337Y352990D01*
X455241Y352965D01*
X455145Y352936D01*
X455051Y352903D01*
X454958Y352867D01*
X454867Y352827D01*
X454777Y352783D01*
X454689Y352736D01*
X454603Y352686D01*
X454519Y352632D01*
X454437Y352575D01*
X454358Y352515D01*
X454280Y352451D01*
X454206Y352385D01*
X454134Y352316D01*
X454065Y352244D01*
X453999Y352170D01*
X453935Y352092D01*
X453875Y352013D01*
X453818Y351931D01*
X453764Y351847D01*
X453714Y351761D01*
X453667Y351673D01*
X453623Y351583D01*
X453583Y351492D01*
X453547Y351399D01*
X453514Y351305D01*
X453485Y351209D01*
X453460Y351113D01*
X453439Y351016D01*
X453421Y350917D01*
X453408Y350819D01*
X453398Y350719D01*
X453392Y350620D01*
X453390Y350520D01*
X483870Y353060D02*
X483970Y353058D01*
X484069Y353052D01*
X484169Y353042D01*
X484267Y353029D01*
X484366Y353011D01*
X484463Y352990D01*
X484559Y352965D01*
X484655Y352936D01*
X484749Y352903D01*
X484842Y352867D01*
X484933Y352827D01*
X485023Y352783D01*
X485111Y352736D01*
X485197Y352686D01*
X485281Y352632D01*
X485363Y352575D01*
X485442Y352515D01*
X485520Y352451D01*
X485594Y352385D01*
X485666Y352316D01*
X485735Y352244D01*
X485801Y352170D01*
X485865Y352092D01*
X485925Y352013D01*
X485982Y351931D01*
X486036Y351847D01*
X486086Y351761D01*
X486133Y351673D01*
X486177Y351583D01*
X486217Y351492D01*
X486253Y351399D01*
X486286Y351305D01*
X486315Y351209D01*
X486340Y351113D01*
X486361Y351016D01*
X486379Y350917D01*
X486392Y350819D01*
X486402Y350719D01*
X486408Y350620D01*
X486410Y350520D01*
X486410Y335280D02*
X486408Y335180D01*
X486402Y335081D01*
X486392Y334981D01*
X486379Y334883D01*
X486361Y334784D01*
X486340Y334687D01*
X486315Y334591D01*
X486286Y334495D01*
X486253Y334401D01*
X486217Y334308D01*
X486177Y334217D01*
X486133Y334127D01*
X486086Y334039D01*
X486036Y333953D01*
X485982Y333869D01*
X485925Y333787D01*
X485865Y333708D01*
X485801Y333630D01*
X485735Y333556D01*
X485666Y333484D01*
X485594Y333415D01*
X485520Y333349D01*
X485442Y333285D01*
X485363Y333225D01*
X485281Y333168D01*
X485197Y333114D01*
X485111Y333064D01*
X485023Y333017D01*
X484933Y332973D01*
X484842Y332933D01*
X484749Y332897D01*
X484655Y332864D01*
X484559Y332835D01*
X484463Y332810D01*
X484366Y332789D01*
X484267Y332771D01*
X484169Y332758D01*
X484069Y332748D01*
X483970Y332742D01*
X483870Y332740D01*
X455930Y332740D02*
X455830Y332742D01*
X455731Y332748D01*
X455631Y332758D01*
X455533Y332771D01*
X455434Y332789D01*
X455337Y332810D01*
X455241Y332835D01*
X455145Y332864D01*
X455051Y332897D01*
X454958Y332933D01*
X454867Y332973D01*
X454777Y333017D01*
X454689Y333064D01*
X454603Y333114D01*
X454519Y333168D01*
X454437Y333225D01*
X454358Y333285D01*
X454280Y333349D01*
X454206Y333415D01*
X454134Y333484D01*
X454065Y333556D01*
X453999Y333630D01*
X453935Y333708D01*
X453875Y333787D01*
X453818Y333869D01*
X453764Y333953D01*
X453714Y334039D01*
X453667Y334127D01*
X453623Y334217D01*
X453583Y334308D01*
X453547Y334401D01*
X453514Y334495D01*
X453485Y334591D01*
X453460Y334687D01*
X453439Y334784D01*
X453421Y334883D01*
X453408Y334981D01*
X453398Y335081D01*
X453392Y335180D01*
X453390Y335280D01*
X453390Y350520D01*
X486410Y350520D02*
X486410Y335280D01*
X483870Y353060D02*
X455930Y353060D01*
D11*
X478149Y364498D02*
X480055Y366405D01*
X483868Y366405D01*
X485775Y364498D01*
X485775Y362592D01*
X483868Y360685D01*
X480055Y360685D01*
X478149Y358778D01*
X478149Y356872D01*
X480055Y354965D01*
X483868Y354965D01*
X485775Y356872D01*
X474081Y356872D02*
X472174Y354965D01*
X470268Y354965D01*
X468361Y356872D01*
X468361Y366405D01*
X466455Y366405D02*
X470268Y366405D01*
X462387Y354965D02*
X454761Y354965D01*
X462387Y354965D02*
X454761Y362592D01*
X454761Y364498D01*
X456667Y366405D01*
X460480Y366405D01*
X462387Y364498D01*
D10*
X455930Y281940D02*
X483870Y281940D01*
X455930Y302260D02*
X455830Y302258D01*
X455731Y302252D01*
X455631Y302242D01*
X455533Y302229D01*
X455434Y302211D01*
X455337Y302190D01*
X455241Y302165D01*
X455145Y302136D01*
X455051Y302103D01*
X454958Y302067D01*
X454867Y302027D01*
X454777Y301983D01*
X454689Y301936D01*
X454603Y301886D01*
X454519Y301832D01*
X454437Y301775D01*
X454358Y301715D01*
X454280Y301651D01*
X454206Y301585D01*
X454134Y301516D01*
X454065Y301444D01*
X453999Y301370D01*
X453935Y301292D01*
X453875Y301213D01*
X453818Y301131D01*
X453764Y301047D01*
X453714Y300961D01*
X453667Y300873D01*
X453623Y300783D01*
X453583Y300692D01*
X453547Y300599D01*
X453514Y300505D01*
X453485Y300409D01*
X453460Y300313D01*
X453439Y300216D01*
X453421Y300117D01*
X453408Y300019D01*
X453398Y299919D01*
X453392Y299820D01*
X453390Y299720D01*
X483870Y302260D02*
X483970Y302258D01*
X484069Y302252D01*
X484169Y302242D01*
X484267Y302229D01*
X484366Y302211D01*
X484463Y302190D01*
X484559Y302165D01*
X484655Y302136D01*
X484749Y302103D01*
X484842Y302067D01*
X484933Y302027D01*
X485023Y301983D01*
X485111Y301936D01*
X485197Y301886D01*
X485281Y301832D01*
X485363Y301775D01*
X485442Y301715D01*
X485520Y301651D01*
X485594Y301585D01*
X485666Y301516D01*
X485735Y301444D01*
X485801Y301370D01*
X485865Y301292D01*
X485925Y301213D01*
X485982Y301131D01*
X486036Y301047D01*
X486086Y300961D01*
X486133Y300873D01*
X486177Y300783D01*
X486217Y300692D01*
X486253Y300599D01*
X486286Y300505D01*
X486315Y300409D01*
X486340Y300313D01*
X486361Y300216D01*
X486379Y300117D01*
X486392Y300019D01*
X486402Y299919D01*
X486408Y299820D01*
X486410Y299720D01*
X486410Y284480D02*
X486408Y284380D01*
X486402Y284281D01*
X486392Y284181D01*
X486379Y284083D01*
X486361Y283984D01*
X486340Y283887D01*
X486315Y283791D01*
X486286Y283695D01*
X486253Y283601D01*
X486217Y283508D01*
X486177Y283417D01*
X486133Y283327D01*
X486086Y283239D01*
X486036Y283153D01*
X485982Y283069D01*
X485925Y282987D01*
X485865Y282908D01*
X485801Y282830D01*
X485735Y282756D01*
X485666Y282684D01*
X485594Y282615D01*
X485520Y282549D01*
X485442Y282485D01*
X485363Y282425D01*
X485281Y282368D01*
X485197Y282314D01*
X485111Y282264D01*
X485023Y282217D01*
X484933Y282173D01*
X484842Y282133D01*
X484749Y282097D01*
X484655Y282064D01*
X484559Y282035D01*
X484463Y282010D01*
X484366Y281989D01*
X484267Y281971D01*
X484169Y281958D01*
X484069Y281948D01*
X483970Y281942D01*
X483870Y281940D01*
X455930Y281940D02*
X455830Y281942D01*
X455731Y281948D01*
X455631Y281958D01*
X455533Y281971D01*
X455434Y281989D01*
X455337Y282010D01*
X455241Y282035D01*
X455145Y282064D01*
X455051Y282097D01*
X454958Y282133D01*
X454867Y282173D01*
X454777Y282217D01*
X454689Y282264D01*
X454603Y282314D01*
X454519Y282368D01*
X454437Y282425D01*
X454358Y282485D01*
X454280Y282549D01*
X454206Y282615D01*
X454134Y282684D01*
X454065Y282756D01*
X453999Y282830D01*
X453935Y282908D01*
X453875Y282987D01*
X453818Y283069D01*
X453764Y283153D01*
X453714Y283239D01*
X453667Y283327D01*
X453623Y283417D01*
X453583Y283508D01*
X453547Y283601D01*
X453514Y283695D01*
X453485Y283791D01*
X453460Y283887D01*
X453439Y283984D01*
X453421Y284083D01*
X453408Y284181D01*
X453398Y284281D01*
X453392Y284380D01*
X453390Y284480D01*
X453390Y299720D01*
X486410Y299720D02*
X486410Y284480D01*
X483870Y302260D02*
X455930Y302260D01*
D11*
X478149Y313698D02*
X480055Y315605D01*
X483868Y315605D01*
X485775Y313698D01*
X485775Y311792D01*
X483868Y309885D01*
X480055Y309885D01*
X478149Y307978D01*
X478149Y306072D01*
X480055Y304165D01*
X483868Y304165D01*
X485775Y306072D01*
X474081Y306072D02*
X472174Y304165D01*
X470268Y304165D01*
X468361Y306072D01*
X468361Y315605D01*
X466455Y315605D02*
X470268Y315605D01*
X462387Y313698D02*
X460480Y315605D01*
X456667Y315605D01*
X454761Y313698D01*
X454761Y311792D01*
X456667Y309885D01*
X458574Y309885D01*
X456667Y309885D02*
X454761Y307978D01*
X454761Y306072D01*
X456667Y304165D01*
X460480Y304165D01*
X462387Y306072D01*
M02*
