M48
;GenerationSoftware,Autodesk,EAGLE,9.6.1*%
;CreationDate,2023-12-13T06:35:07Z*%
FMAT,2
ICI,OFF
METRIC,TZ,000.000
T7C0.610
T6C0.813
T5C0.900
T4C0.914
T3C1.016
T2C1.200
T1C1.300
%
G90
M71
T1
X10080Y71040
X10080Y66000
X10080Y61040
X10080Y63540
X5080Y52070
X10080Y68540
X5080Y66040
X10080Y52030
X10080Y47070
X10080Y49570
X10080Y57070
X10080Y54570
T2
X5080Y47070
X5080Y71040
X2580Y71040
X2580Y61040
X5080Y61040
X5080Y57070
X2580Y57070
X2580Y47070
T3
X57150Y49530
X34290Y67310
X27940Y13970
T4
X31750Y69850
X29210Y69850
T5
X62230Y7620
X64770Y2540
X64770Y7620
X36830Y7620
X3810Y2540
X3810Y7620
X6350Y2540
X6350Y7620
X8890Y2540
X8890Y7620
X11430Y2540
X11430Y7620
X13970Y2540
X13970Y7620
X16510Y2540
X16510Y7620
X19050Y2540
X19050Y7620
X21590Y2540
X21590Y7620
X24130Y2540
X24130Y7620
X26670Y2540
X26670Y7620
X29210Y2540
X29210Y7620
X31750Y2540
X31750Y7620
X34290Y2540
X34290Y7620
X36830Y2540
X62230Y2540
X39370Y2540
X39370Y7620
X41910Y2540
X41910Y7620
X44450Y2540
X44450Y7620
X46990Y2540
X46990Y7620
X49530Y2540
X49530Y7620
X52070Y2540
X52070Y7620
X54610Y2540
X54610Y7620
X57150Y2540
X57150Y7620
X59690Y2540
X59690Y7620
T6
X43180Y52070
X41910Y55880
X39370Y55880
X27940Y46990
X55880Y43180
X55880Y40640
X55880Y38100
X55880Y35560
X55880Y33020
X55880Y30480
X55880Y27940
X55880Y25400
X55880Y22860
X55880Y20320
X55880Y17780
X55880Y15240
X63500Y15240
X63500Y17780
X63500Y20320
X63500Y22860
X63500Y25400
X63500Y27940
X63500Y30480
X63500Y33020
X63500Y35560
X63500Y38100
X63500Y40640
X63500Y43180
X63500Y45720
X60960Y45720
X66040Y52070
X63500Y52070
X6350Y16510
X8890Y16510
X11430Y16510
X13970Y16510
X16510Y16510
X19050Y16510
X21590Y16510
X24130Y16510
X26670Y16510
X29210Y16510
X31750Y16510
X34290Y16510
X36830Y16510
X39370Y16510
X39370Y31750
X36830Y31750
X34290Y31750
X31750Y31750
X29210Y31750
X26670Y31750
X24130Y31750
X21590Y31750
X19050Y31750
X16510Y31750
X13970Y31750
X11430Y31750
X8890Y31750
X6350Y31750
X5207Y38100
X10033Y38100
X3810Y43180
X6350Y43180
X11430Y43180
X8890Y43180
X22860Y13970
X25400Y13970
X20320Y13970
X17780Y13970
X15265Y68580
X20295Y68580
X17780Y71120
X24130Y68580
X24130Y66040
X36830Y58420
X39370Y58420
X39370Y66040
X36830Y66040
X41910Y58420
X44450Y58420
X41910Y66040
X44450Y66040
X40640Y68580
X43180Y68580
X34290Y63500
X34290Y60960
X46990Y63500
X46990Y60960
X19050Y46990
X16510Y46990
X53340Y68580
X45720Y68580
X52070Y60960
X57150Y67310
X57150Y59690
X63500Y59690
X60960Y59690
X63500Y68580
X60960Y68580
X57150Y55880
X57150Y53340
X27940Y35560
X27940Y43180
X52070Y63500
X25400Y46990
X31750Y35560
X34290Y35560
X34290Y43180
X31750Y43180
X36830Y35560
X39370Y35560
X36830Y43180
X39370Y43180
X36830Y46990
X34290Y46990
X46990Y46990
X39370Y46990
X39370Y52070
X39370Y49530
X31750Y46990
X31750Y49530
X24130Y35560
X16510Y35560
X24130Y39370
X21590Y39370
X19050Y58420
X16510Y58420
X50800Y52070
T7
X51117Y19368
X51117Y29527
X35243Y11430
X31750Y10795
X37465Y37783
X49212Y20003
X29845Y19685
X33338Y18415
X40323Y22542
X46037Y9525
X50482Y31750
X50482Y36830
X30797Y22542
X61277Y17780
X60007Y19050
X34608Y23177
X26670Y18733
X53022Y25082
X45402Y27622
X44450Y28575
X58420Y4445
M30