G04 EAGLE Gerber RS-274X export*
G75*
%MOMM*%
%FSLAX34Y34*%
%LPD*%
%INTop Copper*%
%IPPOS*%
%AMOC8*
5,1,8,0,0,1.08239X$1,22.5*%
G01*
%ADD10R,1.408000X1.408000*%
%ADD11P,1.429621X8X202.500000*%
%ADD12P,1.732040X8X202.500000*%
%ADD13C,1.600200*%
%ADD14R,1.778000X1.778000*%
%ADD15C,1.778000*%
%ADD16C,3.766000*%
%ADD17C,1.320800*%
%ADD18C,1.422400*%
%ADD19C,4.445000*%
%ADD20C,3.810000*%
%ADD21P,1.732040X8X112.500000*%
%ADD22P,1.429621X8X112.500000*%
%ADD23P,1.429621X8X292.500000*%
%ADD24P,1.429621X8X22.500000*%
%ADD25C,0.254000*%
%ADD26C,1.016000*%
%ADD27C,0.812800*%
%ADD28C,0.609600*%


D10*
X38100Y25400D03*
X38100Y76200D03*
X63500Y25400D03*
X63500Y76200D03*
X88900Y25400D03*
X88900Y76200D03*
X114300Y25400D03*
X114300Y76200D03*
X139700Y25400D03*
X139700Y76200D03*
X165100Y25400D03*
X165100Y76200D03*
X190500Y25400D03*
X190500Y76200D03*
X215900Y25400D03*
X215900Y76200D03*
X241300Y25400D03*
X241300Y76200D03*
X266700Y25400D03*
X266700Y76200D03*
X292100Y25400D03*
X292100Y76200D03*
X317500Y25400D03*
X317500Y76200D03*
X342900Y25400D03*
X342900Y76200D03*
X368300Y25400D03*
X368300Y76200D03*
X393700Y25400D03*
X393700Y76200D03*
X419100Y25400D03*
X419100Y76200D03*
X444500Y25400D03*
X444500Y76200D03*
X469900Y25400D03*
X469900Y76200D03*
X495300Y25400D03*
X495300Y76200D03*
X520700Y25400D03*
X520700Y76200D03*
X546100Y25400D03*
X546100Y76200D03*
X571500Y25400D03*
X571500Y76200D03*
X596900Y25400D03*
X596900Y76200D03*
X622300Y25400D03*
X622300Y76200D03*
X647700Y25400D03*
X647700Y76200D03*
D11*
X660400Y393700D03*
X635000Y393700D03*
D12*
X165100Y152400D03*
D13*
X190500Y152400D03*
D14*
X101600Y481900D03*
D15*
X101600Y456500D03*
X127000Y481900D03*
X127000Y456500D03*
X152400Y481900D03*
X152400Y456500D03*
X177800Y481900D03*
X177800Y456500D03*
X203200Y481900D03*
X203200Y456500D03*
X228600Y481900D03*
X228600Y456500D03*
X254000Y481900D03*
X254000Y456500D03*
X279400Y481900D03*
X279400Y456500D03*
X304800Y481900D03*
X304800Y456500D03*
X330200Y481900D03*
X330200Y456500D03*
X355600Y481900D03*
X355600Y456500D03*
X381000Y481900D03*
X381000Y456500D03*
X406400Y481900D03*
X406400Y456500D03*
X431800Y481900D03*
X431800Y456500D03*
X457200Y481900D03*
X457200Y456500D03*
X482600Y481900D03*
X482600Y456500D03*
X508000Y481900D03*
X508000Y456500D03*
X533400Y481900D03*
X533400Y456500D03*
X558800Y481900D03*
X558800Y456500D03*
X584200Y481900D03*
X584200Y456500D03*
D16*
X52900Y699200D03*
X52900Y469200D03*
X632900Y469200D03*
X632900Y699200D03*
D17*
X590804Y368300D02*
X577596Y368300D01*
X577596Y342900D02*
X590804Y342900D01*
X590804Y215900D02*
X577596Y215900D01*
X577596Y190500D02*
X590804Y190500D01*
X590804Y317500D02*
X577596Y317500D01*
X577596Y292100D02*
X590804Y292100D01*
X590804Y241300D02*
X577596Y241300D01*
X577596Y266700D02*
X590804Y266700D01*
X590804Y165100D02*
X577596Y165100D01*
X577596Y139700D02*
X590804Y139700D01*
X653796Y139700D02*
X667004Y139700D01*
X667004Y165100D02*
X653796Y165100D01*
X653796Y190500D02*
X667004Y190500D01*
X667004Y215900D02*
X653796Y215900D01*
X653796Y241300D02*
X667004Y241300D01*
X667004Y266700D02*
X653796Y266700D01*
X653796Y292100D02*
X667004Y292100D01*
X667004Y317500D02*
X653796Y317500D01*
X653796Y342900D02*
X667004Y342900D01*
X667004Y368300D02*
X653796Y368300D01*
X44704Y368300D02*
X31496Y368300D01*
X31496Y342900D02*
X44704Y342900D01*
X44704Y215900D02*
X31496Y215900D01*
X31496Y190500D02*
X44704Y190500D01*
X44704Y317500D02*
X31496Y317500D01*
X31496Y292100D02*
X44704Y292100D01*
X44704Y241300D02*
X31496Y241300D01*
X31496Y266700D02*
X44704Y266700D01*
X44704Y165100D02*
X31496Y165100D01*
X31496Y139700D02*
X44704Y139700D01*
X107696Y139700D02*
X120904Y139700D01*
X120904Y165100D02*
X107696Y165100D01*
X107696Y190500D02*
X120904Y190500D01*
X120904Y215900D02*
X107696Y215900D01*
X107696Y241300D02*
X120904Y241300D01*
X120904Y266700D02*
X107696Y266700D01*
X107696Y292100D02*
X120904Y292100D01*
X120904Y317500D02*
X107696Y317500D01*
X107696Y342900D02*
X120904Y342900D01*
X120904Y368300D02*
X107696Y368300D01*
D18*
X45212Y520700D02*
X30988Y520700D01*
X30988Y546100D02*
X45212Y546100D01*
D19*
X132600Y609600D03*
D20*
X71600Y609600D03*
X101600Y657600D03*
D21*
X203200Y622300D03*
D13*
X203200Y596900D03*
D22*
X203200Y342900D03*
X203200Y419100D03*
D23*
X546100Y406400D03*
X546100Y330200D03*
D11*
X114300Y393700D03*
X88900Y393700D03*
X317500Y393700D03*
X292100Y393700D03*
X469900Y393700D03*
X444500Y393700D03*
D23*
X203200Y279400D03*
X203200Y203200D03*
X177800Y342900D03*
X177800Y266700D03*
D24*
X533400Y152400D03*
X520700Y171450D03*
X508000Y152400D03*
D23*
X508000Y279400D03*
X508000Y203200D03*
D17*
X247904Y368300D02*
X234696Y368300D01*
X234696Y342900D02*
X247904Y342900D01*
X247904Y215900D02*
X234696Y215900D01*
X234696Y190500D02*
X247904Y190500D01*
X247904Y317500D02*
X234696Y317500D01*
X234696Y292100D02*
X247904Y292100D01*
X247904Y241300D02*
X234696Y241300D01*
X234696Y266700D02*
X247904Y266700D01*
X247904Y165100D02*
X234696Y165100D01*
X234696Y139700D02*
X247904Y139700D01*
X310896Y139700D02*
X324104Y139700D01*
X324104Y165100D02*
X310896Y165100D01*
X310896Y190500D02*
X324104Y190500D01*
X324104Y215900D02*
X310896Y215900D01*
X310896Y241300D02*
X324104Y241300D01*
X324104Y266700D02*
X310896Y266700D01*
X310896Y292100D02*
X324104Y292100D01*
X324104Y317500D02*
X310896Y317500D01*
X310896Y342900D02*
X324104Y342900D01*
X324104Y368300D02*
X310896Y368300D01*
X387096Y368300D02*
X400304Y368300D01*
X400304Y342900D02*
X387096Y342900D01*
X387096Y215900D02*
X400304Y215900D01*
X400304Y190500D02*
X387096Y190500D01*
X387096Y317500D02*
X400304Y317500D01*
X400304Y292100D02*
X387096Y292100D01*
X387096Y241300D02*
X400304Y241300D01*
X400304Y266700D02*
X387096Y266700D01*
X387096Y165100D02*
X400304Y165100D01*
X400304Y139700D02*
X387096Y139700D01*
X463296Y139700D02*
X476504Y139700D01*
X476504Y165100D02*
X463296Y165100D01*
X463296Y190500D02*
X476504Y190500D01*
X476504Y215900D02*
X463296Y215900D01*
X463296Y241300D02*
X476504Y241300D01*
X476504Y266700D02*
X463296Y266700D01*
X463296Y292100D02*
X476504Y292100D01*
X476504Y317500D02*
X463296Y317500D01*
X463296Y342900D02*
X476504Y342900D01*
X476504Y368300D02*
X463296Y368300D01*
D22*
X152400Y203200D03*
X152400Y279400D03*
X152400Y342900D03*
X152400Y419100D03*
D25*
X295275Y320675D02*
X317500Y342900D01*
X295275Y320675D02*
X295275Y149225D01*
X300038Y144463D01*
X300038Y87313D01*
X303213Y84138D01*
X303213Y53975D01*
X495300Y49213D02*
X495300Y76200D01*
D26*
X303213Y53975D03*
X495300Y49213D03*
D25*
X360363Y300038D02*
X344488Y315913D01*
X360363Y300038D02*
X360363Y92075D01*
X431800Y63500D02*
X479425Y63500D01*
X479425Y41275D01*
X495300Y25400D01*
D26*
X344488Y315913D03*
X360363Y92075D03*
X431800Y63500D03*
D25*
X365125Y325438D02*
X361950Y328613D01*
X365125Y325438D02*
X365125Y100013D01*
X369888Y95250D01*
X369888Y77788D01*
X368300Y76200D01*
D26*
X361950Y328613D03*
D25*
X614363Y279400D02*
X627063Y292100D01*
X614363Y279400D02*
X614363Y112713D01*
X584200Y82550D01*
X584200Y63500D01*
D26*
X627063Y292100D03*
X584200Y63500D03*
D25*
X603250Y184150D02*
X604838Y185738D01*
X603250Y184150D02*
X603250Y127000D01*
X557213Y80963D01*
X557213Y55563D01*
X317500Y93663D02*
X309563Y101600D01*
X317500Y93663D02*
X317500Y76200D01*
D26*
X604838Y185738D03*
X557213Y55563D03*
X309563Y101600D03*
D25*
X484188Y88900D02*
X487363Y92075D01*
X484188Y88900D02*
X484188Y47625D01*
X495300Y36513D01*
X506413Y36513D01*
X506413Y17463D01*
X498475Y9525D01*
X354013Y9525D01*
X354013Y50800D01*
X342900Y61913D01*
X342900Y76200D01*
D26*
X487363Y92075D03*
D25*
X647700Y127000D02*
X660400Y139700D01*
X647700Y127000D02*
X647700Y95250D01*
X633413Y80963D01*
X633413Y68263D01*
X601663Y36513D01*
X571500Y36513D01*
X571500Y25400D01*
X449263Y144463D02*
X469900Y165100D01*
X449263Y144463D02*
X449263Y104775D01*
D26*
X449263Y104775D03*
D25*
X344488Y176213D02*
X341313Y179388D01*
X344488Y176213D02*
X344488Y96838D01*
X328613Y80963D01*
X328613Y66675D01*
X306388Y44450D01*
X241300Y44450D01*
X241300Y76200D01*
D26*
X341313Y179388D03*
D25*
X317500Y165100D02*
X334963Y147638D01*
X334963Y112713D01*
X468313Y109538D02*
X469900Y107950D01*
X469900Y76200D01*
D26*
X334963Y112713D03*
X468313Y109538D03*
D25*
X374650Y88900D02*
X374650Y198438D01*
X374650Y88900D02*
X382588Y80963D01*
X382588Y38100D01*
X393700Y26988D01*
X393700Y25400D01*
D26*
X374650Y198438D03*
D25*
X409575Y227013D02*
X412750Y223838D01*
X412750Y88900D01*
X407988Y84138D01*
X407988Y36513D01*
X419100Y25400D01*
D26*
X409575Y227013D03*
D25*
X334963Y258763D02*
X317500Y241300D01*
X334963Y258763D02*
X334963Y346075D01*
X323850Y357188D01*
X290513Y357188D01*
X290513Y363538D01*
X98425Y354013D02*
X87313Y342900D01*
X87313Y96838D01*
D26*
X290513Y363538D03*
X98425Y354013D03*
X87313Y96838D03*
D25*
X300038Y249238D02*
X317500Y266700D01*
X300038Y249238D02*
X300038Y212725D01*
X311150Y201613D01*
X350838Y201613D01*
X350838Y87313D01*
X357188Y80963D01*
X357188Y55563D01*
X382588Y30163D01*
X382588Y17463D01*
X385763Y14288D01*
X469900Y14288D01*
X469900Y25400D01*
X114300Y266700D02*
X96838Y249238D01*
X96838Y87313D01*
X101600Y82550D01*
X101600Y63500D01*
X139700Y25400D01*
X177800Y63500D02*
X215900Y25400D01*
X177800Y63500D02*
X177800Y177800D01*
X152400Y203200D01*
X660400Y317500D02*
X677863Y300038D01*
X677863Y288925D01*
X666750Y277813D01*
X642938Y277813D01*
X642938Y115888D01*
X608013Y80963D01*
X608013Y61913D01*
D26*
X608013Y61913D03*
D27*
X38100Y76200D02*
X38100Y139700D01*
X38100Y76200D02*
X38100Y25400D01*
X38100Y76200D02*
X63500Y76200D01*
X546100Y330200D02*
X550863Y325438D01*
X550863Y171450D01*
X582613Y139700D01*
X584200Y139700D01*
X635000Y393700D02*
X627063Y401638D01*
X627063Y436563D01*
X612775Y450850D01*
X219075Y606425D02*
X203200Y622300D01*
X219075Y536575D02*
X219075Y498475D01*
X219075Y536575D02*
X219075Y552450D01*
X219075Y606425D01*
X219075Y498475D02*
X203200Y482600D01*
X203200Y481900D01*
X352425Y536575D02*
X406400Y482600D01*
X352425Y536575D02*
X219075Y536575D01*
X406400Y482600D02*
X406400Y481900D01*
X509588Y557213D02*
X584200Y482600D01*
X509588Y557213D02*
X354013Y557213D01*
X354013Y539750D01*
X584200Y482600D02*
X584200Y481900D01*
X354013Y539750D02*
X352425Y536575D01*
X204788Y369888D02*
X177800Y342900D01*
X204788Y369888D02*
X204788Y388938D01*
X152400Y457200D02*
X123031Y427831D01*
X115094Y419894D01*
X88900Y393700D01*
X152400Y456500D02*
X152400Y457200D01*
X115094Y419894D02*
X79375Y455613D01*
X79375Y552450D02*
X79375Y603250D01*
X79375Y552450D02*
X79375Y455613D01*
X79375Y603250D02*
X73025Y609600D01*
X71600Y609600D01*
X123031Y427831D02*
X150813Y400050D01*
X219075Y552450D02*
X79375Y552450D01*
X77788Y177800D02*
X41275Y141288D01*
X77788Y177800D02*
X77788Y381000D01*
X87313Y390525D01*
X41275Y141288D02*
X38100Y139700D01*
X87313Y390525D02*
X88900Y393700D01*
D26*
X612775Y450850D03*
X204788Y388938D03*
X150813Y400050D03*
D27*
X490538Y304800D02*
X498475Y296863D01*
X490538Y304800D02*
X490538Y349250D01*
X471488Y368300D01*
X469900Y368300D01*
X469900Y393700D01*
X317500Y393700D02*
X317500Y368300D01*
X140494Y291306D02*
X134938Y296863D01*
X140494Y291306D02*
X152400Y279400D01*
X134938Y296863D02*
X134938Y349250D01*
X115888Y368300D01*
X114300Y368300D01*
X114300Y393700D01*
X138113Y100013D02*
X114300Y76200D01*
X138113Y234950D02*
X138113Y288925D01*
X138113Y234950D02*
X138113Y100013D01*
X138113Y288925D02*
X140494Y291306D01*
X38100Y546100D02*
X15875Y546100D01*
X15875Y390525D01*
X38100Y368300D01*
X187325Y155575D02*
X190500Y152400D01*
X187325Y155575D02*
X187325Y188913D01*
X141288Y234950D01*
X138113Y234950D01*
X314325Y398463D02*
X315913Y396875D01*
X314325Y398463D02*
X314325Y422275D01*
X315913Y396875D02*
X317500Y393700D01*
D26*
X498475Y296863D03*
X314325Y422275D03*
D25*
X449263Y153988D02*
X439738Y144463D01*
X449263Y153988D02*
X449263Y341313D01*
X355600Y385763D02*
X355600Y456500D01*
D26*
X439738Y144463D03*
X449263Y341313D03*
X355600Y385763D03*
D25*
X280988Y150813D02*
X287338Y144463D01*
X280988Y150813D02*
X280988Y398463D01*
X304800Y422275D01*
X304800Y456500D01*
D26*
X287338Y144463D03*
D25*
X584200Y317500D02*
X596900Y330200D01*
X596900Y334963D01*
X614363Y352425D01*
X614363Y428625D01*
D26*
X614363Y428625D03*
D25*
X611188Y317500D02*
X611188Y298450D01*
X509588Y315913D02*
X504825Y320675D01*
X504825Y441325D01*
X495300Y450850D01*
X495300Y468313D01*
X482600Y481013D01*
X482600Y481900D01*
D26*
X611188Y298450D03*
X611188Y317500D03*
X509588Y315913D03*
D25*
X412750Y280988D02*
X411163Y282575D01*
X411163Y430213D01*
X406400Y434975D01*
X406400Y456500D01*
D26*
X412750Y280988D03*
D25*
X422275Y306388D02*
X415925Y312738D01*
X415925Y431800D01*
X419100Y434975D01*
D26*
X422275Y306388D03*
X419100Y434975D03*
D25*
X444500Y234950D02*
X439738Y230188D01*
X444500Y234950D02*
X444500Y333375D01*
X425450Y352425D01*
X425450Y388938D01*
X384175Y396875D02*
X368300Y412750D01*
X368300Y468313D01*
X355600Y481013D01*
X355600Y481900D01*
D26*
X439738Y230188D03*
X425450Y388938D03*
X384175Y396875D03*
D25*
X584200Y190500D02*
X601663Y207963D01*
X601663Y331788D01*
X649288Y379413D01*
X649288Y454025D01*
X655638Y460375D01*
X655638Y477838D01*
X606425Y527050D01*
D26*
X606425Y527050D03*
D25*
X538163Y322263D02*
X538163Y211138D01*
X538163Y322263D02*
X533400Y327025D01*
X533400Y346075D01*
X520700Y358775D01*
X520700Y388938D01*
D26*
X538163Y211138D03*
X520700Y388938D03*
D25*
X344488Y331788D02*
X339725Y336550D01*
X339725Y381000D01*
X328613Y392113D01*
X328613Y439738D01*
X317500Y450850D01*
X317500Y487363D01*
X333375Y503238D01*
X521494Y494506D02*
X533400Y482600D01*
X521494Y494506D02*
X511175Y504825D01*
X533400Y482600D02*
X533400Y481900D01*
X519113Y261938D02*
X512763Y255588D01*
X519113Y261938D02*
X519113Y325438D01*
X511175Y333375D01*
X511175Y441325D01*
X520700Y450850D01*
X520700Y493713D01*
X521494Y494506D01*
D26*
X344488Y331788D03*
X333375Y503238D03*
X511175Y504825D03*
X512763Y255588D03*
D25*
X508000Y482600D02*
X446088Y544513D01*
X214313Y434975D02*
X214313Y290513D01*
X203200Y279400D01*
X508000Y481900D02*
X508000Y482600D01*
D26*
X446088Y544513D03*
X214313Y434975D03*
D25*
X228600Y456500D02*
X228600Y376238D01*
X223838Y371475D01*
X223838Y309563D01*
X241300Y292100D01*
X558800Y414338D02*
X558800Y456500D01*
X377825Y379413D02*
X376238Y377825D01*
X376238Y258763D01*
X393700Y241300D01*
D26*
X558800Y414338D03*
X377825Y379413D03*
D28*
X563563Y347663D02*
X563563Y260350D01*
X563563Y347663D02*
X571500Y355600D01*
X606425Y355600D01*
X606425Y420688D01*
X600075Y427038D01*
X600075Y487363D01*
X523875Y563563D01*
X114300Y531813D02*
X101600Y519113D01*
X101600Y481900D01*
D26*
X563563Y260350D03*
X523875Y563563D03*
X114300Y531813D03*
D25*
X266700Y215900D02*
X241300Y190500D01*
X266700Y215900D02*
X266700Y468313D01*
X279400Y481013D01*
X279400Y481900D01*
X384175Y200025D02*
X393700Y190500D01*
X384175Y200025D02*
X384175Y204788D01*
X371475Y217488D01*
X371475Y357188D01*
X342900Y385763D01*
X342900Y509588D01*
X325438Y527050D01*
X279400Y527050D01*
X279400Y481900D01*
X292100Y487363D02*
X322263Y517525D01*
X292100Y487363D02*
X292100Y417513D01*
X276225Y401638D01*
X276225Y179388D01*
X250825Y153988D01*
X223838Y153988D01*
X223838Y198438D01*
X241300Y215900D01*
D26*
X322263Y517525D03*
D25*
X533400Y455613D02*
X534988Y454025D01*
X534988Y357188D01*
X533400Y455613D02*
X533400Y456500D01*
D26*
X534988Y357188D03*
D25*
X228600Y481013D02*
X215900Y468313D01*
X215900Y446088D01*
X223838Y438150D01*
X223838Y379413D01*
X219075Y374650D01*
X219075Y293688D01*
X231775Y280988D01*
X258763Y280988D01*
X258763Y300038D01*
X241300Y317500D01*
X228600Y481013D02*
X228600Y481900D01*
X271463Y447675D02*
X279400Y455613D01*
X271463Y447675D02*
X271463Y195263D01*
X241300Y165100D01*
X279400Y455613D02*
X279400Y456500D01*
X546100Y406400D02*
X584200Y368300D01*
X546100Y501650D02*
X511175Y536575D01*
X546100Y501650D02*
X546100Y406400D01*
D26*
X511175Y536575D03*
D25*
X393700Y425450D02*
X393700Y368300D01*
X393700Y425450D02*
X379413Y439738D01*
X571500Y420688D02*
X593725Y398463D01*
X571500Y420688D02*
X571500Y468313D01*
X558800Y481013D01*
X558800Y481900D01*
X257175Y384175D02*
X241300Y368300D01*
X257175Y384175D02*
X257175Y434975D01*
D26*
X379413Y439738D03*
X593725Y398463D03*
X257175Y434975D03*
D25*
X520700Y336550D02*
X528638Y328613D01*
X528638Y219075D01*
X487363Y200025D02*
X487363Y136525D01*
X469900Y119063D01*
X458788Y119063D01*
X458788Y90488D01*
X444500Y76200D01*
D26*
X520700Y336550D03*
X528638Y219075D03*
X487363Y200025D03*
D25*
X431800Y312738D02*
X434975Y315913D01*
X431800Y312738D02*
X431800Y233363D01*
X430213Y231775D01*
X430213Y98425D01*
X431800Y96838D01*
X431800Y88900D01*
X419100Y76200D01*
D26*
X434975Y315913D03*
D25*
X422275Y290513D02*
X422275Y93663D01*
D26*
X422275Y290513D03*
X422275Y93663D03*
D25*
X519113Y217488D02*
X469900Y266700D01*
X519113Y217488D02*
X519113Y193675D01*
X153988Y165100D02*
X152400Y163513D01*
X152400Y88900D01*
X165100Y76200D01*
D26*
X519113Y193675D03*
X153988Y165100D03*
D25*
X469900Y241300D02*
X496888Y214313D01*
X496888Y93663D01*
X506413Y84138D01*
X506413Y61913D01*
D26*
X506413Y61913D03*
D25*
X225425Y252413D02*
X215900Y242888D01*
X215900Y76200D01*
D26*
X225425Y252413D03*
D25*
X57150Y361950D02*
X38100Y342900D01*
X57150Y361950D02*
X57150Y433388D01*
X30163Y460375D01*
X30163Y484188D01*
D26*
X30163Y484188D03*
D25*
X114300Y515938D02*
X127000Y503238D01*
X127000Y481900D01*
D26*
X114300Y515938D03*
D25*
X166688Y325438D02*
X147638Y306388D01*
X166688Y325438D02*
X166688Y444500D01*
X177800Y455613D01*
X177800Y456500D01*
D26*
X147638Y306388D03*
D25*
X68263Y296863D02*
X38100Y266700D01*
X68263Y296863D02*
X68263Y388938D01*
D26*
X68263Y388938D03*
D25*
X203200Y203200D02*
X204788Y201613D01*
X204788Y61913D01*
X241300Y25400D01*
X531813Y150813D02*
X533400Y152400D01*
X531813Y150813D02*
X531813Y11113D01*
D26*
X531813Y11113D03*
D27*
X60325Y520700D02*
X38100Y520700D01*
X60325Y520700D02*
X60325Y582613D01*
X44450Y598488D01*
X44450Y620713D01*
X60325Y636588D01*
X84138Y636588D01*
X111125Y609600D01*
X132600Y609600D01*
X61913Y501650D02*
X66675Y496888D01*
X61913Y501650D02*
X61913Y517525D01*
X60325Y520700D01*
D26*
X66675Y496888D03*
D28*
X633413Y279400D02*
X639763Y285750D01*
X639763Y347663D01*
X660400Y368300D01*
X660400Y393700D01*
D26*
X633413Y279400D03*
D25*
X520700Y171450D02*
X508000Y184150D01*
X508000Y203200D01*
X508000Y279400D02*
X508000Y304800D01*
X500063Y312738D01*
X500063Y438150D01*
X482600Y455613D01*
X482600Y456500D01*
M02*
