M48
;GenerationSoftware,Autodesk,EAGLE,9.6.1*%
;CreationDate,2023-12-13T06:26:05Z*%
FMAT,2
ICI,OFF
METRIC,TZ,000.000
T8C0.610
T7C0.813
T6C0.900
T5C0.914
T4C1.000
T3C2.667
T2C2.750
T1C3.175
%
G90
M71
T1
X13260Y60960
T2
X63290Y69920
X63290Y46920
X5290Y46920
X5290Y69920
T3
X10160Y65760
X7160Y60960
T4
X25400Y45650
X25400Y48190
X17780Y48190
X17780Y45650
X22860Y45650
X20320Y48190
X20320Y45650
X12700Y45650
X22860Y48190
X10160Y48190
X10160Y45650
X12700Y48190
X15240Y48190
X15240Y45650
X58420Y45650
X58420Y48190
X55880Y45650
X55880Y48190
X53340Y45650
X53340Y48190
X50800Y45650
X50800Y48190
X48260Y45650
X48260Y48190
X45720Y45650
X45720Y48190
X43180Y45650
X43180Y48190
X40640Y45650
X40640Y48190
X38100Y45650
X38100Y48190
X35560Y45650
X35560Y48190
X33020Y45650
X33020Y48190
X30480Y45650
X30480Y48190
X27940Y45650
X27940Y48190
T5
X3810Y54610
X3810Y52070
T6
X44450Y7620
X29210Y7620
X31750Y2540
X31750Y7620
X34290Y2540
X34290Y7620
X36830Y2540
X36830Y7620
X39370Y2540
X39370Y7620
X41910Y7620
X44450Y2540
X46990Y2540
X46990Y7620
X49530Y2540
X49530Y7620
X52070Y2540
X52070Y7620
X54610Y2540
X54610Y7620
X57150Y2540
X57150Y7620
X59690Y2540
X59690Y7620
X62230Y2540
X62230Y7620
X64770Y2540
X64770Y7620
X41910Y2540
X3810Y2540
X3810Y7620
X6350Y2540
X6350Y7620
X8890Y2540
X8890Y7620
X11430Y2540
X11430Y7620
X13970Y2540
X13970Y7620
X16510Y2540
X16510Y7620
X19050Y2540
X19050Y7620
X21590Y2540
X21590Y7620
X24130Y2540
X24130Y7620
X26670Y2540
X26670Y7620
X29210Y2540
T7
X24130Y19050
X24130Y31750
X24130Y29210
X24130Y24130
X24130Y26670
X24130Y13970
X31750Y13970
X31750Y16510
X31750Y19050
X31750Y21590
X31750Y24130
X31750Y26670
X31750Y29210
X31750Y31750
X31750Y34290
X31750Y36830
X39370Y36830
X39370Y34290
X39370Y21590
X39370Y19050
X39370Y31750
X39370Y29210
X39370Y24130
X39370Y26670
X39370Y16510
X39370Y13970
X46990Y13970
X46990Y16510
X46990Y19050
X46990Y21590
X46990Y24130
X46990Y26670
X46990Y29210
X46990Y31750
X46990Y34290
X46990Y36830
X15240Y20320
X15240Y27940
X15240Y34290
X15240Y41910
X66040Y39370
X63500Y39370
X16510Y15240
X19050Y15240
X24130Y16510
X58420Y36830
X58420Y34290
X58420Y21590
X58420Y19050
X58420Y31750
X58420Y29210
X58420Y24130
X58420Y26670
X58420Y16510
X58420Y13970
X66040Y13970
X66040Y16510
X66040Y19050
X66040Y21590
X66040Y24130
X66040Y26670
X66040Y29210
X66040Y31750
X66040Y34290
X66040Y36830
X3810Y36830
X3810Y34290
X3810Y21590
X3810Y19050
X3810Y31750
X3810Y29210
X3810Y24130
X3810Y26670
X3810Y16510
X3810Y13970
X11430Y13970
X11430Y16510
X11430Y19050
X11430Y21590
X11430Y24130
X11430Y26670
X11430Y29210
X11430Y31750
X11430Y34290
X11430Y36830
X20320Y62230
X20320Y59690
X20320Y34290
X20320Y41910
X54610Y40640
X54610Y33020
X11430Y39370
X8890Y39370
X31750Y39370
X29210Y39370
X46990Y39370
X44450Y39370
X20320Y27940
X20320Y20320
X17780Y34290
X17780Y26670
X53340Y15240
X52070Y17145
X50800Y15240
X50800Y27940
X50800Y20320
X24130Y36830
X24130Y34290
X24130Y21590
T8
X30321Y5398
X49530Y4921
X34449Y31591
X36036Y9208
X43180Y6350
X36195Y32861
X62706Y29210
X58420Y6350
X60484Y18574
X55721Y5556
X30956Y10160
X48736Y9208
X44926Y10478
X34131Y17939
X33496Y11271
X46831Y10954
X37465Y19844
X40958Y22701
X29051Y36354
X9843Y35401
X8731Y9684
X60801Y6191
X61277Y45085
X20479Y38894
X15081Y40005
X49847Y29686
X31432Y42228
X43974Y14446
X44926Y34131
X35560Y38576
X28734Y14446
X61436Y42863
X61119Y29845
X61119Y31750
X50959Y31591
X42228Y30639
X41910Y43498
X43974Y23019
X42545Y38894
X38418Y39688
X6826Y38894
X14764Y30639
X41275Y28099
X11430Y51594
X3016Y48419
X22542Y25241
X33338Y50324
X34449Y33179
X52070Y38894
X53816Y21114
X60642Y52705
X50641Y6191
X15399Y16510
X51911Y19368
X42228Y9366
X42228Y29051
X43498Y31591
X48736Y20003
X52864Y21907
X52070Y33655
X25717Y43498
X59372Y39846
X37941Y43974
X51117Y53657
X53499Y35719
X32226Y51752
X11430Y53181
X52387Y56356
X56356Y26035
X37783Y37941
X55880Y41434
X21431Y43498
X44609Y54451
X51276Y25559
X51117Y50482
X63341Y27940
X6667Y49689
X53181Y1111
M30