G04 EAGLE Gerber RS-274X export*
G75*
%MOMM*%
%FSLAX34Y34*%
%LPD*%
%INSilkscreen Bottom*%
%IPPOS*%
%AMOC8*
5,1,8,0,0,1.08239X$1,22.5*%
G01*
%ADD10C,0.127000*%
%ADD11C,0.101600*%
%ADD12C,0.152400*%
%ADD13C,0.203200*%


D10*
X88900Y443800D02*
X88900Y469200D01*
X88900Y494600D01*
X98425Y494600D01*
X104775Y494600D01*
X114300Y494600D01*
X596900Y494600D01*
X596900Y443800D01*
X88900Y443800D01*
X88900Y469200D02*
X114300Y469200D01*
X114300Y494600D01*
X98425Y494600D02*
X98425Y497775D01*
X104775Y497775D01*
X104775Y494600D01*
D11*
X107272Y506924D02*
X104222Y509975D01*
X104222Y500823D01*
X107272Y500823D02*
X101171Y500823D01*
D10*
X17900Y434200D02*
X17900Y734200D01*
X667900Y734200D01*
X667900Y434200D01*
X17900Y434200D01*
D12*
X48260Y533400D02*
X50800Y535940D01*
X48260Y533400D02*
X50800Y530860D01*
X27940Y533400D02*
X25400Y535940D01*
X27940Y533400D02*
X25400Y530860D01*
X25400Y510540D01*
X27940Y508000D01*
X25400Y556260D02*
X27940Y558800D01*
X25400Y556260D02*
X25400Y535940D01*
X27940Y558800D02*
X48260Y558800D01*
X50800Y556260D01*
X50800Y535940D01*
X50800Y530860D02*
X50800Y510540D01*
X48260Y508000D01*
X27940Y508000D01*
D10*
X55245Y510542D02*
X57152Y508635D01*
X55245Y510542D02*
X55245Y512448D01*
X57152Y514355D01*
X66685Y514355D01*
X66685Y512448D02*
X66685Y516262D01*
X66685Y520329D02*
X55245Y520329D01*
X66685Y520329D02*
X66685Y526049D01*
X64778Y527955D01*
X60965Y527955D01*
X59058Y526049D01*
X59058Y520329D01*
X55245Y532023D02*
X55245Y539649D01*
X55245Y532023D02*
X62872Y539649D01*
X64778Y539649D01*
X66685Y537743D01*
X66685Y533930D01*
X64778Y532023D01*
D13*
X-2400Y566600D02*
X-2400Y652600D01*
X-2400Y566600D02*
X140600Y566600D01*
X140600Y582600D01*
X140600Y636600D02*
X140600Y652600D01*
X77100Y652600D02*
X-2400Y652600D01*
X124600Y652600D02*
X140600Y652600D01*
D11*
X152908Y573957D02*
X154857Y572008D01*
X152908Y573957D02*
X152908Y575906D01*
X154857Y577855D01*
X164602Y577855D01*
X164602Y575906D02*
X164602Y579804D01*
X164602Y589549D02*
X152908Y589549D01*
X158755Y583702D02*
X164602Y589549D01*
X158755Y591498D02*
X158755Y583702D01*
D12*
X203200Y586740D02*
X203200Y579120D01*
X199390Y582930D02*
X207010Y582930D01*
X168910Y609600D02*
X168920Y610442D01*
X168951Y611283D01*
X169003Y612123D01*
X169075Y612961D01*
X169168Y613797D01*
X169281Y614631D01*
X169415Y615462D01*
X169569Y616290D01*
X169743Y617113D01*
X169938Y617932D01*
X170152Y618746D01*
X170387Y619554D01*
X170641Y620356D01*
X170914Y621152D01*
X171208Y621941D01*
X171520Y622722D01*
X171852Y623496D01*
X172202Y624261D01*
X172571Y625017D01*
X172959Y625764D01*
X173365Y626501D01*
X173788Y627229D01*
X174230Y627945D01*
X174689Y628651D01*
X175165Y629344D01*
X175658Y630027D01*
X176168Y630696D01*
X176693Y631353D01*
X177235Y631997D01*
X177793Y632628D01*
X178366Y633244D01*
X178953Y633847D01*
X179556Y634434D01*
X180172Y635007D01*
X180803Y635565D01*
X181447Y636107D01*
X182104Y636632D01*
X182773Y637142D01*
X183456Y637635D01*
X184149Y638111D01*
X184855Y638570D01*
X185571Y639012D01*
X186299Y639435D01*
X187036Y639841D01*
X187783Y640229D01*
X188539Y640598D01*
X189304Y640948D01*
X190078Y641280D01*
X190859Y641592D01*
X191648Y641886D01*
X192444Y642159D01*
X193246Y642413D01*
X194054Y642648D01*
X194868Y642862D01*
X195687Y643057D01*
X196510Y643231D01*
X197338Y643385D01*
X198169Y643519D01*
X199003Y643632D01*
X199839Y643725D01*
X200677Y643797D01*
X201517Y643849D01*
X202358Y643880D01*
X203200Y643890D01*
X204042Y643880D01*
X204883Y643849D01*
X205723Y643797D01*
X206561Y643725D01*
X207397Y643632D01*
X208231Y643519D01*
X209062Y643385D01*
X209890Y643231D01*
X210713Y643057D01*
X211532Y642862D01*
X212346Y642648D01*
X213154Y642413D01*
X213956Y642159D01*
X214752Y641886D01*
X215541Y641592D01*
X216322Y641280D01*
X217096Y640948D01*
X217861Y640598D01*
X218617Y640229D01*
X219364Y639841D01*
X220101Y639435D01*
X220829Y639012D01*
X221545Y638570D01*
X222251Y638111D01*
X222944Y637635D01*
X223627Y637142D01*
X224296Y636632D01*
X224953Y636107D01*
X225597Y635565D01*
X226228Y635007D01*
X226844Y634434D01*
X227447Y633847D01*
X228034Y633244D01*
X228607Y632628D01*
X229165Y631997D01*
X229707Y631353D01*
X230232Y630696D01*
X230742Y630027D01*
X231235Y629344D01*
X231711Y628651D01*
X232170Y627945D01*
X232612Y627229D01*
X233035Y626501D01*
X233441Y625764D01*
X233829Y625017D01*
X234198Y624261D01*
X234548Y623496D01*
X234880Y622722D01*
X235192Y621941D01*
X235486Y621152D01*
X235759Y620356D01*
X236013Y619554D01*
X236248Y618746D01*
X236462Y617932D01*
X236657Y617113D01*
X236831Y616290D01*
X236985Y615462D01*
X237119Y614631D01*
X237232Y613797D01*
X237325Y612961D01*
X237397Y612123D01*
X237449Y611283D01*
X237480Y610442D01*
X237490Y609600D01*
X237480Y608758D01*
X237449Y607917D01*
X237397Y607077D01*
X237325Y606239D01*
X237232Y605403D01*
X237119Y604569D01*
X236985Y603738D01*
X236831Y602910D01*
X236657Y602087D01*
X236462Y601268D01*
X236248Y600454D01*
X236013Y599646D01*
X235759Y598844D01*
X235486Y598048D01*
X235192Y597259D01*
X234880Y596478D01*
X234548Y595704D01*
X234198Y594939D01*
X233829Y594183D01*
X233441Y593436D01*
X233035Y592699D01*
X232612Y591971D01*
X232170Y591255D01*
X231711Y590549D01*
X231235Y589856D01*
X230742Y589173D01*
X230232Y588504D01*
X229707Y587847D01*
X229165Y587203D01*
X228607Y586572D01*
X228034Y585956D01*
X227447Y585353D01*
X226844Y584766D01*
X226228Y584193D01*
X225597Y583635D01*
X224953Y583093D01*
X224296Y582568D01*
X223627Y582058D01*
X222944Y581565D01*
X222251Y581089D01*
X221545Y580630D01*
X220829Y580188D01*
X220101Y579765D01*
X219364Y579359D01*
X218617Y578971D01*
X217861Y578602D01*
X217096Y578252D01*
X216322Y577920D01*
X215541Y577608D01*
X214752Y577314D01*
X213956Y577041D01*
X213154Y576787D01*
X212346Y576552D01*
X211532Y576338D01*
X210713Y576143D01*
X209890Y575969D01*
X209062Y575815D01*
X208231Y575681D01*
X207397Y575568D01*
X206561Y575475D01*
X205723Y575403D01*
X204883Y575351D01*
X204042Y575320D01*
X203200Y575310D01*
X202358Y575320D01*
X201517Y575351D01*
X200677Y575403D01*
X199839Y575475D01*
X199003Y575568D01*
X198169Y575681D01*
X197338Y575815D01*
X196510Y575969D01*
X195687Y576143D01*
X194868Y576338D01*
X194054Y576552D01*
X193246Y576787D01*
X192444Y577041D01*
X191648Y577314D01*
X190859Y577608D01*
X190078Y577920D01*
X189304Y578252D01*
X188539Y578602D01*
X187783Y578971D01*
X187036Y579359D01*
X186299Y579765D01*
X185571Y580188D01*
X184855Y580630D01*
X184149Y581089D01*
X183456Y581565D01*
X182773Y582058D01*
X182104Y582568D01*
X181447Y583093D01*
X180803Y583635D01*
X180172Y584193D01*
X179556Y584766D01*
X178953Y585353D01*
X178366Y585956D01*
X177793Y586572D01*
X177235Y587203D01*
X176693Y587847D01*
X176168Y588504D01*
X175658Y589173D01*
X175165Y589856D01*
X174689Y590549D01*
X174230Y591255D01*
X173788Y591971D01*
X173365Y592699D01*
X172959Y593436D01*
X172571Y594183D01*
X172202Y594939D01*
X171852Y595704D01*
X171520Y596478D01*
X171208Y597259D01*
X170914Y598048D01*
X170641Y598844D01*
X170387Y599646D01*
X170152Y600454D01*
X169938Y601268D01*
X169743Y602087D01*
X169569Y602910D01*
X169415Y603738D01*
X169281Y604569D01*
X169168Y605403D01*
X169075Y606239D01*
X169003Y607077D01*
X168951Y607917D01*
X168920Y608758D01*
X168910Y609600D01*
D10*
X233688Y648342D02*
X235595Y646435D01*
X235595Y642622D01*
X233688Y640715D01*
X226062Y640715D01*
X224155Y642622D01*
X224155Y646435D01*
X226062Y648342D01*
X231782Y652409D02*
X235595Y656222D01*
X224155Y656222D01*
X224155Y652409D02*
X224155Y660035D01*
D12*
X535940Y300990D02*
X535940Y257810D01*
X556260Y300990D02*
X556258Y301090D01*
X556252Y301189D01*
X556242Y301289D01*
X556229Y301387D01*
X556211Y301486D01*
X556190Y301583D01*
X556165Y301679D01*
X556136Y301775D01*
X556103Y301869D01*
X556067Y301962D01*
X556027Y302053D01*
X555983Y302143D01*
X555936Y302231D01*
X555886Y302317D01*
X555832Y302401D01*
X555775Y302483D01*
X555715Y302562D01*
X555651Y302640D01*
X555585Y302714D01*
X555516Y302786D01*
X555444Y302855D01*
X555370Y302921D01*
X555292Y302985D01*
X555213Y303045D01*
X555131Y303102D01*
X555047Y303156D01*
X554961Y303206D01*
X554873Y303253D01*
X554783Y303297D01*
X554692Y303337D01*
X554599Y303373D01*
X554505Y303406D01*
X554409Y303435D01*
X554313Y303460D01*
X554216Y303481D01*
X554117Y303499D01*
X554019Y303512D01*
X553919Y303522D01*
X553820Y303528D01*
X553720Y303530D01*
X556260Y257810D02*
X556258Y257710D01*
X556252Y257611D01*
X556242Y257511D01*
X556229Y257413D01*
X556211Y257314D01*
X556190Y257217D01*
X556165Y257121D01*
X556136Y257025D01*
X556103Y256931D01*
X556067Y256838D01*
X556027Y256747D01*
X555983Y256657D01*
X555936Y256569D01*
X555886Y256483D01*
X555832Y256399D01*
X555775Y256317D01*
X555715Y256238D01*
X555651Y256160D01*
X555585Y256086D01*
X555516Y256014D01*
X555444Y255945D01*
X555370Y255879D01*
X555292Y255815D01*
X555213Y255755D01*
X555131Y255698D01*
X555047Y255644D01*
X554961Y255594D01*
X554873Y255547D01*
X554783Y255503D01*
X554692Y255463D01*
X554599Y255427D01*
X554505Y255394D01*
X554409Y255365D01*
X554313Y255340D01*
X554216Y255319D01*
X554117Y255301D01*
X554019Y255288D01*
X553919Y255278D01*
X553820Y255272D01*
X553720Y255270D01*
X538480Y255270D02*
X538380Y255272D01*
X538281Y255278D01*
X538181Y255288D01*
X538083Y255301D01*
X537984Y255319D01*
X537887Y255340D01*
X537791Y255365D01*
X537695Y255394D01*
X537601Y255427D01*
X537508Y255463D01*
X537417Y255503D01*
X537327Y255547D01*
X537239Y255594D01*
X537153Y255644D01*
X537069Y255698D01*
X536987Y255755D01*
X536908Y255815D01*
X536830Y255879D01*
X536756Y255945D01*
X536684Y256014D01*
X536615Y256086D01*
X536549Y256160D01*
X536485Y256238D01*
X536425Y256317D01*
X536368Y256399D01*
X536314Y256483D01*
X536264Y256569D01*
X536217Y256657D01*
X536173Y256747D01*
X536133Y256838D01*
X536097Y256931D01*
X536064Y257025D01*
X536035Y257121D01*
X536010Y257217D01*
X535989Y257314D01*
X535971Y257413D01*
X535958Y257511D01*
X535948Y257611D01*
X535942Y257710D01*
X535940Y257810D01*
X535940Y300990D02*
X535942Y301090D01*
X535948Y301189D01*
X535958Y301289D01*
X535971Y301387D01*
X535989Y301486D01*
X536010Y301583D01*
X536035Y301679D01*
X536064Y301775D01*
X536097Y301869D01*
X536133Y301962D01*
X536173Y302053D01*
X536217Y302143D01*
X536264Y302231D01*
X536314Y302317D01*
X536368Y302401D01*
X536425Y302483D01*
X536485Y302562D01*
X536549Y302640D01*
X536615Y302714D01*
X536684Y302786D01*
X536756Y302855D01*
X536830Y302921D01*
X536908Y302985D01*
X536987Y303045D01*
X537069Y303102D01*
X537153Y303156D01*
X537239Y303206D01*
X537327Y303253D01*
X537417Y303297D01*
X537508Y303337D01*
X537601Y303373D01*
X537695Y303406D01*
X537791Y303435D01*
X537887Y303460D01*
X537984Y303481D01*
X538083Y303499D01*
X538181Y303512D01*
X538281Y303522D01*
X538380Y303528D01*
X538480Y303530D01*
X553720Y303530D01*
X553720Y255270D02*
X538480Y255270D01*
X556260Y257810D02*
X556260Y300990D01*
D10*
X568968Y263532D02*
X570875Y261625D01*
X570875Y257812D01*
X568968Y255905D01*
X567062Y255905D01*
X565155Y257812D01*
X565155Y261625D01*
X563248Y263532D01*
X561342Y263532D01*
X559435Y261625D01*
X559435Y257812D01*
X561342Y255905D01*
X561342Y267599D02*
X559435Y269506D01*
X559435Y271412D01*
X561342Y273319D01*
X570875Y273319D01*
X570875Y275225D02*
X570875Y271412D01*
X567062Y279293D02*
X570875Y283106D01*
X559435Y283106D01*
X559435Y279293D02*
X559435Y286919D01*
M02*
