G04 EAGLE Gerber RS-274X export*
G75*
%MOMM*%
%FSLAX34Y34*%
%LPD*%
%INBoard Outline*%
%IPPOS*%
%AMOC8*
5,1,8,0,0,1.08239X$1,22.5*%
G01*
%ADD10C,0.152400*%
%ADD11C,0.254000*%


D10*
X0Y67310D02*
X635000Y67310D01*
X635000Y265430D01*
X584200Y265430D01*
X584200Y203200D01*
X584196Y202893D01*
X584185Y202586D01*
X584167Y202280D01*
X584141Y201974D01*
X584107Y201669D01*
X584067Y201365D01*
X584019Y201062D01*
X583963Y200760D01*
X583901Y200460D01*
X583831Y200161D01*
X583754Y199864D01*
X583670Y199568D01*
X583578Y199275D01*
X583480Y198985D01*
X583375Y198697D01*
X583262Y198411D01*
X583143Y198128D01*
X583017Y197848D01*
X582885Y197571D01*
X582745Y197298D01*
X582599Y197028D01*
X582447Y196762D01*
X582288Y196499D01*
X582123Y196240D01*
X581952Y195986D01*
X581775Y195735D01*
X581591Y195489D01*
X581402Y195247D01*
X581207Y195011D01*
X581006Y194778D01*
X580800Y194551D01*
X580588Y194329D01*
X580371Y194112D01*
X580149Y193900D01*
X579922Y193694D01*
X579689Y193493D01*
X579453Y193298D01*
X579211Y193109D01*
X578965Y192925D01*
X578714Y192748D01*
X578460Y192577D01*
X578201Y192412D01*
X577938Y192253D01*
X577672Y192101D01*
X577402Y191955D01*
X577129Y191815D01*
X576852Y191683D01*
X576572Y191557D01*
X576289Y191438D01*
X576003Y191325D01*
X575715Y191220D01*
X575425Y191122D01*
X575132Y191030D01*
X574836Y190946D01*
X574539Y190869D01*
X574240Y190799D01*
X573940Y190737D01*
X573638Y190681D01*
X573335Y190633D01*
X573031Y190593D01*
X572726Y190559D01*
X572420Y190533D01*
X572114Y190515D01*
X571807Y190504D01*
X571500Y190500D01*
X571193Y190504D01*
X570886Y190515D01*
X570580Y190533D01*
X570274Y190559D01*
X569969Y190593D01*
X569665Y190633D01*
X569362Y190681D01*
X569060Y190737D01*
X568760Y190799D01*
X568461Y190869D01*
X568164Y190946D01*
X567868Y191030D01*
X567575Y191122D01*
X567285Y191220D01*
X566997Y191325D01*
X566711Y191438D01*
X566428Y191557D01*
X566148Y191683D01*
X565871Y191815D01*
X565598Y191955D01*
X565328Y192101D01*
X565062Y192253D01*
X564799Y192412D01*
X564540Y192577D01*
X564286Y192748D01*
X564035Y192925D01*
X563789Y193109D01*
X563547Y193298D01*
X563311Y193493D01*
X563078Y193694D01*
X562851Y193900D01*
X562629Y194112D01*
X562412Y194329D01*
X562200Y194551D01*
X561994Y194778D01*
X561793Y195011D01*
X561598Y195247D01*
X561409Y195489D01*
X561225Y195735D01*
X561048Y195986D01*
X560877Y196240D01*
X560712Y196499D01*
X560553Y196762D01*
X560401Y197028D01*
X560255Y197298D01*
X560115Y197571D01*
X559983Y197848D01*
X559857Y198128D01*
X559738Y198411D01*
X559625Y198697D01*
X559520Y198985D01*
X559422Y199275D01*
X559330Y199568D01*
X559246Y199864D01*
X559169Y200161D01*
X559099Y200460D01*
X559037Y200760D01*
X558981Y201062D01*
X558933Y201365D01*
X558893Y201669D01*
X558859Y201974D01*
X558833Y202280D01*
X558815Y202586D01*
X558804Y202893D01*
X558800Y203200D01*
X558800Y265430D01*
X0Y265430D01*
X0Y67310D01*
D11*
X0Y67310D02*
X635000Y67310D01*
X635000Y265430D01*
X584200Y265430D01*
X584200Y203200D01*
X584152Y202093D01*
X584007Y200995D01*
X583767Y199913D01*
X583434Y198856D01*
X583010Y197833D01*
X582499Y196850D01*
X581903Y195916D01*
X581229Y195037D01*
X580480Y194220D01*
X579663Y193471D01*
X578784Y192797D01*
X577850Y192201D01*
X576867Y191690D01*
X575844Y191266D01*
X574787Y190933D01*
X573705Y190693D01*
X572607Y190548D01*
X571500Y190500D01*
X570393Y190548D01*
X569295Y190693D01*
X568213Y190933D01*
X567156Y191266D01*
X566133Y191690D01*
X565150Y192201D01*
X564216Y192797D01*
X563337Y193471D01*
X562520Y194220D01*
X561771Y195037D01*
X561097Y195916D01*
X560501Y196850D01*
X559990Y197833D01*
X559566Y198856D01*
X559233Y199913D01*
X558993Y200995D01*
X558848Y202093D01*
X558800Y203200D01*
X558800Y265430D01*
X0Y265430D01*
X0Y67310D01*
M02*
