G04 EAGLE Gerber RS-274X export*
G75*
%MOMM*%
%FSLAX34Y34*%
%LPD*%
%INBottom Copper*%
%IPPOS*%
%AMOC8*
5,1,8,0,0,1.08239X$1,22.5*%
G01*
%ADD10R,1.408000X1.408000*%
%ADD11C,1.320800*%
%ADD12C,1.422400*%
%ADD13P,1.429621X8X22.500000*%
%ADD14P,1.429621X8X202.500000*%
%ADD15P,1.649562X8X22.500000*%
%ADD16P,1.429621X8X292.500000*%
%ADD17P,1.732040X8X22.500000*%
%ADD18C,1.600200*%
%ADD19C,0.254000*%
%ADD20C,1.016000*%
%ADD21C,0.812800*%

G36*
X310895Y5092D02*
X310895Y5092D01*
X310966Y5094D01*
X311015Y5112D01*
X311067Y5120D01*
X311130Y5154D01*
X311197Y5179D01*
X311238Y5211D01*
X311284Y5236D01*
X311333Y5288D01*
X311389Y5332D01*
X311418Y5376D01*
X311453Y5414D01*
X311484Y5479D01*
X311522Y5539D01*
X311535Y5590D01*
X311557Y5637D01*
X311565Y5708D01*
X311582Y5778D01*
X311578Y5830D01*
X311584Y5881D01*
X311569Y5952D01*
X311563Y6023D01*
X311543Y6071D01*
X311532Y6122D01*
X311495Y6183D01*
X311467Y6249D01*
X311422Y6305D01*
X311406Y6333D01*
X311388Y6348D01*
X311362Y6380D01*
X309783Y7959D01*
X301955Y15787D01*
X301939Y15799D01*
X301927Y15814D01*
X301840Y15870D01*
X301756Y15931D01*
X301736Y15937D01*
X301720Y15947D01*
X301619Y15973D01*
X301520Y16003D01*
X301501Y16003D01*
X301481Y16007D01*
X301378Y15999D01*
X301275Y15997D01*
X301256Y15990D01*
X301236Y15988D01*
X301141Y15948D01*
X301044Y15912D01*
X301028Y15900D01*
X301010Y15892D01*
X300879Y15787D01*
X300403Y15311D01*
X283797Y15311D01*
X282011Y17097D01*
X282011Y33703D01*
X283797Y35489D01*
X300403Y35489D01*
X300769Y35122D01*
X300828Y35080D01*
X300879Y35031D01*
X300927Y35009D01*
X300969Y34979D01*
X301037Y34958D01*
X301103Y34927D01*
X301154Y34922D01*
X301204Y34906D01*
X301276Y34908D01*
X301347Y34900D01*
X301398Y34911D01*
X301450Y34913D01*
X301517Y34937D01*
X301587Y34953D01*
X301632Y34979D01*
X301681Y34997D01*
X301737Y35042D01*
X301798Y35079D01*
X301832Y35118D01*
X301873Y35151D01*
X301912Y35211D01*
X301958Y35266D01*
X301978Y35314D01*
X302006Y35358D01*
X302023Y35427D01*
X302050Y35494D01*
X302058Y35565D01*
X302066Y35596D01*
X302064Y35620D01*
X302069Y35661D01*
X302069Y65939D01*
X302057Y66010D01*
X302055Y66082D01*
X302037Y66131D01*
X302029Y66182D01*
X301996Y66245D01*
X301971Y66313D01*
X301938Y66354D01*
X301914Y66400D01*
X301862Y66449D01*
X301817Y66505D01*
X301773Y66533D01*
X301736Y66569D01*
X301670Y66599D01*
X301610Y66638D01*
X301560Y66651D01*
X301513Y66673D01*
X301441Y66680D01*
X301372Y66698D01*
X301320Y66694D01*
X301268Y66700D01*
X301198Y66684D01*
X301126Y66679D01*
X301079Y66658D01*
X301028Y66647D01*
X300966Y66611D01*
X300900Y66582D01*
X300844Y66538D01*
X300817Y66521D01*
X300801Y66503D01*
X300769Y66478D01*
X300403Y66111D01*
X283797Y66111D01*
X283321Y66587D01*
X283305Y66599D01*
X283293Y66614D01*
X283206Y66670D01*
X283122Y66731D01*
X283103Y66737D01*
X283086Y66747D01*
X282985Y66773D01*
X282886Y66803D01*
X282867Y66803D01*
X282847Y66807D01*
X282744Y66799D01*
X282641Y66797D01*
X282622Y66790D01*
X282602Y66788D01*
X282507Y66748D01*
X282410Y66712D01*
X282394Y66700D01*
X282376Y66692D01*
X282245Y66587D01*
X250913Y35255D01*
X250901Y35239D01*
X250886Y35227D01*
X250830Y35139D01*
X250769Y35056D01*
X250763Y35037D01*
X250753Y35020D01*
X250727Y34919D01*
X250697Y34820D01*
X250697Y34801D01*
X250693Y34781D01*
X250701Y34678D01*
X250703Y34575D01*
X250710Y34556D01*
X250712Y34536D01*
X250752Y34441D01*
X250788Y34344D01*
X250800Y34328D01*
X250808Y34310D01*
X250913Y34179D01*
X251389Y33703D01*
X251389Y17097D01*
X249603Y15311D01*
X232997Y15311D01*
X231211Y17097D01*
X231211Y31433D01*
X231208Y31452D01*
X231210Y31472D01*
X231188Y31573D01*
X231172Y31675D01*
X231162Y31693D01*
X231158Y31712D01*
X231105Y31801D01*
X231056Y31893D01*
X231042Y31906D01*
X231032Y31923D01*
X230953Y31991D01*
X230878Y32062D01*
X230860Y32070D01*
X230845Y32083D01*
X230749Y32122D01*
X230655Y32166D01*
X230635Y32168D01*
X230617Y32175D01*
X230450Y32194D01*
X226750Y32194D01*
X226730Y32191D01*
X226711Y32193D01*
X226609Y32171D01*
X226507Y32154D01*
X226490Y32145D01*
X226470Y32140D01*
X226381Y32087D01*
X226290Y32039D01*
X226276Y32025D01*
X226259Y32014D01*
X226192Y31936D01*
X226120Y31861D01*
X226112Y31843D01*
X226099Y31827D01*
X226060Y31731D01*
X226017Y31638D01*
X226015Y31618D01*
X226007Y31599D01*
X225989Y31433D01*
X225989Y17097D01*
X224203Y15311D01*
X207597Y15311D01*
X205811Y17097D01*
X205811Y31433D01*
X205808Y31452D01*
X205810Y31472D01*
X205788Y31573D01*
X205772Y31675D01*
X205762Y31693D01*
X205758Y31712D01*
X205705Y31801D01*
X205656Y31893D01*
X205642Y31906D01*
X205632Y31923D01*
X205553Y31991D01*
X205478Y32062D01*
X205460Y32070D01*
X205445Y32083D01*
X205349Y32122D01*
X205255Y32166D01*
X205235Y32168D01*
X205217Y32175D01*
X205050Y32194D01*
X201350Y32194D01*
X201330Y32191D01*
X201311Y32193D01*
X201209Y32171D01*
X201107Y32154D01*
X201090Y32145D01*
X201070Y32140D01*
X200981Y32087D01*
X200890Y32039D01*
X200876Y32025D01*
X200859Y32014D01*
X200792Y31936D01*
X200720Y31861D01*
X200712Y31843D01*
X200699Y31827D01*
X200660Y31731D01*
X200617Y31638D01*
X200615Y31618D01*
X200607Y31599D01*
X200589Y31433D01*
X200589Y17097D01*
X198803Y15311D01*
X182197Y15311D01*
X180411Y17097D01*
X180411Y31433D01*
X180408Y31452D01*
X180410Y31472D01*
X180388Y31573D01*
X180372Y31675D01*
X180362Y31693D01*
X180358Y31712D01*
X180305Y31801D01*
X180256Y31893D01*
X180242Y31906D01*
X180232Y31923D01*
X180153Y31991D01*
X180078Y32062D01*
X180060Y32070D01*
X180045Y32083D01*
X179949Y32122D01*
X179855Y32166D01*
X179835Y32168D01*
X179817Y32175D01*
X179650Y32194D01*
X178317Y32194D01*
X178227Y32179D01*
X178136Y32172D01*
X178106Y32159D01*
X178074Y32154D01*
X177993Y32111D01*
X177909Y32076D01*
X177877Y32050D01*
X177857Y32039D01*
X177834Y32016D01*
X177778Y31971D01*
X175412Y29604D01*
X175359Y29530D01*
X175299Y29461D01*
X175287Y29431D01*
X175268Y29404D01*
X175241Y29317D01*
X175207Y29233D01*
X175203Y29192D01*
X175196Y29169D01*
X175197Y29137D01*
X175189Y29066D01*
X175189Y17097D01*
X173403Y15311D01*
X156797Y15311D01*
X155011Y17097D01*
X155011Y33703D01*
X156797Y35489D01*
X168766Y35489D01*
X168856Y35503D01*
X168947Y35511D01*
X168977Y35523D01*
X169009Y35528D01*
X169089Y35571D01*
X169173Y35607D01*
X169205Y35633D01*
X169226Y35644D01*
X169248Y35667D01*
X169304Y35712D01*
X174424Y40831D01*
X243958Y40831D01*
X244048Y40846D01*
X244139Y40853D01*
X244169Y40866D01*
X244201Y40871D01*
X244282Y40914D01*
X244366Y40949D01*
X244398Y40975D01*
X244418Y40986D01*
X244441Y41009D01*
X244497Y41054D01*
X268254Y64812D01*
X268296Y64870D01*
X268345Y64922D01*
X268367Y64969D01*
X268398Y65011D01*
X268419Y65080D01*
X268449Y65145D01*
X268455Y65197D01*
X268470Y65247D01*
X268468Y65318D01*
X268476Y65389D01*
X268465Y65440D01*
X268464Y65492D01*
X268439Y65560D01*
X268424Y65630D01*
X268397Y65675D01*
X268379Y65723D01*
X268334Y65779D01*
X268298Y65841D01*
X268258Y65875D01*
X268226Y65915D01*
X268165Y65954D01*
X268111Y66001D01*
X268062Y66020D01*
X268019Y66048D01*
X267949Y66066D01*
X267883Y66093D01*
X267811Y66101D01*
X267780Y66109D01*
X267757Y66107D01*
X267716Y66111D01*
X263034Y66111D01*
X262944Y66097D01*
X262853Y66089D01*
X262823Y66077D01*
X262791Y66072D01*
X262711Y66029D01*
X262627Y65993D01*
X262595Y65967D01*
X262574Y65956D01*
X262552Y65933D01*
X262496Y65888D01*
X252614Y56006D01*
X134736Y56006D01*
X131983Y58759D01*
X124155Y66587D01*
X124139Y66599D01*
X124127Y66614D01*
X124040Y66670D01*
X123956Y66731D01*
X123936Y66737D01*
X123920Y66747D01*
X123819Y66773D01*
X123720Y66803D01*
X123701Y66803D01*
X123681Y66807D01*
X123578Y66799D01*
X123475Y66797D01*
X123456Y66790D01*
X123436Y66788D01*
X123341Y66748D01*
X123244Y66712D01*
X123228Y66700D01*
X123210Y66692D01*
X123079Y66587D01*
X122603Y66111D01*
X105997Y66111D01*
X104211Y67897D01*
X104211Y84503D01*
X105997Y86289D01*
X116903Y86289D01*
X116974Y86300D01*
X117046Y86302D01*
X117095Y86320D01*
X117146Y86328D01*
X117209Y86362D01*
X117277Y86387D01*
X117317Y86419D01*
X117363Y86444D01*
X117413Y86496D01*
X117469Y86540D01*
X117497Y86584D01*
X117533Y86622D01*
X117563Y86687D01*
X117602Y86747D01*
X117615Y86798D01*
X117636Y86845D01*
X117644Y86916D01*
X117662Y86986D01*
X117658Y87038D01*
X117664Y87089D01*
X117648Y87160D01*
X117643Y87231D01*
X117622Y87279D01*
X117611Y87330D01*
X117574Y87391D01*
X117546Y87457D01*
X117502Y87513D01*
X117485Y87541D01*
X117467Y87556D01*
X117442Y87588D01*
X86169Y118861D01*
X86169Y128112D01*
X86153Y128208D01*
X86144Y128305D01*
X86133Y128329D01*
X86129Y128355D01*
X86084Y128441D01*
X86044Y128530D01*
X86026Y128549D01*
X86014Y128572D01*
X85943Y128639D01*
X85877Y128711D01*
X85855Y128723D01*
X85836Y128741D01*
X85747Y128782D01*
X85662Y128829D01*
X85636Y128834D01*
X85613Y128845D01*
X85516Y128856D01*
X85420Y128873D01*
X85394Y128869D01*
X85368Y128872D01*
X85273Y128851D01*
X85177Y128837D01*
X85153Y128825D01*
X85128Y128820D01*
X85044Y128770D01*
X84957Y128726D01*
X84939Y128707D01*
X84917Y128694D01*
X84853Y128620D01*
X84785Y128550D01*
X84769Y128522D01*
X84757Y128507D01*
X84744Y128476D01*
X84704Y128403D01*
X84383Y127628D01*
X81668Y124913D01*
X78120Y123443D01*
X74280Y123443D01*
X70732Y124913D01*
X68017Y127628D01*
X66547Y131176D01*
X66547Y148224D01*
X68017Y151772D01*
X70732Y154487D01*
X73364Y155577D01*
X73403Y155602D01*
X73446Y155617D01*
X73507Y155666D01*
X73573Y155707D01*
X73602Y155742D01*
X73638Y155771D01*
X73680Y155837D01*
X73730Y155896D01*
X73746Y155939D01*
X73771Y155978D01*
X73790Y156053D01*
X73818Y156126D01*
X73820Y156172D01*
X73831Y156216D01*
X73825Y156294D01*
X73828Y156372D01*
X73816Y156416D01*
X73812Y156462D01*
X73782Y156533D01*
X73760Y156608D01*
X73734Y156646D01*
X73716Y156688D01*
X73630Y156795D01*
X73620Y156810D01*
X73616Y156813D01*
X73611Y156819D01*
X71881Y158549D01*
X71881Y276328D01*
X71862Y276443D01*
X71845Y276559D01*
X71843Y276565D01*
X71842Y276571D01*
X71787Y276673D01*
X71734Y276778D01*
X71729Y276783D01*
X71726Y276788D01*
X71642Y276868D01*
X71558Y276951D01*
X71552Y276954D01*
X71548Y276958D01*
X71531Y276966D01*
X71411Y277032D01*
X70732Y277313D01*
X68077Y279968D01*
X68061Y279980D01*
X68048Y279995D01*
X67961Y280051D01*
X67877Y280111D01*
X67858Y280117D01*
X67842Y280128D01*
X67741Y280153D01*
X67642Y280184D01*
X67622Y280183D01*
X67603Y280188D01*
X67500Y280180D01*
X67396Y280177D01*
X67378Y280171D01*
X67358Y280169D01*
X67263Y280129D01*
X67165Y280093D01*
X67150Y280081D01*
X67131Y280073D01*
X67000Y279968D01*
X66653Y279621D01*
X55342Y268309D01*
X55289Y268235D01*
X55229Y268166D01*
X55217Y268136D01*
X55198Y268109D01*
X55171Y268022D01*
X55137Y267938D01*
X55133Y267897D01*
X55126Y267874D01*
X55127Y267842D01*
X55119Y267771D01*
X55119Y155472D01*
X55138Y155357D01*
X55155Y155241D01*
X55157Y155235D01*
X55158Y155229D01*
X55213Y155127D01*
X55266Y155022D01*
X55271Y155017D01*
X55274Y155012D01*
X55358Y154932D01*
X55442Y154849D01*
X55448Y154846D01*
X55452Y154842D01*
X55469Y154834D01*
X55589Y154768D01*
X56268Y154487D01*
X58983Y151772D01*
X60453Y148224D01*
X60453Y131176D01*
X58983Y127628D01*
X56268Y124913D01*
X52720Y123443D01*
X48880Y123443D01*
X45332Y124913D01*
X42617Y127628D01*
X41147Y131176D01*
X41147Y148224D01*
X42617Y151772D01*
X45332Y154487D01*
X46011Y154768D01*
X46111Y154830D01*
X46211Y154890D01*
X46215Y154895D01*
X46220Y154898D01*
X46295Y154989D01*
X46371Y155077D01*
X46373Y155083D01*
X46377Y155088D01*
X46419Y155196D01*
X46463Y155305D01*
X46464Y155313D01*
X46465Y155317D01*
X46466Y155335D01*
X46481Y155472D01*
X46481Y271664D01*
X49361Y274544D01*
X49403Y274602D01*
X49452Y274654D01*
X49474Y274701D01*
X49505Y274743D01*
X49526Y274812D01*
X49556Y274877D01*
X49562Y274929D01*
X49577Y274979D01*
X49575Y275050D01*
X49583Y275121D01*
X49572Y275172D01*
X49571Y275224D01*
X49546Y275292D01*
X49531Y275362D01*
X49504Y275407D01*
X49486Y275455D01*
X49441Y275511D01*
X49405Y275573D01*
X49365Y275607D01*
X49333Y275647D01*
X49272Y275686D01*
X49218Y275733D01*
X49169Y275752D01*
X49126Y275780D01*
X49056Y275798D01*
X48990Y275825D01*
X48918Y275833D01*
X48887Y275841D01*
X45332Y277313D01*
X42617Y280028D01*
X41147Y283576D01*
X41147Y295951D01*
X41136Y296021D01*
X41134Y296093D01*
X41116Y296142D01*
X41108Y296193D01*
X41074Y296257D01*
X41049Y296324D01*
X41017Y296365D01*
X40992Y296411D01*
X40940Y296460D01*
X40896Y296516D01*
X40852Y296544D01*
X40814Y296580D01*
X40749Y296610D01*
X40689Y296649D01*
X40638Y296662D01*
X40591Y296684D01*
X40520Y296692D01*
X40450Y296709D01*
X40398Y296705D01*
X40347Y296711D01*
X40276Y296696D01*
X40205Y296690D01*
X40157Y296670D01*
X40106Y296659D01*
X40045Y296622D01*
X39979Y296594D01*
X39923Y296549D01*
X39895Y296532D01*
X39880Y296515D01*
X39848Y296489D01*
X35276Y291917D01*
X35223Y291843D01*
X35163Y291773D01*
X35151Y291743D01*
X35132Y291717D01*
X35105Y291630D01*
X35071Y291545D01*
X35067Y291504D01*
X35060Y291482D01*
X35061Y291450D01*
X35053Y291378D01*
X35053Y288102D01*
X29398Y282447D01*
X21402Y282447D01*
X15747Y288102D01*
X15747Y296098D01*
X21402Y301753D01*
X24678Y301753D01*
X24769Y301767D01*
X24859Y301775D01*
X24889Y301787D01*
X24921Y301792D01*
X25002Y301835D01*
X25086Y301871D01*
X25118Y301897D01*
X25139Y301908D01*
X25161Y301931D01*
X25217Y301976D01*
X84871Y361630D01*
X87485Y362713D01*
X94746Y362713D01*
X94836Y362727D01*
X94927Y362735D01*
X94957Y362747D01*
X94989Y362752D01*
X95070Y362795D01*
X95154Y362831D01*
X95186Y362857D01*
X95207Y362868D01*
X95229Y362891D01*
X95285Y362936D01*
X97602Y365253D01*
X105598Y365253D01*
X111253Y359598D01*
X111253Y351602D01*
X105598Y345947D01*
X97602Y345947D01*
X95285Y348264D01*
X95211Y348317D01*
X95141Y348377D01*
X95111Y348389D01*
X95085Y348408D01*
X94998Y348435D01*
X94913Y348469D01*
X94872Y348473D01*
X94850Y348480D01*
X94818Y348479D01*
X94746Y348487D01*
X92162Y348487D01*
X92071Y348473D01*
X91981Y348465D01*
X91951Y348453D01*
X91919Y348448D01*
X91838Y348405D01*
X91754Y348369D01*
X91722Y348343D01*
X91701Y348332D01*
X91679Y348309D01*
X91623Y348264D01*
X52815Y309457D01*
X52789Y309419D01*
X52755Y309388D01*
X52717Y309320D01*
X52672Y309257D01*
X52658Y309213D01*
X52636Y309173D01*
X52622Y309096D01*
X52600Y309022D01*
X52601Y308976D01*
X52593Y308931D01*
X52604Y308854D01*
X52606Y308776D01*
X52622Y308733D01*
X52628Y308687D01*
X52664Y308618D01*
X52690Y308545D01*
X52719Y308509D01*
X52740Y308468D01*
X52795Y308414D01*
X52844Y308353D01*
X52883Y308328D01*
X52915Y308296D01*
X53035Y308230D01*
X53051Y308220D01*
X53056Y308219D01*
X53062Y308215D01*
X56268Y306887D01*
X58983Y304172D01*
X59304Y303397D01*
X59356Y303314D01*
X59401Y303228D01*
X59420Y303210D01*
X59434Y303188D01*
X59509Y303126D01*
X59579Y303059D01*
X59603Y303048D01*
X59623Y303031D01*
X59714Y302996D01*
X59803Y302955D01*
X59828Y302952D01*
X59853Y302943D01*
X59950Y302939D01*
X60047Y302928D01*
X60072Y302933D01*
X60099Y302932D01*
X60192Y302959D01*
X60287Y302980D01*
X60310Y302994D01*
X60335Y303001D01*
X60415Y303056D01*
X60498Y303106D01*
X60515Y303126D01*
X60537Y303141D01*
X60595Y303219D01*
X60658Y303293D01*
X60665Y303310D01*
X91874Y334519D01*
X115916Y334519D01*
X116006Y334533D01*
X116097Y334541D01*
X116126Y334553D01*
X116158Y334558D01*
X116239Y334601D01*
X116323Y334637D01*
X116355Y334663D01*
X116376Y334674D01*
X116398Y334697D01*
X116454Y334742D01*
X122581Y340869D01*
X131419Y340869D01*
X131859Y340429D01*
X131918Y340387D01*
X131969Y340337D01*
X132017Y340315D01*
X132059Y340285D01*
X132127Y340264D01*
X132193Y340234D01*
X132244Y340228D01*
X132294Y340213D01*
X132366Y340215D01*
X132437Y340207D01*
X132488Y340218D01*
X132540Y340219D01*
X132607Y340244D01*
X132677Y340259D01*
X132722Y340286D01*
X132771Y340304D01*
X132827Y340348D01*
X132888Y340385D01*
X132922Y340425D01*
X132963Y340457D01*
X133002Y340518D01*
X133048Y340572D01*
X133068Y340620D01*
X133096Y340664D01*
X133113Y340734D01*
X133140Y340800D01*
X133148Y340871D01*
X133156Y340903D01*
X133154Y340926D01*
X133159Y340967D01*
X133159Y341342D01*
X134396Y344330D01*
X136683Y346616D01*
X139671Y347854D01*
X142904Y347854D01*
X145892Y346616D01*
X148179Y344330D01*
X149416Y341342D01*
X149416Y340614D01*
X149419Y340594D01*
X149417Y340575D01*
X149439Y340473D01*
X149456Y340371D01*
X149465Y340354D01*
X149470Y340334D01*
X149523Y340245D01*
X149571Y340154D01*
X149585Y340140D01*
X149596Y340123D01*
X149674Y340056D01*
X149749Y339984D01*
X149767Y339976D01*
X149783Y339963D01*
X149879Y339924D01*
X149972Y339881D01*
X149992Y339879D01*
X150011Y339871D01*
X150177Y339853D01*
X156503Y339853D01*
X156618Y339872D01*
X156734Y339889D01*
X156740Y339891D01*
X156746Y339892D01*
X156849Y339947D01*
X156954Y340000D01*
X156958Y340005D01*
X156963Y340008D01*
X157043Y340092D01*
X157126Y340176D01*
X157129Y340182D01*
X157133Y340186D01*
X157141Y340203D01*
X157207Y340323D01*
X158209Y342742D01*
X160495Y345029D01*
X163483Y346266D01*
X166717Y346266D01*
X169705Y345029D01*
X171991Y342742D01*
X173229Y339754D01*
X173229Y336521D01*
X171991Y333533D01*
X169642Y331183D01*
X169589Y331109D01*
X169529Y331040D01*
X169517Y331010D01*
X169498Y330984D01*
X169471Y330897D01*
X169437Y330812D01*
X169433Y330771D01*
X169426Y330749D01*
X169427Y330716D01*
X169419Y330645D01*
X169419Y325627D01*
X169430Y325557D01*
X169432Y325485D01*
X169450Y325436D01*
X169458Y325385D01*
X169492Y325321D01*
X169517Y325254D01*
X169549Y325213D01*
X169574Y325167D01*
X169626Y325118D01*
X169670Y325062D01*
X169714Y325034D01*
X169752Y324998D01*
X169817Y324968D01*
X169877Y324929D01*
X169928Y324916D01*
X169975Y324894D01*
X170046Y324886D01*
X170116Y324869D01*
X170168Y324873D01*
X170219Y324867D01*
X170290Y324882D01*
X170361Y324888D01*
X170409Y324908D01*
X170460Y324919D01*
X170521Y324956D01*
X170587Y324984D01*
X170643Y325029D01*
X170671Y325046D01*
X170686Y325063D01*
X170718Y325089D01*
X171608Y325979D01*
X174596Y327216D01*
X177829Y327216D01*
X180817Y325979D01*
X183167Y323629D01*
X183241Y323576D01*
X183310Y323517D01*
X183340Y323504D01*
X183366Y323486D01*
X183453Y323459D01*
X183538Y323425D01*
X183579Y323420D01*
X183601Y323413D01*
X183634Y323414D01*
X183705Y323406D01*
X220623Y323406D01*
X220694Y323418D01*
X220766Y323420D01*
X220815Y323438D01*
X220866Y323446D01*
X220929Y323480D01*
X220997Y323504D01*
X221037Y323537D01*
X221084Y323561D01*
X221133Y323613D01*
X221189Y323658D01*
X221217Y323702D01*
X221253Y323739D01*
X221283Y323804D01*
X221322Y323865D01*
X221335Y323915D01*
X221357Y323962D01*
X221364Y324034D01*
X221382Y324103D01*
X221378Y324155D01*
X221384Y324207D01*
X221368Y324277D01*
X221363Y324348D01*
X221342Y324396D01*
X221331Y324447D01*
X221295Y324509D01*
X221266Y324575D01*
X221222Y324631D01*
X221205Y324658D01*
X221187Y324674D01*
X221162Y324706D01*
X219455Y326412D01*
X219455Y328677D01*
X227838Y328677D01*
X227858Y328680D01*
X227877Y328678D01*
X227979Y328700D01*
X228081Y328717D01*
X228098Y328726D01*
X228118Y328730D01*
X228207Y328783D01*
X228298Y328832D01*
X228312Y328846D01*
X228329Y328856D01*
X228396Y328935D01*
X228467Y329010D01*
X228476Y329028D01*
X228489Y329043D01*
X228527Y329139D01*
X228571Y329233D01*
X228573Y329253D01*
X228581Y329271D01*
X228599Y329438D01*
X228599Y330201D01*
X228601Y330201D01*
X228601Y329438D01*
X228604Y329418D01*
X228602Y329399D01*
X228624Y329297D01*
X228641Y329195D01*
X228650Y329178D01*
X228654Y329158D01*
X228707Y329069D01*
X228756Y328978D01*
X228770Y328964D01*
X228780Y328947D01*
X228859Y328880D01*
X228934Y328809D01*
X228952Y328800D01*
X228967Y328787D01*
X229063Y328748D01*
X229157Y328705D01*
X229177Y328703D01*
X229195Y328695D01*
X229362Y328677D01*
X237745Y328677D01*
X237745Y326412D01*
X236038Y324706D01*
X235996Y324648D01*
X235947Y324596D01*
X235925Y324548D01*
X235895Y324506D01*
X235874Y324438D01*
X235843Y324372D01*
X235838Y324321D01*
X235822Y324271D01*
X235824Y324199D01*
X235816Y324128D01*
X235827Y324077D01*
X235829Y324025D01*
X235853Y323958D01*
X235869Y323888D01*
X235895Y323843D01*
X235913Y323794D01*
X235958Y323738D01*
X235995Y323677D01*
X236034Y323643D01*
X236067Y323602D01*
X236127Y323563D01*
X236182Y323517D01*
X236230Y323497D01*
X236274Y323469D01*
X236343Y323452D01*
X236410Y323425D01*
X236481Y323417D01*
X236512Y323409D01*
X236536Y323411D01*
X236577Y323406D01*
X274839Y323406D01*
X277592Y320653D01*
X295066Y303179D01*
X295104Y303152D01*
X295135Y303118D01*
X295203Y303081D01*
X295266Y303035D01*
X295310Y303022D01*
X295350Y303000D01*
X295427Y302986D01*
X295501Y302963D01*
X295547Y302964D01*
X295592Y302956D01*
X295669Y302967D01*
X295747Y302969D01*
X295790Y302985D01*
X295835Y302992D01*
X295905Y303027D01*
X295978Y303054D01*
X296014Y303082D01*
X296055Y303103D01*
X296109Y303159D01*
X296170Y303207D01*
X296195Y303246D01*
X296227Y303279D01*
X296293Y303399D01*
X296303Y303414D01*
X296304Y303419D01*
X296308Y303426D01*
X296617Y304172D01*
X299332Y306887D01*
X302880Y308357D01*
X306720Y308357D01*
X310268Y306887D01*
X312983Y304172D01*
X314453Y300624D01*
X314453Y283576D01*
X312983Y280028D01*
X310268Y277313D01*
X306720Y275843D01*
X302880Y275843D01*
X299332Y277313D01*
X296617Y280028D01*
X295147Y283576D01*
X295147Y290567D01*
X295145Y290580D01*
X295146Y290589D01*
X295136Y290636D01*
X295133Y290657D01*
X295125Y290748D01*
X295113Y290778D01*
X295108Y290810D01*
X295065Y290891D01*
X295029Y290975D01*
X295003Y291007D01*
X294992Y291027D01*
X294969Y291050D01*
X294924Y291106D01*
X290352Y295678D01*
X290294Y295719D01*
X290242Y295769D01*
X290195Y295791D01*
X290153Y295821D01*
X290084Y295842D01*
X290019Y295872D01*
X289967Y295878D01*
X289917Y295894D01*
X289846Y295892D01*
X289775Y295900D01*
X289724Y295889D01*
X289672Y295887D01*
X289604Y295863D01*
X289534Y295847D01*
X289490Y295821D01*
X289441Y295803D01*
X289385Y295758D01*
X289323Y295721D01*
X289289Y295682D01*
X289249Y295649D01*
X289210Y295589D01*
X289163Y295534D01*
X289144Y295486D01*
X289116Y295442D01*
X289098Y295373D01*
X289071Y295306D01*
X289063Y295235D01*
X289055Y295204D01*
X289057Y295180D01*
X289053Y295139D01*
X289053Y283576D01*
X287583Y280028D01*
X284868Y277313D01*
X284189Y277032D01*
X284089Y276970D01*
X283989Y276910D01*
X283985Y276905D01*
X283980Y276902D01*
X283905Y276811D01*
X283829Y276723D01*
X283827Y276717D01*
X283823Y276712D01*
X283781Y276603D01*
X283737Y276495D01*
X283736Y276487D01*
X283735Y276483D01*
X283734Y276465D01*
X283719Y276328D01*
X283719Y232927D01*
X283730Y232856D01*
X283732Y232784D01*
X283750Y232735D01*
X283758Y232684D01*
X283792Y232621D01*
X283817Y232553D01*
X283849Y232512D01*
X283874Y232467D01*
X283925Y232417D01*
X283970Y232361D01*
X284014Y232333D01*
X284052Y232297D01*
X284117Y232267D01*
X284177Y232228D01*
X284228Y232215D01*
X284275Y232194D01*
X284346Y232186D01*
X284416Y232168D01*
X284468Y232172D01*
X284519Y232166D01*
X284590Y232182D01*
X284661Y232187D01*
X284709Y232208D01*
X284760Y232219D01*
X284821Y232256D01*
X284887Y232284D01*
X284943Y232328D01*
X284971Y232345D01*
X284986Y232363D01*
X285018Y232388D01*
X327611Y274981D01*
X327638Y275018D01*
X327672Y275049D01*
X327709Y275118D01*
X327755Y275181D01*
X327768Y275225D01*
X327790Y275265D01*
X327804Y275342D01*
X327827Y275416D01*
X327826Y275462D01*
X327834Y275507D01*
X327823Y275584D01*
X327821Y275662D01*
X327805Y275705D01*
X327798Y275750D01*
X327763Y275820D01*
X327736Y275893D01*
X327707Y275929D01*
X327687Y275970D01*
X327631Y276024D01*
X327582Y276085D01*
X327544Y276110D01*
X327511Y276142D01*
X327391Y276208D01*
X327375Y276218D01*
X327371Y276219D01*
X327364Y276223D01*
X324732Y277313D01*
X322017Y280028D01*
X320547Y283576D01*
X320547Y300624D01*
X322017Y304172D01*
X324732Y306887D01*
X328280Y308357D01*
X332120Y308357D01*
X335668Y306887D01*
X338383Y304172D01*
X338704Y303397D01*
X338756Y303314D01*
X338801Y303228D01*
X338820Y303210D01*
X338834Y303188D01*
X338909Y303126D01*
X338979Y303059D01*
X339003Y303048D01*
X339023Y303031D01*
X339114Y302996D01*
X339203Y302955D01*
X339228Y302952D01*
X339253Y302943D01*
X339350Y302939D01*
X339447Y302928D01*
X339472Y302933D01*
X339499Y302932D01*
X339592Y302959D01*
X339687Y302980D01*
X339710Y302994D01*
X339735Y303001D01*
X339815Y303056D01*
X339898Y303106D01*
X339915Y303126D01*
X339937Y303141D01*
X339995Y303219D01*
X340058Y303293D01*
X340068Y303317D01*
X340084Y303338D01*
X340114Y303431D01*
X340150Y303521D01*
X340154Y303554D01*
X340160Y303572D01*
X340160Y303605D01*
X340169Y303688D01*
X340169Y321120D01*
X340154Y321210D01*
X340147Y321301D01*
X340134Y321331D01*
X340129Y321363D01*
X340086Y321444D01*
X340051Y321527D01*
X340025Y321560D01*
X340014Y321580D01*
X339991Y321602D01*
X339946Y321658D01*
X337596Y324008D01*
X336359Y326996D01*
X336359Y330229D01*
X337410Y332766D01*
X337420Y332811D01*
X337439Y332853D01*
X337448Y332930D01*
X337466Y333006D01*
X337461Y333051D01*
X337466Y333097D01*
X337450Y333173D01*
X337443Y333251D01*
X337424Y333292D01*
X337414Y333337D01*
X337374Y333404D01*
X337343Y333475D01*
X337312Y333509D01*
X337288Y333548D01*
X337229Y333599D01*
X337176Y333656D01*
X337136Y333679D01*
X337101Y333708D01*
X337029Y333737D01*
X336961Y333775D01*
X336916Y333783D01*
X336873Y333800D01*
X336737Y333815D01*
X336719Y333819D01*
X336714Y333818D01*
X336706Y333819D01*
X255386Y333819D01*
X252633Y336572D01*
X232432Y356773D01*
X232358Y356826D01*
X232288Y356886D01*
X232258Y356898D01*
X232232Y356917D01*
X232145Y356944D01*
X232060Y356978D01*
X232019Y356982D01*
X231997Y356989D01*
X231965Y356988D01*
X231893Y356996D01*
X228571Y356996D01*
X225583Y358234D01*
X223296Y360520D01*
X222059Y363508D01*
X222059Y366742D01*
X223267Y369660D01*
X223278Y369704D01*
X223297Y369746D01*
X223306Y369823D01*
X223324Y369899D01*
X223319Y369945D01*
X223324Y369990D01*
X223308Y370067D01*
X223300Y370144D01*
X223282Y370186D01*
X223272Y370231D01*
X223232Y370298D01*
X223200Y370369D01*
X223169Y370403D01*
X223146Y370442D01*
X223087Y370493D01*
X223034Y370550D01*
X222994Y370572D01*
X222959Y370602D01*
X222887Y370631D01*
X222819Y370668D01*
X222773Y370677D01*
X222731Y370694D01*
X222595Y370709D01*
X222576Y370712D01*
X222571Y370711D01*
X222564Y370712D01*
X169321Y370712D01*
X169257Y370702D01*
X169191Y370701D01*
X169111Y370678D01*
X169078Y370673D01*
X169061Y370663D01*
X169030Y370654D01*
X166717Y369696D01*
X163483Y369696D01*
X160495Y370934D01*
X158209Y373220D01*
X156971Y376208D01*
X156971Y379442D01*
X158209Y382430D01*
X160495Y384716D01*
X163483Y385954D01*
X166717Y385954D01*
X169030Y384996D01*
X169094Y384981D01*
X169154Y384956D01*
X169237Y384947D01*
X169269Y384940D01*
X169289Y384941D01*
X169321Y384938D01*
X276138Y384938D01*
X276229Y384952D01*
X276319Y384960D01*
X276349Y384972D01*
X276381Y384977D01*
X276462Y385020D01*
X276546Y385056D01*
X276578Y385082D01*
X276599Y385093D01*
X276605Y385099D01*
X276622Y385117D01*
X276677Y385161D01*
X279344Y387828D01*
X279386Y387886D01*
X279435Y387938D01*
X279457Y387985D01*
X279487Y388027D01*
X279508Y388096D01*
X279539Y388161D01*
X279544Y388213D01*
X279560Y388263D01*
X279558Y388334D01*
X279566Y388405D01*
X279555Y388456D01*
X279553Y388508D01*
X279529Y388576D01*
X279514Y388646D01*
X279487Y388691D01*
X279469Y388739D01*
X279424Y388795D01*
X279387Y388857D01*
X279348Y388891D01*
X279315Y388931D01*
X279255Y388970D01*
X279200Y389017D01*
X279152Y389036D01*
X279108Y389064D01*
X279039Y389082D01*
X278972Y389109D01*
X278901Y389117D01*
X278870Y389125D01*
X278846Y389123D01*
X278806Y389127D01*
X277379Y389127D01*
X273644Y390674D01*
X270786Y393532D01*
X269239Y397267D01*
X269239Y415533D01*
X270786Y419268D01*
X273644Y422126D01*
X277379Y423673D01*
X281421Y423673D01*
X285156Y422126D01*
X288014Y419268D01*
X289561Y415533D01*
X289561Y399882D01*
X289572Y399812D01*
X289574Y399740D01*
X289592Y399691D01*
X289600Y399640D01*
X289634Y399576D01*
X289659Y399509D01*
X289691Y399468D01*
X289716Y399422D01*
X289768Y399373D01*
X289812Y399317D01*
X289856Y399289D01*
X289894Y399253D01*
X289959Y399223D01*
X290019Y399184D01*
X290070Y399171D01*
X290117Y399149D01*
X290188Y399141D01*
X290258Y399124D01*
X290310Y399128D01*
X290361Y399122D01*
X290432Y399137D01*
X290503Y399143D01*
X290551Y399163D01*
X290602Y399174D01*
X290663Y399211D01*
X290729Y399239D01*
X290785Y399284D01*
X290813Y399301D01*
X290828Y399318D01*
X290860Y399344D01*
X291246Y399730D01*
X293860Y400813D01*
X410271Y400813D01*
X410361Y400827D01*
X410452Y400835D01*
X410482Y400847D01*
X410513Y400852D01*
X410594Y400895D01*
X410678Y400931D01*
X410710Y400957D01*
X410731Y400968D01*
X410753Y400991D01*
X410809Y401036D01*
X412841Y403067D01*
X416902Y404750D01*
X421298Y404750D01*
X425359Y403067D01*
X428467Y399959D01*
X430150Y395898D01*
X430150Y391502D01*
X428467Y387441D01*
X425359Y384333D01*
X421298Y382650D01*
X416902Y382650D01*
X412841Y384333D01*
X410809Y386364D01*
X410735Y386417D01*
X410666Y386477D01*
X410635Y386489D01*
X410609Y386508D01*
X410522Y386535D01*
X410437Y386569D01*
X410397Y386573D01*
X410374Y386580D01*
X410342Y386579D01*
X410271Y386587D01*
X298537Y386587D01*
X298446Y386573D01*
X298356Y386565D01*
X298326Y386553D01*
X298294Y386548D01*
X298213Y386505D01*
X298129Y386469D01*
X298097Y386443D01*
X298076Y386432D01*
X298054Y386409D01*
X297998Y386364D01*
X283429Y371795D01*
X280815Y370712D01*
X237811Y370712D01*
X237766Y370705D01*
X237720Y370707D01*
X237645Y370685D01*
X237568Y370673D01*
X237528Y370651D01*
X237484Y370638D01*
X237420Y370594D01*
X237351Y370557D01*
X237319Y370524D01*
X237282Y370498D01*
X237235Y370435D01*
X237181Y370379D01*
X237162Y370337D01*
X237135Y370301D01*
X237111Y370227D01*
X237078Y370156D01*
X237073Y370110D01*
X237059Y370067D01*
X237059Y369989D01*
X237051Y369912D01*
X237060Y369867D01*
X237061Y369821D01*
X237099Y369689D01*
X237103Y369671D01*
X237106Y369667D01*
X237108Y369660D01*
X238316Y366742D01*
X238316Y363419D01*
X238331Y363329D01*
X238338Y363238D01*
X238351Y363208D01*
X238356Y363176D01*
X238399Y363096D01*
X238434Y363012D01*
X238460Y362980D01*
X238471Y362959D01*
X238494Y362937D01*
X238539Y362881D01*
X243048Y358372D01*
X243106Y358331D01*
X243158Y358281D01*
X243205Y358259D01*
X243247Y358229D01*
X243316Y358208D01*
X243381Y358178D01*
X243433Y358172D01*
X243483Y358156D01*
X243554Y358158D01*
X243625Y358150D01*
X243676Y358161D01*
X243728Y358163D01*
X243796Y358187D01*
X243866Y358203D01*
X243910Y358229D01*
X243959Y358247D01*
X244015Y358292D01*
X244077Y358329D01*
X244111Y358368D01*
X244151Y358401D01*
X244190Y358461D01*
X244237Y358516D01*
X244256Y358564D01*
X244284Y358608D01*
X244302Y358677D01*
X244329Y358744D01*
X244337Y358815D01*
X244345Y358846D01*
X244343Y358870D01*
X244347Y358911D01*
X244347Y359598D01*
X250002Y365253D01*
X257998Y365253D01*
X263653Y359598D01*
X263653Y351602D01*
X257998Y345947D01*
X257311Y345947D01*
X257240Y345936D01*
X257168Y345934D01*
X257119Y345916D01*
X257068Y345908D01*
X257005Y345874D01*
X256937Y345849D01*
X256897Y345817D01*
X256851Y345792D01*
X256801Y345740D01*
X256745Y345696D01*
X256717Y345652D01*
X256681Y345614D01*
X256651Y345549D01*
X256612Y345489D01*
X256599Y345438D01*
X256578Y345391D01*
X256570Y345320D01*
X256552Y345250D01*
X256556Y345198D01*
X256550Y345147D01*
X256566Y345076D01*
X256571Y345005D01*
X256592Y344957D01*
X256603Y344906D01*
X256639Y344845D01*
X256668Y344779D01*
X256712Y344723D01*
X256729Y344695D01*
X256747Y344680D01*
X256772Y344648D01*
X258741Y342679D01*
X258815Y342626D01*
X258884Y342567D01*
X258914Y342555D01*
X258941Y342536D01*
X259028Y342509D01*
X259112Y342475D01*
X259153Y342470D01*
X259176Y342463D01*
X259208Y342464D01*
X259279Y342456D01*
X382789Y342456D01*
X421941Y303304D01*
X421956Y303270D01*
X421974Y303251D01*
X421986Y303228D01*
X422057Y303161D01*
X422123Y303089D01*
X422145Y303077D01*
X422164Y303059D01*
X422253Y303018D01*
X422338Y302971D01*
X422364Y302966D01*
X422387Y302955D01*
X422484Y302944D01*
X422580Y302927D01*
X422606Y302931D01*
X422632Y302928D01*
X422727Y302949D01*
X422823Y302963D01*
X422847Y302975D01*
X422872Y302980D01*
X422956Y303030D01*
X423043Y303074D01*
X423061Y303093D01*
X423083Y303106D01*
X423147Y303180D01*
X423215Y303250D01*
X423231Y303278D01*
X423243Y303293D01*
X423256Y303324D01*
X423296Y303397D01*
X423617Y304172D01*
X426332Y306887D01*
X429880Y308357D01*
X433720Y308357D01*
X437268Y306887D01*
X439983Y304172D01*
X441453Y300624D01*
X441453Y283576D01*
X439983Y280028D01*
X437268Y277313D01*
X433720Y275843D01*
X429880Y275843D01*
X426332Y277313D01*
X423617Y280028D01*
X423296Y280803D01*
X423244Y280886D01*
X423199Y280972D01*
X423180Y280990D01*
X423166Y281012D01*
X423091Y281074D01*
X423021Y281141D01*
X422997Y281152D01*
X422977Y281169D01*
X422886Y281204D01*
X422797Y281245D01*
X422772Y281248D01*
X422747Y281257D01*
X422650Y281261D01*
X422553Y281272D01*
X422528Y281267D01*
X422501Y281268D01*
X422408Y281241D01*
X422313Y281220D01*
X422290Y281206D01*
X422265Y281199D01*
X422185Y281144D01*
X422102Y281094D01*
X422085Y281074D01*
X422063Y281059D01*
X422005Y280981D01*
X421942Y280907D01*
X421932Y280883D01*
X421916Y280862D01*
X421886Y280769D01*
X421850Y280679D01*
X421846Y280646D01*
X421840Y280628D01*
X421840Y280595D01*
X421831Y280512D01*
X421831Y228399D01*
X408766Y215333D01*
X408739Y215296D01*
X408705Y215265D01*
X408667Y215196D01*
X408622Y215133D01*
X408609Y215089D01*
X408586Y215049D01*
X408572Y214972D01*
X408550Y214898D01*
X408551Y214852D01*
X408543Y214807D01*
X408554Y214730D01*
X408556Y214652D01*
X408572Y214609D01*
X408578Y214564D01*
X408614Y214494D01*
X408640Y214421D01*
X408669Y214385D01*
X408690Y214344D01*
X408746Y214290D01*
X408794Y214229D01*
X408833Y214204D01*
X408866Y214172D01*
X408985Y214106D01*
X409001Y214096D01*
X409006Y214095D01*
X409012Y214091D01*
X411005Y213266D01*
X413291Y210980D01*
X414529Y207992D01*
X414529Y204758D01*
X413291Y201770D01*
X410942Y199421D01*
X410889Y199347D01*
X410829Y199278D01*
X410817Y199247D01*
X410798Y199221D01*
X410771Y199134D01*
X410737Y199049D01*
X410733Y199008D01*
X410726Y198986D01*
X410727Y198954D01*
X410719Y198883D01*
X410719Y162442D01*
X410733Y162352D01*
X410741Y162261D01*
X410753Y162231D01*
X410758Y162199D01*
X410801Y162118D01*
X410837Y162034D01*
X410863Y162002D01*
X410874Y161982D01*
X410897Y161959D01*
X410942Y161903D01*
X422455Y150390D01*
X422492Y150363D01*
X422524Y150329D01*
X422592Y150292D01*
X422655Y150247D01*
X422699Y150233D01*
X422739Y150211D01*
X422816Y150197D01*
X422890Y150174D01*
X422936Y150175D01*
X422981Y150167D01*
X423058Y150179D01*
X423136Y150181D01*
X423179Y150196D01*
X423225Y150203D01*
X423294Y150238D01*
X423367Y150265D01*
X423403Y150294D01*
X423444Y150315D01*
X423498Y150370D01*
X423559Y150419D01*
X423584Y150457D01*
X423616Y150490D01*
X423682Y150610D01*
X423692Y150626D01*
X423693Y150631D01*
X423695Y150634D01*
X424697Y152134D01*
X425970Y153407D01*
X427468Y154408D01*
X429133Y155097D01*
X430277Y155325D01*
X430277Y140462D01*
X430280Y140442D01*
X430278Y140423D01*
X430300Y140321D01*
X430317Y140219D01*
X430326Y140202D01*
X430330Y140182D01*
X430383Y140093D01*
X430432Y140002D01*
X430446Y139988D01*
X430456Y139971D01*
X430535Y139904D01*
X430610Y139833D01*
X430628Y139824D01*
X430643Y139811D01*
X430739Y139773D01*
X430833Y139729D01*
X430853Y139727D01*
X430871Y139719D01*
X431038Y139701D01*
X432562Y139701D01*
X432582Y139704D01*
X432601Y139702D01*
X432703Y139724D01*
X432805Y139741D01*
X432822Y139750D01*
X432842Y139754D01*
X432931Y139807D01*
X433022Y139856D01*
X433036Y139870D01*
X433053Y139880D01*
X433120Y139959D01*
X433191Y140034D01*
X433200Y140052D01*
X433213Y140067D01*
X433252Y140163D01*
X433295Y140257D01*
X433297Y140277D01*
X433305Y140295D01*
X433323Y140462D01*
X433323Y155325D01*
X434467Y155097D01*
X435954Y154482D01*
X435998Y154471D01*
X436040Y154452D01*
X436117Y154443D01*
X436193Y154425D01*
X436239Y154430D01*
X436284Y154425D01*
X436361Y154441D01*
X436438Y154449D01*
X436480Y154467D01*
X436525Y154477D01*
X436592Y154517D01*
X436663Y154549D01*
X436697Y154580D01*
X436736Y154603D01*
X436787Y154662D01*
X436844Y154715D01*
X436866Y154755D01*
X436896Y154790D01*
X436925Y154862D01*
X436962Y154930D01*
X436971Y154976D01*
X436988Y155018D01*
X437003Y155154D01*
X437006Y155173D01*
X437005Y155178D01*
X437006Y155185D01*
X437006Y263726D01*
X439759Y266479D01*
X451829Y278549D01*
X451841Y278565D01*
X451856Y278578D01*
X451912Y278665D01*
X451972Y278749D01*
X451978Y278768D01*
X451989Y278785D01*
X452014Y278885D01*
X452045Y278984D01*
X452044Y279004D01*
X452049Y279023D01*
X452041Y279126D01*
X452038Y279230D01*
X452031Y279248D01*
X452030Y279268D01*
X451989Y279363D01*
X451954Y279461D01*
X451941Y279476D01*
X451933Y279495D01*
X451911Y279523D01*
X450659Y282546D01*
X450659Y285779D01*
X451896Y288767D01*
X454183Y291054D01*
X457171Y292291D01*
X460404Y292291D01*
X463392Y291054D01*
X465679Y288767D01*
X466504Y286775D01*
X466528Y286736D01*
X466544Y286693D01*
X466592Y286632D01*
X466633Y286566D01*
X466669Y286537D01*
X466697Y286501D01*
X466763Y286459D01*
X466823Y286409D01*
X466866Y286393D01*
X466904Y286368D01*
X466980Y286349D01*
X467053Y286321D01*
X467098Y286319D01*
X467143Y286308D01*
X467220Y286314D01*
X467298Y286311D01*
X467342Y286323D01*
X467388Y286327D01*
X467460Y286357D01*
X467535Y286379D01*
X467572Y286405D01*
X467614Y286423D01*
X467721Y286509D01*
X467737Y286519D01*
X467740Y286523D01*
X467745Y286528D01*
X525683Y344466D01*
X528436Y347219D01*
X543028Y347219D01*
X543143Y347238D01*
X543259Y347255D01*
X543265Y347257D01*
X543271Y347258D01*
X543373Y347313D01*
X543478Y347366D01*
X543483Y347371D01*
X543488Y347374D01*
X543568Y347458D01*
X543651Y347542D01*
X543654Y347548D01*
X543658Y347552D01*
X543666Y347569D01*
X543732Y347689D01*
X544013Y348368D01*
X546728Y351083D01*
X550276Y352553D01*
X567324Y352553D01*
X570872Y351083D01*
X573587Y348368D01*
X575057Y344820D01*
X575057Y340980D01*
X573587Y337432D01*
X573561Y337406D01*
X573519Y337348D01*
X573470Y337296D01*
X573448Y337248D01*
X573417Y337206D01*
X573396Y337138D01*
X573366Y337072D01*
X573360Y337021D01*
X573345Y336971D01*
X573347Y336899D01*
X573339Y336828D01*
X573350Y336777D01*
X573351Y336725D01*
X573376Y336658D01*
X573391Y336588D01*
X573418Y336543D01*
X573436Y336494D01*
X573481Y336438D01*
X573517Y336377D01*
X573557Y336343D01*
X573589Y336302D01*
X573650Y336263D01*
X573704Y336217D01*
X573752Y336197D01*
X573796Y336169D01*
X573866Y336152D01*
X573932Y336125D01*
X574004Y336117D01*
X574035Y336109D01*
X574058Y336111D01*
X574099Y336106D01*
X596383Y336106D01*
X596473Y336121D01*
X596564Y336128D01*
X596594Y336141D01*
X596626Y336146D01*
X596707Y336189D01*
X596791Y336224D01*
X596823Y336250D01*
X596843Y336261D01*
X596866Y336284D01*
X596922Y336329D01*
X621280Y360688D01*
X621292Y360704D01*
X621308Y360717D01*
X621364Y360804D01*
X621424Y360888D01*
X621430Y360907D01*
X621441Y360924D01*
X621466Y361024D01*
X621496Y361123D01*
X621496Y361143D01*
X621501Y361162D01*
X621493Y361265D01*
X621490Y361369D01*
X621483Y361387D01*
X621482Y361407D01*
X621441Y361502D01*
X621406Y361600D01*
X621393Y361615D01*
X621385Y361634D01*
X621280Y361765D01*
X620213Y362832D01*
X618743Y366380D01*
X618743Y369498D01*
X618732Y369569D01*
X618730Y369640D01*
X618712Y369689D01*
X618704Y369741D01*
X618670Y369804D01*
X618645Y369871D01*
X618613Y369912D01*
X618588Y369958D01*
X618536Y370007D01*
X618492Y370063D01*
X618448Y370092D01*
X618410Y370127D01*
X618345Y370158D01*
X618285Y370196D01*
X618234Y370209D01*
X618187Y370231D01*
X618116Y370239D01*
X618046Y370256D01*
X617994Y370252D01*
X617943Y370258D01*
X617872Y370243D01*
X617801Y370237D01*
X617753Y370217D01*
X617702Y370206D01*
X617641Y370169D01*
X617575Y370141D01*
X617519Y370096D01*
X617491Y370080D01*
X617476Y370062D01*
X617444Y370036D01*
X598902Y351494D01*
X598849Y351420D01*
X598789Y351351D01*
X598777Y351321D01*
X598758Y351294D01*
X598731Y351207D01*
X598697Y351123D01*
X598693Y351082D01*
X598686Y351059D01*
X598687Y351027D01*
X598679Y350956D01*
X598679Y347633D01*
X597441Y344645D01*
X595155Y342359D01*
X592167Y341121D01*
X588933Y341121D01*
X585945Y342359D01*
X583659Y344645D01*
X582421Y347633D01*
X582421Y350867D01*
X583659Y353855D01*
X585945Y356141D01*
X588933Y357379D01*
X592256Y357379D01*
X592346Y357393D01*
X592437Y357401D01*
X592467Y357413D01*
X592499Y357418D01*
X592579Y357461D01*
X592663Y357497D01*
X592695Y357523D01*
X592716Y357534D01*
X592738Y357557D01*
X592794Y357602D01*
X621280Y386088D01*
X621292Y386104D01*
X621308Y386117D01*
X621364Y386204D01*
X621424Y386288D01*
X621430Y386307D01*
X621441Y386324D01*
X621466Y386424D01*
X621496Y386523D01*
X621496Y386543D01*
X621501Y386562D01*
X621493Y386665D01*
X621490Y386769D01*
X621483Y386787D01*
X621482Y386807D01*
X621441Y386902D01*
X621406Y387000D01*
X621393Y387015D01*
X621385Y387034D01*
X621280Y387165D01*
X620213Y388232D01*
X618743Y391780D01*
X618743Y395620D01*
X620213Y399168D01*
X622928Y401883D01*
X626476Y403353D01*
X643524Y403353D01*
X647072Y401883D01*
X649787Y399168D01*
X651257Y395620D01*
X651257Y391780D01*
X649787Y388232D01*
X647072Y385517D01*
X643524Y384047D01*
X631770Y384047D01*
X631680Y384033D01*
X631589Y384025D01*
X631559Y384013D01*
X631527Y384008D01*
X631447Y383965D01*
X631363Y383929D01*
X631331Y383903D01*
X631310Y383892D01*
X631288Y383869D01*
X631232Y383824D01*
X626660Y379252D01*
X626618Y379194D01*
X626569Y379142D01*
X626547Y379095D01*
X626516Y379053D01*
X626495Y378984D01*
X626465Y378919D01*
X626459Y378867D01*
X626444Y378817D01*
X626446Y378746D01*
X626438Y378675D01*
X626449Y378624D01*
X626450Y378572D01*
X626475Y378504D01*
X626490Y378434D01*
X626517Y378390D01*
X626535Y378341D01*
X626580Y378285D01*
X626616Y378223D01*
X626656Y378189D01*
X626688Y378149D01*
X626749Y378110D01*
X626803Y378063D01*
X626852Y378044D01*
X626895Y378016D01*
X626965Y377998D01*
X627031Y377971D01*
X627103Y377963D01*
X627134Y377955D01*
X627157Y377957D01*
X627198Y377953D01*
X643524Y377953D01*
X647072Y376483D01*
X649787Y373768D01*
X651257Y370220D01*
X651257Y366380D01*
X649787Y362832D01*
X647072Y360117D01*
X643524Y358647D01*
X631770Y358647D01*
X631680Y358633D01*
X631589Y358625D01*
X631559Y358613D01*
X631527Y358608D01*
X631447Y358565D01*
X631363Y358529D01*
X631331Y358503D01*
X631310Y358492D01*
X631288Y358469D01*
X631232Y358424D01*
X626660Y353852D01*
X626618Y353794D01*
X626569Y353742D01*
X626547Y353695D01*
X626516Y353653D01*
X626495Y353584D01*
X626465Y353519D01*
X626459Y353467D01*
X626444Y353417D01*
X626446Y353346D01*
X626438Y353275D01*
X626449Y353224D01*
X626450Y353172D01*
X626475Y353104D01*
X626490Y353034D01*
X626517Y352990D01*
X626535Y352941D01*
X626580Y352885D01*
X626616Y352823D01*
X626656Y352789D01*
X626688Y352749D01*
X626749Y352710D01*
X626803Y352663D01*
X626852Y352644D01*
X626895Y352616D01*
X626965Y352598D01*
X627031Y352571D01*
X627103Y352563D01*
X627134Y352555D01*
X627157Y352557D01*
X627198Y352553D01*
X643524Y352553D01*
X647072Y351083D01*
X649745Y348410D01*
X649761Y348398D01*
X649774Y348383D01*
X649861Y348326D01*
X649945Y348266D01*
X649964Y348260D01*
X649981Y348250D01*
X650081Y348224D01*
X650180Y348194D01*
X650200Y348194D01*
X650219Y348189D01*
X650322Y348197D01*
X650426Y348200D01*
X650445Y348207D01*
X650465Y348209D01*
X650559Y348249D01*
X650657Y348285D01*
X650673Y348297D01*
X650691Y348305D01*
X650822Y348410D01*
X655981Y353569D01*
X664819Y353569D01*
X671069Y347319D01*
X671069Y338481D01*
X664819Y332231D01*
X655981Y332231D01*
X650822Y337390D01*
X650806Y337402D01*
X650793Y337417D01*
X650706Y337474D01*
X650622Y337534D01*
X650603Y337540D01*
X650586Y337550D01*
X650486Y337576D01*
X650387Y337606D01*
X650367Y337606D01*
X650348Y337611D01*
X650245Y337603D01*
X650141Y337600D01*
X650122Y337593D01*
X650103Y337591D01*
X650008Y337551D01*
X649910Y337515D01*
X649895Y337503D01*
X649876Y337495D01*
X649745Y337390D01*
X647072Y334717D01*
X643524Y333247D01*
X626476Y333247D01*
X622928Y334717D01*
X620213Y337432D01*
X618743Y340980D01*
X618743Y344098D01*
X618732Y344169D01*
X618730Y344240D01*
X618712Y344289D01*
X618704Y344341D01*
X618670Y344404D01*
X618645Y344471D01*
X618613Y344512D01*
X618588Y344558D01*
X618536Y344607D01*
X618492Y344663D01*
X618448Y344692D01*
X618410Y344727D01*
X618345Y344758D01*
X618285Y344796D01*
X618234Y344809D01*
X618187Y344831D01*
X618116Y344839D01*
X618046Y344856D01*
X617994Y344852D01*
X617943Y344858D01*
X617872Y344843D01*
X617801Y344837D01*
X617753Y344817D01*
X617702Y344806D01*
X617641Y344769D01*
X617575Y344741D01*
X617519Y344696D01*
X617491Y344680D01*
X617476Y344662D01*
X617444Y344636D01*
X600276Y327469D01*
X570388Y327469D01*
X570292Y327453D01*
X570195Y327444D01*
X570171Y327433D01*
X570145Y327429D01*
X570059Y327384D01*
X569970Y327344D01*
X569951Y327326D01*
X569928Y327314D01*
X569861Y327243D01*
X569789Y327177D01*
X569777Y327155D01*
X569759Y327136D01*
X569718Y327047D01*
X569671Y326962D01*
X569666Y326936D01*
X569655Y326913D01*
X569644Y326816D01*
X569627Y326720D01*
X569631Y326694D01*
X569628Y326668D01*
X569649Y326573D01*
X569663Y326477D01*
X569675Y326453D01*
X569680Y326428D01*
X569730Y326344D01*
X569774Y326257D01*
X569793Y326239D01*
X569806Y326217D01*
X569880Y326153D01*
X569950Y326085D01*
X569978Y326069D01*
X569993Y326057D01*
X570024Y326044D01*
X570097Y326004D01*
X570872Y325683D01*
X573587Y322968D01*
X575057Y319420D01*
X575057Y315580D01*
X573587Y312032D01*
X570872Y309317D01*
X567324Y307847D01*
X560333Y307847D01*
X560243Y307833D01*
X560152Y307825D01*
X560122Y307813D01*
X560090Y307808D01*
X560009Y307765D01*
X559925Y307729D01*
X559893Y307703D01*
X559873Y307692D01*
X559850Y307669D01*
X559794Y307624D01*
X555222Y303052D01*
X555181Y302994D01*
X555131Y302942D01*
X555109Y302895D01*
X555079Y302853D01*
X555058Y302784D01*
X555028Y302719D01*
X555022Y302667D01*
X555006Y302617D01*
X555008Y302546D01*
X555000Y302475D01*
X555011Y302424D01*
X555013Y302372D01*
X555037Y302304D01*
X555053Y302234D01*
X555079Y302189D01*
X555097Y302141D01*
X555142Y302085D01*
X555179Y302023D01*
X555218Y301989D01*
X555251Y301949D01*
X555311Y301910D01*
X555366Y301863D01*
X555414Y301844D01*
X555458Y301816D01*
X555527Y301798D01*
X555594Y301771D01*
X555665Y301763D01*
X555696Y301755D01*
X555720Y301757D01*
X555761Y301753D01*
X567324Y301753D01*
X570872Y300283D01*
X573587Y297568D01*
X575057Y294020D01*
X575057Y290180D01*
X573587Y286632D01*
X570872Y283917D01*
X567324Y282447D01*
X560333Y282447D01*
X560243Y282433D01*
X560152Y282425D01*
X560122Y282413D01*
X560090Y282408D01*
X560009Y282365D01*
X559925Y282329D01*
X559893Y282303D01*
X559873Y282292D01*
X559850Y282269D01*
X559794Y282224D01*
X555222Y277652D01*
X555181Y277594D01*
X555131Y277542D01*
X555109Y277495D01*
X555079Y277453D01*
X555058Y277384D01*
X555028Y277319D01*
X555022Y277267D01*
X555006Y277217D01*
X555008Y277146D01*
X555000Y277075D01*
X555011Y277024D01*
X555013Y276972D01*
X555037Y276904D01*
X555053Y276834D01*
X555079Y276790D01*
X555097Y276741D01*
X555142Y276685D01*
X555179Y276623D01*
X555218Y276589D01*
X555251Y276549D01*
X555311Y276510D01*
X555366Y276463D01*
X555414Y276444D01*
X555458Y276416D01*
X555527Y276398D01*
X555594Y276371D01*
X555665Y276363D01*
X555696Y276355D01*
X555720Y276357D01*
X555761Y276353D01*
X567324Y276353D01*
X570872Y274883D01*
X573587Y272168D01*
X575057Y268620D01*
X575057Y264780D01*
X573587Y261232D01*
X570872Y258517D01*
X567324Y257047D01*
X555570Y257047D01*
X555480Y257033D01*
X555389Y257025D01*
X555359Y257013D01*
X555327Y257008D01*
X555247Y256965D01*
X555163Y256929D01*
X555131Y256903D01*
X555110Y256892D01*
X555088Y256869D01*
X555032Y256824D01*
X550460Y252252D01*
X550418Y252194D01*
X550369Y252142D01*
X550347Y252095D01*
X550316Y252053D01*
X550295Y251984D01*
X550265Y251919D01*
X550259Y251867D01*
X550244Y251817D01*
X550246Y251746D01*
X550238Y251675D01*
X550249Y251624D01*
X550250Y251572D01*
X550275Y251504D01*
X550290Y251434D01*
X550317Y251390D01*
X550335Y251341D01*
X550380Y251285D01*
X550416Y251223D01*
X550456Y251189D01*
X550488Y251149D01*
X550549Y251110D01*
X550603Y251063D01*
X550652Y251044D01*
X550695Y251016D01*
X550765Y250998D01*
X550831Y250971D01*
X550903Y250963D01*
X550934Y250955D01*
X550957Y250957D01*
X550998Y250953D01*
X567324Y250953D01*
X570872Y249483D01*
X573587Y246768D01*
X575057Y243220D01*
X575057Y239380D01*
X573587Y235832D01*
X570872Y233117D01*
X567324Y231647D01*
X550276Y231647D01*
X546728Y233117D01*
X545368Y234477D01*
X545310Y234519D01*
X545258Y234568D01*
X545211Y234590D01*
X545169Y234620D01*
X545100Y234641D01*
X545035Y234672D01*
X544983Y234677D01*
X544933Y234693D01*
X544862Y234691D01*
X544791Y234699D01*
X544740Y234688D01*
X544688Y234686D01*
X544620Y234662D01*
X544550Y234646D01*
X544505Y234620D01*
X544457Y234602D01*
X544401Y234557D01*
X544339Y234520D01*
X544305Y234481D01*
X544265Y234448D01*
X544226Y234388D01*
X544179Y234333D01*
X544160Y234285D01*
X544132Y234241D01*
X544114Y234172D01*
X544087Y234105D01*
X544079Y234034D01*
X544071Y234003D01*
X544073Y233979D01*
X544069Y233938D01*
X544069Y223262D01*
X544080Y223191D01*
X544082Y223119D01*
X544100Y223070D01*
X544108Y223019D01*
X544142Y222955D01*
X544167Y222888D01*
X544199Y222847D01*
X544224Y222801D01*
X544276Y222752D01*
X544320Y222696D01*
X544364Y222668D01*
X544402Y222632D01*
X544467Y222602D01*
X544527Y222563D01*
X544578Y222550D01*
X544625Y222528D01*
X544696Y222521D01*
X544766Y222503D01*
X544818Y222507D01*
X544869Y222501D01*
X544940Y222517D01*
X545011Y222522D01*
X545059Y222542D01*
X545110Y222554D01*
X545171Y222590D01*
X545237Y222618D01*
X545293Y222663D01*
X545321Y222680D01*
X545336Y222698D01*
X545368Y222723D01*
X546728Y224083D01*
X550276Y225553D01*
X567324Y225553D01*
X570872Y224083D01*
X573587Y221368D01*
X575057Y217820D01*
X575057Y213980D01*
X573587Y210432D01*
X570872Y207717D01*
X570126Y207408D01*
X570087Y207384D01*
X570044Y207368D01*
X569983Y207319D01*
X569917Y207278D01*
X569887Y207243D01*
X569852Y207214D01*
X569810Y207149D01*
X569760Y207089D01*
X569743Y207046D01*
X569719Y207007D01*
X569700Y206932D01*
X569672Y206859D01*
X569670Y206813D01*
X569659Y206769D01*
X569665Y206691D01*
X569661Y206613D01*
X569674Y206569D01*
X569678Y206524D01*
X569708Y206452D01*
X569730Y206377D01*
X569756Y206339D01*
X569774Y206297D01*
X569859Y206191D01*
X569870Y206175D01*
X569874Y206172D01*
X569879Y206166D01*
X579416Y196629D01*
X581757Y194288D01*
X581815Y194247D01*
X581867Y194197D01*
X581914Y194175D01*
X581956Y194145D01*
X582025Y194124D01*
X582090Y194094D01*
X582142Y194088D01*
X582192Y194072D01*
X582263Y194074D01*
X582334Y194066D01*
X582385Y194077D01*
X582437Y194079D01*
X582505Y194103D01*
X582575Y194119D01*
X582620Y194145D01*
X582668Y194163D01*
X582724Y194208D01*
X582786Y194245D01*
X582820Y194284D01*
X582860Y194317D01*
X582899Y194377D01*
X582946Y194432D01*
X582965Y194480D01*
X582993Y194524D01*
X583011Y194593D01*
X583038Y194660D01*
X583046Y194731D01*
X583054Y194762D01*
X583052Y194786D01*
X583056Y194827D01*
X583056Y251270D01*
X583042Y251360D01*
X583034Y251451D01*
X583022Y251481D01*
X583017Y251513D01*
X582974Y251594D01*
X582938Y251677D01*
X582912Y251710D01*
X582901Y251730D01*
X582878Y251752D01*
X582833Y251808D01*
X580484Y254158D01*
X579246Y257146D01*
X579246Y260379D01*
X580484Y263367D01*
X582770Y265654D01*
X585758Y266891D01*
X588992Y266891D01*
X591980Y265654D01*
X594266Y263367D01*
X595504Y260379D01*
X595504Y257146D01*
X594266Y254158D01*
X591917Y251808D01*
X591864Y251734D01*
X591804Y251665D01*
X591792Y251635D01*
X591773Y251609D01*
X591746Y251522D01*
X591712Y251437D01*
X591708Y251396D01*
X591701Y251374D01*
X591702Y251341D01*
X591694Y251270D01*
X591694Y160527D01*
X591705Y160457D01*
X591707Y160385D01*
X591725Y160336D01*
X591733Y160285D01*
X591767Y160221D01*
X591792Y160154D01*
X591824Y160113D01*
X591849Y160067D01*
X591901Y160018D01*
X591945Y159962D01*
X591989Y159934D01*
X592027Y159898D01*
X592092Y159868D01*
X592152Y159829D01*
X592203Y159816D01*
X592250Y159794D01*
X592321Y159786D01*
X592391Y159769D01*
X592443Y159773D01*
X592494Y159767D01*
X592565Y159782D01*
X592636Y159788D01*
X592684Y159808D01*
X592735Y159819D01*
X592796Y159856D01*
X592862Y159884D01*
X592918Y159929D01*
X592946Y159946D01*
X592961Y159963D01*
X592993Y159989D01*
X593883Y160879D01*
X596871Y162116D01*
X600193Y162116D01*
X600283Y162131D01*
X600374Y162138D01*
X600404Y162151D01*
X600436Y162156D01*
X600517Y162199D01*
X600601Y162234D01*
X600633Y162260D01*
X600653Y162271D01*
X600676Y162294D01*
X600732Y162339D01*
X621280Y182888D01*
X621292Y182904D01*
X621308Y182917D01*
X621364Y183004D01*
X621424Y183088D01*
X621430Y183107D01*
X621441Y183124D01*
X621466Y183224D01*
X621496Y183323D01*
X621496Y183343D01*
X621501Y183362D01*
X621493Y183465D01*
X621490Y183569D01*
X621483Y183588D01*
X621482Y183607D01*
X621441Y183702D01*
X621406Y183800D01*
X621393Y183815D01*
X621385Y183834D01*
X621280Y183965D01*
X620213Y185032D01*
X618743Y188580D01*
X618743Y192420D01*
X620213Y195968D01*
X622928Y198683D01*
X626476Y200153D01*
X643524Y200153D01*
X647072Y198683D01*
X649787Y195968D01*
X651257Y192420D01*
X651257Y188580D01*
X649787Y185032D01*
X647072Y182317D01*
X646326Y182008D01*
X646287Y181984D01*
X646244Y181968D01*
X646183Y181919D01*
X646117Y181878D01*
X646087Y181843D01*
X646052Y181814D01*
X646010Y181749D01*
X645960Y181689D01*
X645943Y181646D01*
X645919Y181607D01*
X645900Y181532D01*
X645872Y181459D01*
X645870Y181413D01*
X645859Y181369D01*
X645865Y181291D01*
X645861Y181213D01*
X645874Y181169D01*
X645878Y181124D01*
X645908Y181052D01*
X645930Y180977D01*
X645956Y180939D01*
X645974Y180897D01*
X646059Y180791D01*
X646070Y180775D01*
X646074Y180772D01*
X646079Y180766D01*
X663131Y163714D01*
X663131Y15674D01*
X657426Y9969D01*
X536374Y9969D01*
X533621Y12722D01*
X530555Y15787D01*
X530539Y15799D01*
X530527Y15814D01*
X530440Y15870D01*
X530356Y15931D01*
X530336Y15937D01*
X530320Y15947D01*
X530219Y15973D01*
X530120Y16003D01*
X530101Y16003D01*
X530081Y16007D01*
X529978Y15999D01*
X529875Y15997D01*
X529856Y15990D01*
X529836Y15988D01*
X529741Y15948D01*
X529644Y15912D01*
X529628Y15900D01*
X529610Y15892D01*
X529479Y15787D01*
X529003Y15311D01*
X512397Y15311D01*
X510611Y17097D01*
X510611Y33703D01*
X512397Y35489D01*
X529003Y35489D01*
X529369Y35122D01*
X529428Y35080D01*
X529479Y35031D01*
X529527Y35009D01*
X529569Y34979D01*
X529637Y34958D01*
X529703Y34927D01*
X529754Y34922D01*
X529804Y34906D01*
X529876Y34908D01*
X529947Y34900D01*
X529998Y34911D01*
X530050Y34913D01*
X530117Y34937D01*
X530187Y34953D01*
X530232Y34979D01*
X530281Y34997D01*
X530337Y35042D01*
X530398Y35079D01*
X530432Y35118D01*
X530473Y35151D01*
X530512Y35211D01*
X530558Y35266D01*
X530578Y35314D01*
X530606Y35358D01*
X530623Y35427D01*
X530650Y35494D01*
X530658Y35565D01*
X530666Y35596D01*
X530664Y35620D01*
X530669Y35661D01*
X530669Y65939D01*
X530657Y66010D01*
X530655Y66082D01*
X530637Y66131D01*
X530629Y66182D01*
X530596Y66245D01*
X530571Y66313D01*
X530538Y66354D01*
X530514Y66400D01*
X530462Y66449D01*
X530417Y66505D01*
X530373Y66533D01*
X530336Y66569D01*
X530270Y66599D01*
X530210Y66638D01*
X530160Y66651D01*
X530113Y66673D01*
X530041Y66680D01*
X529972Y66698D01*
X529920Y66694D01*
X529868Y66700D01*
X529798Y66684D01*
X529726Y66679D01*
X529679Y66658D01*
X529628Y66647D01*
X529566Y66611D01*
X529500Y66582D01*
X529444Y66538D01*
X529417Y66521D01*
X529401Y66503D01*
X529369Y66478D01*
X529003Y66111D01*
X512397Y66111D01*
X510611Y67897D01*
X510611Y79866D01*
X510597Y79956D01*
X510589Y80047D01*
X510577Y80077D01*
X510572Y80109D01*
X510529Y80189D01*
X510493Y80273D01*
X510467Y80305D01*
X510456Y80326D01*
X510433Y80348D01*
X510388Y80404D01*
X508022Y82771D01*
X507948Y82824D01*
X507878Y82883D01*
X507848Y82896D01*
X507822Y82914D01*
X507735Y82941D01*
X507650Y82975D01*
X507609Y82980D01*
X507587Y82987D01*
X507555Y82986D01*
X507483Y82994D01*
X506150Y82994D01*
X506130Y82991D01*
X506111Y82993D01*
X506009Y82971D01*
X505907Y82954D01*
X505890Y82945D01*
X505870Y82940D01*
X505781Y82887D01*
X505690Y82839D01*
X505676Y82825D01*
X505659Y82814D01*
X505592Y82736D01*
X505520Y82661D01*
X505512Y82643D01*
X505499Y82627D01*
X505460Y82531D01*
X505417Y82438D01*
X505415Y82418D01*
X505407Y82399D01*
X505389Y82233D01*
X505389Y67897D01*
X503603Y66111D01*
X491634Y66111D01*
X491544Y66097D01*
X491453Y66089D01*
X491423Y66077D01*
X491391Y66072D01*
X491311Y66029D01*
X491227Y65993D01*
X491195Y65967D01*
X491174Y65956D01*
X491152Y65933D01*
X491096Y65888D01*
X485976Y60769D01*
X434774Y60769D01*
X428955Y66587D01*
X428939Y66599D01*
X428927Y66614D01*
X428840Y66670D01*
X428756Y66731D01*
X428736Y66737D01*
X428720Y66747D01*
X428619Y66773D01*
X428520Y66803D01*
X428501Y66803D01*
X428481Y66807D01*
X428378Y66799D01*
X428275Y66797D01*
X428256Y66790D01*
X428236Y66788D01*
X428141Y66748D01*
X428044Y66712D01*
X428028Y66700D01*
X428010Y66692D01*
X427879Y66587D01*
X427403Y66111D01*
X410797Y66111D01*
X409011Y67897D01*
X409011Y84503D01*
X410797Y86289D01*
X420116Y86289D01*
X420187Y86300D01*
X420258Y86302D01*
X420307Y86320D01*
X420359Y86328D01*
X420422Y86362D01*
X420489Y86387D01*
X420530Y86419D01*
X420576Y86444D01*
X420625Y86496D01*
X420681Y86540D01*
X420710Y86584D01*
X420745Y86622D01*
X420776Y86687D01*
X420814Y86747D01*
X420827Y86798D01*
X420849Y86845D01*
X420857Y86916D01*
X420874Y86986D01*
X420870Y87038D01*
X420876Y87089D01*
X420861Y87160D01*
X420855Y87231D01*
X420835Y87279D01*
X420824Y87330D01*
X420787Y87391D01*
X420759Y87457D01*
X420714Y87513D01*
X420698Y87541D01*
X420680Y87556D01*
X420654Y87588D01*
X411184Y97058D01*
X411110Y97111D01*
X411041Y97171D01*
X411011Y97183D01*
X410984Y97202D01*
X410897Y97229D01*
X410813Y97263D01*
X410772Y97267D01*
X410749Y97274D01*
X410717Y97273D01*
X410646Y97281D01*
X382152Y97281D01*
X382081Y97270D01*
X382009Y97268D01*
X381960Y97250D01*
X381909Y97242D01*
X381846Y97208D01*
X381778Y97183D01*
X381738Y97151D01*
X381692Y97126D01*
X381642Y97074D01*
X381586Y97030D01*
X381558Y96986D01*
X381522Y96948D01*
X381492Y96883D01*
X381453Y96823D01*
X381440Y96772D01*
X381419Y96725D01*
X381411Y96654D01*
X381393Y96584D01*
X381397Y96532D01*
X381391Y96481D01*
X381407Y96410D01*
X381412Y96339D01*
X381433Y96291D01*
X381444Y96240D01*
X381481Y96179D01*
X381509Y96113D01*
X381553Y96057D01*
X381570Y96029D01*
X381588Y96014D01*
X381613Y95982D01*
X391083Y86512D01*
X391157Y86459D01*
X391227Y86399D01*
X391257Y86387D01*
X391283Y86368D01*
X391370Y86341D01*
X391455Y86307D01*
X391496Y86303D01*
X391518Y86296D01*
X391550Y86297D01*
X391622Y86289D01*
X402003Y86289D01*
X403789Y84503D01*
X403789Y67897D01*
X402003Y66111D01*
X392684Y66111D01*
X392613Y66100D01*
X392542Y66098D01*
X392493Y66080D01*
X392441Y66072D01*
X392378Y66038D01*
X392311Y66013D01*
X392270Y65981D01*
X392224Y65956D01*
X392175Y65904D01*
X392119Y65860D01*
X392090Y65816D01*
X392055Y65778D01*
X392024Y65713D01*
X391986Y65653D01*
X391973Y65602D01*
X391951Y65555D01*
X391943Y65484D01*
X391926Y65414D01*
X391930Y65362D01*
X391924Y65311D01*
X391939Y65240D01*
X391945Y65169D01*
X391965Y65121D01*
X391976Y65070D01*
X392013Y65009D01*
X392041Y64943D01*
X392086Y64887D01*
X392102Y64859D01*
X392120Y64844D01*
X392146Y64812D01*
X404791Y52167D01*
X404865Y52114D01*
X404934Y52054D01*
X404964Y52042D01*
X404991Y52023D01*
X405078Y51996D01*
X405162Y51962D01*
X405203Y51958D01*
X405226Y51951D01*
X405258Y51952D01*
X405329Y51944D01*
X474864Y51944D01*
X491096Y35712D01*
X491170Y35659D01*
X491239Y35599D01*
X491269Y35587D01*
X491296Y35568D01*
X491383Y35541D01*
X491467Y35507D01*
X491508Y35503D01*
X491531Y35496D01*
X491563Y35497D01*
X491634Y35489D01*
X503603Y35489D01*
X505389Y33703D01*
X505389Y17097D01*
X503603Y15311D01*
X486997Y15311D01*
X485211Y17097D01*
X485211Y29066D01*
X485197Y29156D01*
X485189Y29247D01*
X485177Y29277D01*
X485172Y29309D01*
X485129Y29389D01*
X485093Y29473D01*
X485067Y29505D01*
X485056Y29526D01*
X485033Y29548D01*
X484988Y29604D01*
X481288Y33304D01*
X481230Y33346D01*
X481178Y33395D01*
X481131Y33417D01*
X481089Y33448D01*
X481020Y33469D01*
X480955Y33499D01*
X480903Y33505D01*
X480853Y33520D01*
X480782Y33518D01*
X480711Y33526D01*
X480660Y33515D01*
X480608Y33514D01*
X480540Y33489D01*
X480470Y33474D01*
X480426Y33447D01*
X480377Y33429D01*
X480321Y33384D01*
X480259Y33348D01*
X480225Y33308D01*
X480185Y33276D01*
X480146Y33215D01*
X480099Y33161D01*
X480080Y33112D01*
X480052Y33069D01*
X480034Y32999D01*
X480007Y32933D01*
X479999Y32861D01*
X479991Y32830D01*
X479993Y32807D01*
X479989Y32766D01*
X479989Y17097D01*
X478203Y15311D01*
X466234Y15311D01*
X466144Y15297D01*
X466053Y15289D01*
X466023Y15277D01*
X465991Y15272D01*
X465911Y15229D01*
X465827Y15193D01*
X465795Y15167D01*
X465774Y15156D01*
X465752Y15133D01*
X465696Y15088D01*
X456988Y6380D01*
X456946Y6322D01*
X456897Y6270D01*
X456875Y6223D01*
X456844Y6181D01*
X456823Y6112D01*
X456793Y6047D01*
X456787Y5995D01*
X456772Y5945D01*
X456774Y5874D01*
X456766Y5803D01*
X456777Y5752D01*
X456778Y5700D01*
X456803Y5632D01*
X456818Y5562D01*
X456845Y5517D01*
X456863Y5469D01*
X456908Y5413D01*
X456944Y5351D01*
X456984Y5317D01*
X457016Y5277D01*
X457077Y5238D01*
X457131Y5191D01*
X457180Y5172D01*
X457223Y5144D01*
X457293Y5126D01*
X457359Y5099D01*
X457431Y5091D01*
X457462Y5083D01*
X457485Y5085D01*
X457526Y5081D01*
X679958Y5081D01*
X679978Y5084D01*
X679997Y5082D01*
X680099Y5104D01*
X680201Y5120D01*
X680218Y5130D01*
X680238Y5134D01*
X680327Y5187D01*
X680418Y5236D01*
X680432Y5250D01*
X680449Y5260D01*
X680516Y5339D01*
X680588Y5414D01*
X680596Y5432D01*
X680609Y5447D01*
X680648Y5543D01*
X680691Y5637D01*
X680693Y5657D01*
X680701Y5675D01*
X680719Y5842D01*
X680719Y227346D01*
X680704Y227442D01*
X680694Y227539D01*
X680684Y227563D01*
X680680Y227589D01*
X680634Y227675D01*
X680594Y227764D01*
X680577Y227783D01*
X680564Y227806D01*
X680494Y227873D01*
X680428Y227945D01*
X680405Y227958D01*
X680386Y227976D01*
X680298Y228017D01*
X680212Y228064D01*
X680187Y228068D01*
X680163Y228079D01*
X680066Y228090D01*
X679970Y228107D01*
X679944Y228104D01*
X679919Y228106D01*
X679823Y228086D01*
X679727Y228072D01*
X679704Y228060D01*
X679678Y228054D01*
X679595Y228004D01*
X679508Y227960D01*
X679489Y227941D01*
X679467Y227928D01*
X679404Y227854D01*
X679336Y227784D01*
X679320Y227756D01*
X679307Y227741D01*
X679295Y227710D01*
X679255Y227637D01*
X678404Y225583D01*
X676117Y223296D01*
X673129Y222059D01*
X669896Y222059D01*
X666908Y223296D01*
X664621Y225583D01*
X663384Y228571D01*
X663384Y231893D01*
X663369Y231983D01*
X663362Y232074D01*
X663349Y232104D01*
X663344Y232136D01*
X663301Y232217D01*
X663266Y232301D01*
X663240Y232333D01*
X663229Y232353D01*
X663206Y232376D01*
X663161Y232432D01*
X652556Y243036D01*
X652498Y243078D01*
X652446Y243127D01*
X652399Y243149D01*
X652357Y243180D01*
X652288Y243201D01*
X652223Y243231D01*
X652171Y243237D01*
X652121Y243252D01*
X652050Y243250D01*
X651979Y243258D01*
X651928Y243247D01*
X651876Y243246D01*
X651808Y243221D01*
X651738Y243206D01*
X651693Y243179D01*
X651645Y243161D01*
X651589Y243116D01*
X651527Y243080D01*
X651493Y243040D01*
X651453Y243008D01*
X651414Y242947D01*
X651367Y242893D01*
X651348Y242844D01*
X651320Y242801D01*
X651302Y242731D01*
X651275Y242665D01*
X651267Y242593D01*
X651259Y242562D01*
X651261Y242539D01*
X651257Y242498D01*
X651257Y239380D01*
X649787Y235832D01*
X647072Y233117D01*
X643524Y231647D01*
X626476Y231647D01*
X622928Y233117D01*
X620213Y235832D01*
X618743Y239380D01*
X618743Y243220D01*
X620213Y246768D01*
X622928Y249483D01*
X626476Y250953D01*
X642802Y250953D01*
X642873Y250964D01*
X642944Y250966D01*
X642993Y250984D01*
X643045Y250992D01*
X643108Y251026D01*
X643175Y251051D01*
X643216Y251083D01*
X643262Y251108D01*
X643311Y251160D01*
X643367Y251204D01*
X643396Y251248D01*
X643431Y251286D01*
X643462Y251351D01*
X643500Y251411D01*
X643513Y251462D01*
X643535Y251509D01*
X643543Y251580D01*
X643560Y251650D01*
X643556Y251702D01*
X643562Y251753D01*
X643547Y251824D01*
X643541Y251895D01*
X643521Y251943D01*
X643510Y251994D01*
X643473Y252055D01*
X643445Y252121D01*
X643400Y252177D01*
X643384Y252205D01*
X643374Y252213D01*
X643372Y252217D01*
X643362Y252225D01*
X643340Y252252D01*
X638768Y256824D01*
X638694Y256877D01*
X638625Y256937D01*
X638595Y256949D01*
X638568Y256968D01*
X638481Y256995D01*
X638397Y257029D01*
X638356Y257033D01*
X638333Y257040D01*
X638301Y257039D01*
X638230Y257047D01*
X626476Y257047D01*
X622928Y258517D01*
X620213Y261232D01*
X618743Y264780D01*
X618743Y268620D01*
X620213Y272168D01*
X622928Y274883D01*
X626476Y276353D01*
X642802Y276353D01*
X642873Y276364D01*
X642944Y276366D01*
X642993Y276384D01*
X643045Y276392D01*
X643108Y276426D01*
X643175Y276451D01*
X643216Y276483D01*
X643262Y276508D01*
X643311Y276560D01*
X643367Y276604D01*
X643396Y276648D01*
X643431Y276686D01*
X643462Y276751D01*
X643500Y276811D01*
X643513Y276862D01*
X643535Y276909D01*
X643543Y276980D01*
X643560Y277050D01*
X643556Y277102D01*
X643562Y277153D01*
X643547Y277224D01*
X643541Y277295D01*
X643521Y277343D01*
X643510Y277394D01*
X643473Y277455D01*
X643445Y277521D01*
X643400Y277577D01*
X643384Y277605D01*
X643366Y277620D01*
X643340Y277652D01*
X638768Y282224D01*
X638694Y282277D01*
X638625Y282337D01*
X638595Y282349D01*
X638568Y282368D01*
X638481Y282395D01*
X638397Y282429D01*
X638356Y282433D01*
X638333Y282440D01*
X638301Y282439D01*
X638230Y282447D01*
X626476Y282447D01*
X622928Y283917D01*
X620213Y286632D01*
X618743Y290180D01*
X618743Y294020D01*
X620213Y297568D01*
X622928Y300283D01*
X626476Y301753D01*
X643524Y301753D01*
X647072Y300283D01*
X649787Y297568D01*
X651257Y294020D01*
X651257Y290180D01*
X649787Y286632D01*
X648720Y285565D01*
X648708Y285548D01*
X648692Y285536D01*
X648636Y285449D01*
X648576Y285365D01*
X648570Y285346D01*
X648559Y285329D01*
X648534Y285229D01*
X648504Y285130D01*
X648504Y285110D01*
X648499Y285091D01*
X648507Y284988D01*
X648510Y284884D01*
X648517Y284865D01*
X648518Y284845D01*
X648559Y284750D01*
X648594Y284653D01*
X648607Y284637D01*
X648615Y284619D01*
X648720Y284488D01*
X659743Y273464D01*
X659817Y273411D01*
X659887Y273352D01*
X659917Y273339D01*
X659943Y273321D01*
X660030Y273294D01*
X660115Y273260D01*
X660156Y273255D01*
X660178Y273248D01*
X660210Y273249D01*
X660282Y273241D01*
X663604Y273241D01*
X666592Y272004D01*
X668879Y269717D01*
X670116Y266729D01*
X670116Y263496D01*
X668879Y260508D01*
X666592Y258221D01*
X663604Y256984D01*
X660371Y256984D01*
X657383Y258221D01*
X655096Y260508D01*
X653859Y263496D01*
X653859Y266818D01*
X653844Y266908D01*
X653837Y266999D01*
X653824Y267029D01*
X653819Y267061D01*
X653776Y267141D01*
X653741Y267226D01*
X653715Y267258D01*
X653704Y267278D01*
X653681Y267301D01*
X653636Y267357D01*
X652556Y268436D01*
X652498Y268478D01*
X652446Y268527D01*
X652399Y268549D01*
X652357Y268580D01*
X652288Y268601D01*
X652223Y268631D01*
X652171Y268637D01*
X652121Y268652D01*
X652050Y268650D01*
X651979Y268658D01*
X651928Y268647D01*
X651876Y268646D01*
X651808Y268621D01*
X651738Y268606D01*
X651693Y268579D01*
X651645Y268561D01*
X651589Y268516D01*
X651527Y268480D01*
X651493Y268440D01*
X651453Y268408D01*
X651414Y268347D01*
X651367Y268293D01*
X651348Y268244D01*
X651320Y268201D01*
X651302Y268131D01*
X651275Y268065D01*
X651267Y267993D01*
X651259Y267962D01*
X651261Y267939D01*
X651257Y267898D01*
X651257Y264780D01*
X649787Y261232D01*
X648720Y260165D01*
X648708Y260148D01*
X648692Y260136D01*
X648636Y260049D01*
X648576Y259965D01*
X648570Y259946D01*
X648559Y259929D01*
X648534Y259829D01*
X648504Y259730D01*
X648504Y259710D01*
X648499Y259691D01*
X648507Y259588D01*
X648510Y259484D01*
X648517Y259465D01*
X648518Y259445D01*
X648559Y259350D01*
X648594Y259253D01*
X648607Y259237D01*
X648615Y259219D01*
X648720Y259088D01*
X669268Y238539D01*
X669342Y238486D01*
X669412Y238427D01*
X669442Y238414D01*
X669468Y238396D01*
X669555Y238369D01*
X669640Y238335D01*
X669681Y238330D01*
X669703Y238323D01*
X669735Y238324D01*
X669807Y238316D01*
X673129Y238316D01*
X676117Y237079D01*
X678404Y234792D01*
X679255Y232738D01*
X679306Y232654D01*
X679352Y232569D01*
X679370Y232551D01*
X679384Y232528D01*
X679460Y232466D01*
X679530Y232399D01*
X679554Y232388D01*
X679574Y232372D01*
X679665Y232337D01*
X679753Y232296D01*
X679779Y232293D01*
X679803Y232283D01*
X679901Y232279D01*
X679997Y232269D01*
X680023Y232274D01*
X680049Y232273D01*
X680143Y232300D01*
X680238Y232321D01*
X680260Y232334D01*
X680285Y232342D01*
X680365Y232397D01*
X680449Y232447D01*
X680466Y232467D01*
X680487Y232482D01*
X680546Y232560D01*
X680609Y232634D01*
X680619Y232658D01*
X680634Y232679D01*
X680664Y232772D01*
X680701Y232862D01*
X680704Y232895D01*
X680710Y232913D01*
X680710Y232946D01*
X680719Y233029D01*
X680719Y438658D01*
X680716Y438678D01*
X680718Y438697D01*
X680696Y438799D01*
X680680Y438901D01*
X680670Y438918D01*
X680666Y438938D01*
X680613Y439027D01*
X680564Y439118D01*
X680550Y439132D01*
X680540Y439149D01*
X680461Y439216D01*
X680386Y439288D01*
X680368Y439296D01*
X680353Y439309D01*
X680257Y439348D01*
X680163Y439391D01*
X680143Y439393D01*
X680125Y439401D01*
X679958Y439419D01*
X577365Y439419D01*
X577294Y439408D01*
X577223Y439406D01*
X577174Y439388D01*
X577122Y439380D01*
X577059Y439346D01*
X576992Y439321D01*
X576951Y439289D01*
X576905Y439264D01*
X576855Y439212D01*
X576799Y439168D01*
X576771Y439124D01*
X576735Y439086D01*
X576705Y439021D01*
X576666Y438961D01*
X576654Y438910D01*
X576632Y438863D01*
X576624Y438792D01*
X576606Y438722D01*
X576610Y438670D01*
X576605Y438619D01*
X576620Y438548D01*
X576626Y438477D01*
X576646Y438429D01*
X576657Y438378D01*
X576694Y438317D01*
X576722Y438251D01*
X576767Y438195D01*
X576783Y438167D01*
X576801Y438152D01*
X576827Y438120D01*
X577637Y437309D01*
X588511Y426436D01*
X588585Y426383D01*
X588654Y426323D01*
X588684Y426311D01*
X588710Y426292D01*
X588797Y426265D01*
X588882Y426231D01*
X588923Y426227D01*
X588946Y426220D01*
X588978Y426221D01*
X589049Y426213D01*
X621542Y426213D01*
X621632Y426227D01*
X621723Y426235D01*
X621753Y426247D01*
X621785Y426252D01*
X621866Y426295D01*
X621950Y426331D01*
X621982Y426357D01*
X622003Y426368D01*
X622025Y426391D01*
X622081Y426436D01*
X622928Y427283D01*
X626476Y428753D01*
X643524Y428753D01*
X647072Y427283D01*
X649787Y424568D01*
X651257Y421020D01*
X651257Y417180D01*
X649787Y413632D01*
X647072Y410917D01*
X643524Y409447D01*
X626476Y409447D01*
X622928Y410917D01*
X622081Y411764D01*
X622007Y411817D01*
X621937Y411877D01*
X621907Y411889D01*
X621881Y411908D01*
X621794Y411935D01*
X621709Y411969D01*
X621668Y411973D01*
X621646Y411980D01*
X621614Y411979D01*
X621542Y411987D01*
X584373Y411987D01*
X581758Y413070D01*
X576356Y418472D01*
X576298Y418514D01*
X576246Y418564D01*
X576199Y418585D01*
X576157Y418616D01*
X576088Y418637D01*
X576023Y418667D01*
X575971Y418673D01*
X575921Y418688D01*
X575850Y418686D01*
X575779Y418694D01*
X575728Y418683D01*
X575676Y418682D01*
X575608Y418657D01*
X575538Y418642D01*
X575493Y418615D01*
X575445Y418597D01*
X575389Y418553D01*
X575327Y418516D01*
X575293Y418476D01*
X575253Y418444D01*
X575214Y418383D01*
X575167Y418329D01*
X575148Y418281D01*
X575120Y418237D01*
X575102Y418167D01*
X575075Y418101D01*
X575067Y418029D01*
X575059Y417998D01*
X575061Y417975D01*
X575057Y417934D01*
X575057Y417180D01*
X573587Y413632D01*
X570872Y410917D01*
X567324Y409447D01*
X550276Y409447D01*
X546728Y410917D01*
X544013Y413632D01*
X542543Y417180D01*
X542543Y417934D01*
X542532Y418005D01*
X542530Y418076D01*
X542512Y418125D01*
X542504Y418177D01*
X542470Y418240D01*
X542445Y418308D01*
X542413Y418348D01*
X542388Y418394D01*
X542336Y418444D01*
X542292Y418500D01*
X542248Y418528D01*
X542210Y418564D01*
X542145Y418594D01*
X542085Y418633D01*
X542034Y418645D01*
X541987Y418667D01*
X541916Y418675D01*
X541846Y418693D01*
X541794Y418689D01*
X541743Y418694D01*
X541672Y418679D01*
X541601Y418673D01*
X541553Y418653D01*
X541502Y418642D01*
X541441Y418605D01*
X541375Y418577D01*
X541319Y418532D01*
X541291Y418516D01*
X541276Y418498D01*
X541244Y418472D01*
X540736Y417964D01*
X540682Y417890D01*
X540623Y417821D01*
X540611Y417791D01*
X540592Y417765D01*
X540565Y417677D01*
X540531Y417593D01*
X540527Y417552D01*
X540520Y417529D01*
X540521Y417497D01*
X540513Y417426D01*
X540513Y413254D01*
X540527Y413164D01*
X540535Y413073D01*
X540547Y413043D01*
X540552Y413011D01*
X540595Y412930D01*
X540631Y412846D01*
X540657Y412814D01*
X540668Y412793D01*
X540691Y412771D01*
X540736Y412715D01*
X543053Y410398D01*
X543053Y402402D01*
X537398Y396747D01*
X529402Y396747D01*
X523747Y402402D01*
X523747Y410398D01*
X526064Y412715D01*
X526117Y412789D01*
X526177Y412859D01*
X526189Y412889D01*
X526208Y412915D01*
X526235Y413002D01*
X526269Y413087D01*
X526273Y413128D01*
X526280Y413150D01*
X526279Y413182D01*
X526287Y413254D01*
X526287Y422102D01*
X527370Y424717D01*
X529478Y426824D01*
X540773Y438120D01*
X540815Y438178D01*
X540865Y438230D01*
X540886Y438277D01*
X540917Y438319D01*
X540938Y438388D01*
X540968Y438453D01*
X540974Y438505D01*
X540989Y438555D01*
X540987Y438626D01*
X540995Y438697D01*
X540984Y438748D01*
X540983Y438800D01*
X540958Y438868D01*
X540943Y438938D01*
X540916Y438983D01*
X540898Y439031D01*
X540854Y439087D01*
X540817Y439149D01*
X540777Y439183D01*
X540745Y439223D01*
X540684Y439262D01*
X540630Y439309D01*
X540582Y439328D01*
X540538Y439356D01*
X540468Y439374D01*
X540402Y439401D01*
X540330Y439409D01*
X540299Y439417D01*
X540276Y439415D01*
X540235Y439419D01*
X5842Y439419D01*
X5822Y439416D01*
X5803Y439418D01*
X5701Y439396D01*
X5599Y439380D01*
X5582Y439370D01*
X5562Y439366D01*
X5473Y439313D01*
X5382Y439264D01*
X5368Y439250D01*
X5351Y439240D01*
X5284Y439161D01*
X5212Y439086D01*
X5204Y439068D01*
X5191Y439053D01*
X5152Y438957D01*
X5109Y438863D01*
X5107Y438843D01*
X5099Y438825D01*
X5081Y438658D01*
X5081Y5842D01*
X5084Y5822D01*
X5082Y5803D01*
X5104Y5701D01*
X5120Y5599D01*
X5130Y5582D01*
X5134Y5562D01*
X5187Y5473D01*
X5236Y5382D01*
X5250Y5368D01*
X5260Y5351D01*
X5339Y5284D01*
X5414Y5212D01*
X5432Y5204D01*
X5447Y5191D01*
X5543Y5152D01*
X5637Y5109D01*
X5657Y5107D01*
X5675Y5099D01*
X5842Y5081D01*
X310824Y5081D01*
X310895Y5092D01*
G37*
%LPC*%
G36*
X21402Y345947D02*
X21402Y345947D01*
X15747Y351602D01*
X15747Y359598D01*
X20858Y364709D01*
X20911Y364783D01*
X20971Y364853D01*
X20983Y364883D01*
X21002Y364909D01*
X21029Y364996D01*
X21063Y365081D01*
X21067Y365122D01*
X21074Y365144D01*
X21073Y365176D01*
X21081Y365248D01*
X21081Y395489D01*
X27716Y402124D01*
X27769Y402198D01*
X27829Y402267D01*
X27841Y402297D01*
X27860Y402324D01*
X27887Y402411D01*
X27921Y402495D01*
X27925Y402536D01*
X27932Y402559D01*
X27931Y402591D01*
X27939Y402662D01*
X27939Y415533D01*
X29486Y419268D01*
X32344Y422126D01*
X36079Y423673D01*
X40121Y423673D01*
X43856Y422126D01*
X46714Y419268D01*
X48261Y415533D01*
X48261Y397267D01*
X46714Y393532D01*
X43856Y390674D01*
X40121Y389127D01*
X36079Y389127D01*
X32344Y390674D01*
X31018Y392000D01*
X30960Y392042D01*
X30908Y392092D01*
X30861Y392113D01*
X30819Y392144D01*
X30750Y392165D01*
X30685Y392195D01*
X30633Y392201D01*
X30583Y392216D01*
X30512Y392214D01*
X30441Y392222D01*
X30390Y392211D01*
X30338Y392210D01*
X30270Y392185D01*
X30200Y392170D01*
X30155Y392143D01*
X30107Y392125D01*
X30051Y392081D01*
X29989Y392044D01*
X29955Y392004D01*
X29915Y391972D01*
X29876Y391911D01*
X29829Y391857D01*
X29810Y391809D01*
X29782Y391765D01*
X29764Y391695D01*
X29737Y391629D01*
X29729Y391557D01*
X29721Y391526D01*
X29723Y391503D01*
X29719Y391462D01*
X29719Y365248D01*
X29733Y365158D01*
X29741Y365067D01*
X29753Y365037D01*
X29758Y365005D01*
X29801Y364924D01*
X29837Y364840D01*
X29863Y364808D01*
X29874Y364787D01*
X29897Y364765D01*
X29942Y364709D01*
X35053Y359598D01*
X35053Y351602D01*
X29398Y345947D01*
X21402Y345947D01*
G37*
%LPD*%
%LPC*%
G36*
X175779Y389127D02*
X175779Y389127D01*
X172044Y390674D01*
X169186Y393532D01*
X167639Y397267D01*
X167639Y415533D01*
X169186Y419268D01*
X172044Y422126D01*
X175779Y423673D01*
X179821Y423673D01*
X183556Y422126D01*
X186414Y419268D01*
X187961Y415533D01*
X187961Y411480D01*
X187964Y411460D01*
X187962Y411441D01*
X187984Y411339D01*
X188000Y411237D01*
X188010Y411220D01*
X188014Y411200D01*
X188067Y411111D01*
X188116Y411020D01*
X188130Y411006D01*
X188140Y410989D01*
X188219Y410922D01*
X188294Y410850D01*
X188312Y410842D01*
X188327Y410829D01*
X188423Y410790D01*
X188517Y410747D01*
X188537Y410745D01*
X188555Y410737D01*
X188722Y410719D01*
X205233Y410719D01*
X205323Y410733D01*
X205414Y410741D01*
X205443Y410753D01*
X205475Y410758D01*
X205556Y410801D01*
X205640Y410837D01*
X205672Y410863D01*
X205693Y410874D01*
X205715Y410897D01*
X205771Y410942D01*
X208120Y413291D01*
X211108Y414529D01*
X214342Y414529D01*
X217330Y413291D01*
X219616Y411005D01*
X220854Y408017D01*
X220854Y404783D01*
X219616Y401795D01*
X217330Y399509D01*
X214342Y398271D01*
X211108Y398271D01*
X208120Y399509D01*
X205771Y401858D01*
X205697Y401911D01*
X205628Y401971D01*
X205597Y401983D01*
X205571Y402002D01*
X205484Y402029D01*
X205399Y402063D01*
X205358Y402067D01*
X205336Y402074D01*
X205304Y402073D01*
X205233Y402081D01*
X188722Y402081D01*
X188702Y402078D01*
X188683Y402080D01*
X188581Y402058D01*
X188479Y402042D01*
X188462Y402032D01*
X188442Y402028D01*
X188353Y401975D01*
X188262Y401926D01*
X188248Y401912D01*
X188231Y401902D01*
X188164Y401823D01*
X188092Y401748D01*
X188084Y401730D01*
X188071Y401715D01*
X188032Y401619D01*
X187989Y401525D01*
X187987Y401505D01*
X187979Y401487D01*
X187961Y401320D01*
X187961Y397267D01*
X186414Y393532D01*
X183556Y390674D01*
X179821Y389127D01*
X175779Y389127D01*
G37*
%LPD*%
%LPC*%
G36*
X655981Y306831D02*
X655981Y306831D01*
X650822Y311990D01*
X650806Y312002D01*
X650793Y312017D01*
X650706Y312074D01*
X650622Y312134D01*
X650603Y312140D01*
X650586Y312150D01*
X650486Y312176D01*
X650387Y312206D01*
X650367Y312206D01*
X650348Y312211D01*
X650245Y312203D01*
X650141Y312200D01*
X650122Y312193D01*
X650103Y312191D01*
X650008Y312151D01*
X649910Y312115D01*
X649895Y312103D01*
X649876Y312095D01*
X649745Y311990D01*
X647072Y309317D01*
X643524Y307847D01*
X626476Y307847D01*
X622928Y309317D01*
X620213Y312032D01*
X618743Y315580D01*
X618743Y319420D01*
X620213Y322968D01*
X622928Y325683D01*
X626476Y327153D01*
X643524Y327153D01*
X647072Y325683D01*
X649745Y323010D01*
X649761Y322998D01*
X649774Y322983D01*
X649861Y322926D01*
X649945Y322866D01*
X649964Y322860D01*
X649981Y322850D01*
X650081Y322824D01*
X650180Y322794D01*
X650200Y322794D01*
X650219Y322789D01*
X650322Y322797D01*
X650426Y322800D01*
X650445Y322807D01*
X650465Y322809D01*
X650559Y322849D01*
X650657Y322885D01*
X650673Y322897D01*
X650691Y322905D01*
X650822Y323010D01*
X655981Y328169D01*
X664819Y328169D01*
X671069Y321919D01*
X671069Y313081D01*
X664819Y306831D01*
X655981Y306831D01*
G37*
%LPD*%
G36*
X580856Y85601D02*
X580856Y85601D01*
X580959Y85603D01*
X580978Y85610D01*
X580998Y85612D01*
X581093Y85652D01*
X581190Y85688D01*
X581206Y85700D01*
X581224Y85708D01*
X581355Y85813D01*
X582833Y87291D01*
X582886Y87365D01*
X582946Y87434D01*
X582958Y87464D01*
X582977Y87491D01*
X583004Y87578D01*
X583038Y87662D01*
X583042Y87703D01*
X583049Y87726D01*
X583048Y87758D01*
X583056Y87829D01*
X583056Y93819D01*
X583049Y93864D01*
X583051Y93910D01*
X583029Y93985D01*
X583017Y94061D01*
X582995Y94102D01*
X582982Y94146D01*
X582938Y94210D01*
X582901Y94279D01*
X582868Y94310D01*
X582842Y94348D01*
X582779Y94395D01*
X582723Y94448D01*
X582681Y94468D01*
X582645Y94495D01*
X582571Y94519D01*
X582500Y94552D01*
X582454Y94557D01*
X582411Y94571D01*
X582333Y94570D01*
X582256Y94579D01*
X582211Y94569D01*
X582165Y94569D01*
X582033Y94531D01*
X582015Y94527D01*
X582011Y94524D01*
X582004Y94522D01*
X579467Y93471D01*
X576233Y93471D01*
X573245Y94709D01*
X570959Y96995D01*
X569721Y99983D01*
X569721Y103217D01*
X570959Y106205D01*
X573308Y108554D01*
X573361Y108628D01*
X573421Y108697D01*
X573433Y108728D01*
X573452Y108754D01*
X573479Y108841D01*
X573513Y108926D01*
X573517Y108967D01*
X573524Y108989D01*
X573523Y109021D01*
X573531Y109092D01*
X573531Y133057D01*
X573520Y133128D01*
X573518Y133199D01*
X573500Y133248D01*
X573492Y133300D01*
X573458Y133363D01*
X573433Y133430D01*
X573401Y133471D01*
X573376Y133517D01*
X573324Y133566D01*
X573280Y133622D01*
X573236Y133650D01*
X573198Y133686D01*
X573133Y133717D01*
X573073Y133755D01*
X573022Y133768D01*
X572975Y133790D01*
X572904Y133798D01*
X572834Y133815D01*
X572782Y133811D01*
X572731Y133817D01*
X572660Y133802D01*
X572589Y133796D01*
X572541Y133776D01*
X572490Y133765D01*
X572429Y133728D01*
X572363Y133700D01*
X572307Y133655D01*
X572279Y133639D01*
X572264Y133621D01*
X572232Y133595D01*
X571234Y132597D01*
X569736Y131596D01*
X568071Y130907D01*
X566305Y130555D01*
X560323Y130555D01*
X560323Y138938D01*
X560320Y138958D01*
X560322Y138977D01*
X560300Y139079D01*
X560283Y139181D01*
X560274Y139198D01*
X560270Y139218D01*
X560217Y139307D01*
X560168Y139398D01*
X560154Y139412D01*
X560144Y139429D01*
X560065Y139496D01*
X559990Y139567D01*
X559972Y139576D01*
X559957Y139589D01*
X559861Y139627D01*
X559767Y139671D01*
X559747Y139673D01*
X559729Y139681D01*
X559562Y139699D01*
X558038Y139699D01*
X558018Y139696D01*
X557999Y139698D01*
X557897Y139676D01*
X557795Y139659D01*
X557778Y139650D01*
X557758Y139646D01*
X557669Y139593D01*
X557578Y139544D01*
X557564Y139530D01*
X557547Y139520D01*
X557480Y139441D01*
X557409Y139366D01*
X557400Y139348D01*
X557387Y139333D01*
X557348Y139237D01*
X557305Y139143D01*
X557303Y139123D01*
X557295Y139105D01*
X557277Y138938D01*
X557277Y130555D01*
X553665Y130555D01*
X553594Y130544D01*
X553523Y130542D01*
X553474Y130524D01*
X553422Y130516D01*
X553359Y130482D01*
X553292Y130457D01*
X553251Y130425D01*
X553205Y130400D01*
X553156Y130348D01*
X553100Y130304D01*
X553071Y130260D01*
X553036Y130222D01*
X553005Y130157D01*
X552967Y130097D01*
X552954Y130046D01*
X552932Y129999D01*
X552924Y129928D01*
X552907Y129858D01*
X552911Y129806D01*
X552905Y129755D01*
X552920Y129684D01*
X552926Y129613D01*
X552946Y129565D01*
X552957Y129514D01*
X552994Y129453D01*
X553022Y129387D01*
X553067Y129331D01*
X553083Y129303D01*
X553101Y129288D01*
X553127Y129256D01*
X561531Y120851D01*
X561531Y86461D01*
X561543Y86390D01*
X561545Y86318D01*
X561563Y86269D01*
X561571Y86218D01*
X561604Y86155D01*
X561629Y86087D01*
X561662Y86046D01*
X561686Y86000D01*
X561738Y85951D01*
X561783Y85895D01*
X561827Y85867D01*
X561864Y85831D01*
X561930Y85801D01*
X561990Y85762D01*
X562040Y85749D01*
X562087Y85727D01*
X562159Y85720D01*
X562228Y85702D01*
X562280Y85706D01*
X562332Y85700D01*
X562402Y85716D01*
X562474Y85721D01*
X562521Y85742D01*
X562572Y85753D01*
X562634Y85789D01*
X562700Y85818D01*
X562756Y85862D01*
X562783Y85879D01*
X562799Y85897D01*
X562831Y85922D01*
X563197Y86289D01*
X579803Y86289D01*
X580279Y85813D01*
X580295Y85801D01*
X580307Y85786D01*
X580394Y85730D01*
X580478Y85669D01*
X580497Y85663D01*
X580514Y85653D01*
X580615Y85627D01*
X580714Y85597D01*
X580733Y85597D01*
X580753Y85593D01*
X580856Y85601D01*
G37*
%LPC*%
G36*
X150379Y389127D02*
X150379Y389127D01*
X146644Y390674D01*
X143786Y393532D01*
X142239Y397267D01*
X142239Y415533D01*
X143786Y419268D01*
X146644Y422126D01*
X150379Y423673D01*
X154421Y423673D01*
X158156Y422126D01*
X161014Y419268D01*
X162561Y415533D01*
X162561Y397267D01*
X161014Y393532D01*
X158156Y390674D01*
X154421Y389127D01*
X150379Y389127D01*
G37*
%LPD*%
%LPC*%
G36*
X251979Y389127D02*
X251979Y389127D01*
X248244Y390674D01*
X245386Y393532D01*
X243839Y397267D01*
X243839Y415533D01*
X245386Y419268D01*
X248244Y422126D01*
X251979Y423673D01*
X256021Y423673D01*
X259756Y422126D01*
X262614Y419268D01*
X264161Y415533D01*
X264161Y397267D01*
X262614Y393532D01*
X259756Y390674D01*
X256021Y389127D01*
X251979Y389127D01*
G37*
%LPD*%
%LPC*%
G36*
X626476Y206247D02*
X626476Y206247D01*
X622928Y207717D01*
X620213Y210432D01*
X618743Y213980D01*
X618743Y217820D01*
X620213Y221368D01*
X622928Y224083D01*
X626476Y225553D01*
X643524Y225553D01*
X647072Y224083D01*
X649787Y221368D01*
X651257Y217820D01*
X651257Y213980D01*
X649787Y210432D01*
X647072Y207717D01*
X643524Y206247D01*
X626476Y206247D01*
G37*
%LPD*%
%LPC*%
G36*
X550276Y384047D02*
X550276Y384047D01*
X546728Y385517D01*
X544013Y388232D01*
X542543Y391780D01*
X542543Y395620D01*
X544013Y399168D01*
X546728Y401883D01*
X550276Y403353D01*
X567324Y403353D01*
X570872Y401883D01*
X573587Y399168D01*
X575057Y395620D01*
X575057Y391780D01*
X573587Y388232D01*
X570872Y385517D01*
X567324Y384047D01*
X550276Y384047D01*
G37*
%LPD*%
%LPC*%
G36*
X550276Y358647D02*
X550276Y358647D01*
X546728Y360117D01*
X544013Y362832D01*
X542543Y366380D01*
X542543Y370220D01*
X544013Y373768D01*
X546728Y376483D01*
X550276Y377953D01*
X567324Y377953D01*
X570872Y376483D01*
X573587Y373768D01*
X575057Y370220D01*
X575057Y366380D01*
X573587Y362832D01*
X570872Y360117D01*
X567324Y358647D01*
X550276Y358647D01*
G37*
%LPD*%
%LPC*%
G36*
X80597Y15311D02*
X80597Y15311D01*
X78811Y17097D01*
X78811Y33703D01*
X80597Y35489D01*
X97203Y35489D01*
X98989Y33703D01*
X98989Y17097D01*
X97203Y15311D01*
X80597Y15311D01*
G37*
%LPD*%
%LPC*%
G36*
X55197Y15311D02*
X55197Y15311D01*
X53411Y17097D01*
X53411Y33703D01*
X55197Y35489D01*
X71803Y35489D01*
X73589Y33703D01*
X73589Y17097D01*
X71803Y15311D01*
X55197Y15311D01*
G37*
%LPD*%
%LPC*%
G36*
X131397Y15311D02*
X131397Y15311D01*
X129611Y17097D01*
X129611Y33703D01*
X131397Y35489D01*
X148003Y35489D01*
X149789Y33703D01*
X149789Y17097D01*
X148003Y15311D01*
X131397Y15311D01*
G37*
%LPD*%
%LPC*%
G36*
X80597Y66111D02*
X80597Y66111D01*
X78811Y67897D01*
X78811Y84503D01*
X80597Y86289D01*
X97203Y86289D01*
X98989Y84503D01*
X98989Y67897D01*
X97203Y66111D01*
X80597Y66111D01*
G37*
%LPD*%
%LPC*%
G36*
X105997Y15311D02*
X105997Y15311D01*
X104211Y17097D01*
X104211Y33703D01*
X105997Y35489D01*
X122603Y35489D01*
X124389Y33703D01*
X124389Y17097D01*
X122603Y15311D01*
X105997Y15311D01*
G37*
%LPD*%
%LPC*%
G36*
X258397Y15311D02*
X258397Y15311D01*
X256611Y17097D01*
X256611Y33703D01*
X258397Y35489D01*
X275003Y35489D01*
X276789Y33703D01*
X276789Y17097D01*
X275003Y15311D01*
X258397Y15311D01*
G37*
%LPD*%
G36*
X559582Y139704D02*
X559582Y139704D01*
X559601Y139702D01*
X559703Y139724D01*
X559805Y139741D01*
X559822Y139750D01*
X559842Y139754D01*
X559931Y139807D01*
X560022Y139856D01*
X560036Y139870D01*
X560053Y139880D01*
X560120Y139959D01*
X560191Y140034D01*
X560200Y140052D01*
X560213Y140067D01*
X560252Y140163D01*
X560295Y140257D01*
X560297Y140277D01*
X560305Y140295D01*
X560323Y140462D01*
X560323Y148845D01*
X566305Y148845D01*
X568071Y148493D01*
X569736Y147804D01*
X571234Y146803D01*
X572232Y145805D01*
X572290Y145763D01*
X572342Y145714D01*
X572389Y145692D01*
X572431Y145661D01*
X572500Y145640D01*
X572565Y145610D01*
X572617Y145604D01*
X572667Y145589D01*
X572738Y145591D01*
X572809Y145583D01*
X572860Y145594D01*
X572912Y145595D01*
X572980Y145620D01*
X573050Y145635D01*
X573095Y145662D01*
X573143Y145680D01*
X573199Y145725D01*
X573261Y145761D01*
X573295Y145801D01*
X573335Y145833D01*
X573374Y145894D01*
X573421Y145948D01*
X573440Y145997D01*
X573468Y146040D01*
X573486Y146110D01*
X573513Y146176D01*
X573521Y146248D01*
X573529Y146279D01*
X573527Y146302D01*
X573531Y146343D01*
X573531Y157738D01*
X573520Y157809D01*
X573518Y157881D01*
X573500Y157930D01*
X573492Y157981D01*
X573458Y158045D01*
X573433Y158112D01*
X573401Y158153D01*
X573376Y158199D01*
X573324Y158248D01*
X573280Y158304D01*
X573236Y158332D01*
X573198Y158368D01*
X573133Y158398D01*
X573073Y158437D01*
X573022Y158450D01*
X572975Y158472D01*
X572904Y158479D01*
X572834Y158497D01*
X572782Y158493D01*
X572731Y158499D01*
X572660Y158483D01*
X572589Y158478D01*
X572541Y158458D01*
X572490Y158446D01*
X572429Y158410D01*
X572363Y158382D01*
X572307Y158337D01*
X572279Y158320D01*
X572264Y158302D01*
X572232Y158277D01*
X570872Y156917D01*
X567324Y155447D01*
X550276Y155447D01*
X546728Y156917D01*
X545368Y158277D01*
X545310Y158319D01*
X545258Y158368D01*
X545211Y158390D01*
X545169Y158420D01*
X545100Y158441D01*
X545035Y158472D01*
X544983Y158477D01*
X544933Y158493D01*
X544862Y158491D01*
X544791Y158499D01*
X544740Y158488D01*
X544688Y158486D01*
X544620Y158462D01*
X544550Y158446D01*
X544505Y158420D01*
X544457Y158402D01*
X544401Y158357D01*
X544339Y158320D01*
X544305Y158281D01*
X544265Y158248D01*
X544226Y158188D01*
X544179Y158133D01*
X544160Y158085D01*
X544132Y158041D01*
X544114Y157972D01*
X544087Y157905D01*
X544079Y157834D01*
X544071Y157803D01*
X544073Y157779D01*
X544069Y157738D01*
X544069Y146343D01*
X544080Y146272D01*
X544082Y146201D01*
X544100Y146152D01*
X544108Y146100D01*
X544142Y146037D01*
X544167Y145970D01*
X544199Y145929D01*
X544224Y145883D01*
X544276Y145834D01*
X544320Y145778D01*
X544364Y145750D01*
X544402Y145714D01*
X544467Y145683D01*
X544527Y145645D01*
X544578Y145632D01*
X544625Y145610D01*
X544696Y145602D01*
X544766Y145585D01*
X544818Y145589D01*
X544869Y145583D01*
X544940Y145598D01*
X545011Y145604D01*
X545059Y145624D01*
X545110Y145635D01*
X545171Y145672D01*
X545237Y145700D01*
X545293Y145745D01*
X545321Y145761D01*
X545336Y145779D01*
X545368Y145805D01*
X546366Y146803D01*
X547864Y147804D01*
X549529Y148493D01*
X551295Y148845D01*
X557277Y148845D01*
X557277Y140462D01*
X557280Y140442D01*
X557278Y140423D01*
X557300Y140321D01*
X557317Y140219D01*
X557326Y140202D01*
X557330Y140182D01*
X557383Y140093D01*
X557432Y140002D01*
X557446Y139988D01*
X557456Y139971D01*
X557535Y139904D01*
X557610Y139833D01*
X557628Y139824D01*
X557643Y139811D01*
X557739Y139773D01*
X557833Y139729D01*
X557853Y139727D01*
X557871Y139719D01*
X558038Y139701D01*
X559562Y139701D01*
X559582Y139704D01*
G37*
G36*
X441123Y118163D02*
X441123Y118163D01*
X441201Y118170D01*
X441242Y118189D01*
X441287Y118198D01*
X441354Y118238D01*
X441425Y118270D01*
X441459Y118301D01*
X441498Y118324D01*
X441549Y118384D01*
X441606Y118436D01*
X441629Y118477D01*
X441658Y118511D01*
X441687Y118584D01*
X441725Y118652D01*
X441733Y118697D01*
X441750Y118740D01*
X441765Y118875D01*
X441769Y118894D01*
X441768Y118899D01*
X441769Y118906D01*
X441769Y129439D01*
X441753Y129535D01*
X441744Y129632D01*
X441733Y129656D01*
X441729Y129682D01*
X441684Y129768D01*
X441644Y129857D01*
X441626Y129876D01*
X441614Y129900D01*
X441543Y129966D01*
X441477Y130038D01*
X441455Y130051D01*
X441436Y130069D01*
X441347Y130110D01*
X441262Y130157D01*
X441236Y130162D01*
X441213Y130173D01*
X441116Y130183D01*
X441020Y130201D01*
X440994Y130197D01*
X440968Y130200D01*
X440873Y130179D01*
X440777Y130165D01*
X440753Y130153D01*
X440728Y130147D01*
X440644Y130097D01*
X440557Y130053D01*
X440539Y130035D01*
X440517Y130021D01*
X440453Y129947D01*
X440385Y129878D01*
X440369Y129849D01*
X440357Y129834D01*
X440344Y129803D01*
X440304Y129731D01*
X439904Y128764D01*
X438903Y127266D01*
X437630Y125993D01*
X436132Y124992D01*
X434467Y124303D01*
X433323Y124075D01*
X433323Y138938D01*
X433320Y138958D01*
X433322Y138977D01*
X433300Y139079D01*
X433283Y139181D01*
X433274Y139198D01*
X433270Y139218D01*
X433217Y139307D01*
X433168Y139398D01*
X433154Y139412D01*
X433144Y139429D01*
X433065Y139496D01*
X432990Y139567D01*
X432972Y139576D01*
X432957Y139589D01*
X432861Y139627D01*
X432767Y139671D01*
X432747Y139673D01*
X432729Y139681D01*
X432562Y139699D01*
X431038Y139699D01*
X431018Y139696D01*
X430999Y139698D01*
X430897Y139676D01*
X430795Y139659D01*
X430778Y139650D01*
X430758Y139646D01*
X430669Y139593D01*
X430578Y139544D01*
X430564Y139530D01*
X430547Y139520D01*
X430480Y139441D01*
X430409Y139366D01*
X430400Y139348D01*
X430387Y139333D01*
X430348Y139237D01*
X430305Y139143D01*
X430303Y139123D01*
X430295Y139105D01*
X430277Y138938D01*
X430277Y123834D01*
X430280Y123815D01*
X430278Y123796D01*
X430293Y123727D01*
X430299Y123653D01*
X430311Y123623D01*
X430317Y123591D01*
X430327Y123572D01*
X430330Y123556D01*
X430364Y123499D01*
X430395Y123426D01*
X430421Y123394D01*
X430432Y123374D01*
X430449Y123357D01*
X430456Y123345D01*
X430469Y123334D01*
X430500Y123295D01*
X434318Y119477D01*
X434392Y119424D01*
X434462Y119364D01*
X434492Y119352D01*
X434518Y119333D01*
X434605Y119306D01*
X434690Y119272D01*
X434731Y119268D01*
X434753Y119261D01*
X434785Y119262D01*
X434857Y119254D01*
X438179Y119254D01*
X440716Y118203D01*
X440761Y118192D01*
X440803Y118173D01*
X440880Y118165D01*
X440956Y118147D01*
X441001Y118151D01*
X441047Y118146D01*
X441123Y118163D01*
G37*
%LPC*%
G36*
X65023Y407923D02*
X65023Y407923D01*
X65023Y423044D01*
X65760Y422927D01*
X67205Y422458D01*
X68559Y421768D01*
X69788Y420875D01*
X70863Y419800D01*
X71756Y418571D01*
X72446Y417217D01*
X72915Y415772D01*
X73153Y414272D01*
X73153Y407923D01*
X65023Y407923D01*
G37*
%LPD*%
%LPC*%
G36*
X65023Y404877D02*
X65023Y404877D01*
X73153Y404877D01*
X73153Y398528D01*
X72915Y397028D01*
X72446Y395583D01*
X71756Y394229D01*
X70863Y393000D01*
X69788Y391925D01*
X68559Y391032D01*
X67205Y390342D01*
X65760Y389873D01*
X65023Y389756D01*
X65023Y404877D01*
G37*
%LPD*%
%LPC*%
G36*
X53847Y407923D02*
X53847Y407923D01*
X53847Y414272D01*
X54085Y415772D01*
X54554Y417217D01*
X55244Y418571D01*
X56137Y419800D01*
X57212Y420875D01*
X58441Y421768D01*
X59795Y422458D01*
X61240Y422927D01*
X61977Y423044D01*
X61977Y407923D01*
X53847Y407923D01*
G37*
%LPD*%
%LPC*%
G36*
X61240Y389873D02*
X61240Y389873D01*
X59795Y390342D01*
X58441Y391032D01*
X57212Y391925D01*
X56137Y393000D01*
X55244Y394229D01*
X54554Y395583D01*
X54085Y397028D01*
X53847Y398528D01*
X53847Y404877D01*
X61977Y404877D01*
X61977Y389756D01*
X61240Y389873D01*
G37*
%LPD*%
%LPC*%
G36*
X65023Y77723D02*
X65023Y77723D01*
X65023Y85781D01*
X70874Y85781D01*
X71521Y85608D01*
X72100Y85273D01*
X72573Y84800D01*
X72908Y84221D01*
X73081Y83574D01*
X73081Y77723D01*
X65023Y77723D01*
G37*
%LPD*%
%LPC*%
G36*
X39623Y77723D02*
X39623Y77723D01*
X39623Y85781D01*
X45474Y85781D01*
X46121Y85608D01*
X46700Y85273D01*
X47173Y84800D01*
X47508Y84221D01*
X47681Y83574D01*
X47681Y77723D01*
X39623Y77723D01*
G37*
%LPD*%
%LPC*%
G36*
X39623Y26923D02*
X39623Y26923D01*
X39623Y34981D01*
X45474Y34981D01*
X46121Y34808D01*
X46700Y34473D01*
X47173Y34000D01*
X47508Y33421D01*
X47681Y32774D01*
X47681Y26923D01*
X39623Y26923D01*
G37*
%LPD*%
%LPC*%
G36*
X28519Y77723D02*
X28519Y77723D01*
X28519Y83574D01*
X28692Y84221D01*
X29027Y84800D01*
X29500Y85273D01*
X30079Y85608D01*
X30726Y85781D01*
X36577Y85781D01*
X36577Y77723D01*
X28519Y77723D01*
G37*
%LPD*%
%LPC*%
G36*
X53919Y77723D02*
X53919Y77723D01*
X53919Y83574D01*
X54092Y84221D01*
X54427Y84800D01*
X54900Y85273D01*
X55479Y85608D01*
X56126Y85781D01*
X61977Y85781D01*
X61977Y77723D01*
X53919Y77723D01*
G37*
%LPD*%
%LPC*%
G36*
X28519Y26923D02*
X28519Y26923D01*
X28519Y32774D01*
X28692Y33421D01*
X29027Y34000D01*
X29500Y34473D01*
X30079Y34808D01*
X30726Y34981D01*
X36577Y34981D01*
X36577Y26923D01*
X28519Y26923D01*
G37*
%LPD*%
%LPC*%
G36*
X65023Y66619D02*
X65023Y66619D01*
X65023Y74677D01*
X73081Y74677D01*
X73081Y68826D01*
X72908Y68179D01*
X72573Y67600D01*
X72100Y67127D01*
X71521Y66792D01*
X70874Y66619D01*
X65023Y66619D01*
G37*
%LPD*%
%LPC*%
G36*
X39623Y66619D02*
X39623Y66619D01*
X39623Y74677D01*
X47681Y74677D01*
X47681Y68826D01*
X47508Y68179D01*
X47173Y67600D01*
X46700Y67127D01*
X46121Y66792D01*
X45474Y66619D01*
X39623Y66619D01*
G37*
%LPD*%
%LPC*%
G36*
X39623Y15819D02*
X39623Y15819D01*
X39623Y23877D01*
X47681Y23877D01*
X47681Y18026D01*
X47508Y17379D01*
X47173Y16800D01*
X46700Y16327D01*
X46121Y15992D01*
X45474Y15819D01*
X39623Y15819D01*
G37*
%LPD*%
%LPC*%
G36*
X30726Y15819D02*
X30726Y15819D01*
X30079Y15992D01*
X29500Y16327D01*
X29027Y16800D01*
X28692Y17379D01*
X28519Y18026D01*
X28519Y23877D01*
X36577Y23877D01*
X36577Y15819D01*
X30726Y15819D01*
G37*
%LPD*%
%LPC*%
G36*
X56126Y66619D02*
X56126Y66619D01*
X55479Y66792D01*
X54900Y67127D01*
X54427Y67600D01*
X54092Y68179D01*
X53919Y68826D01*
X53919Y74677D01*
X61977Y74677D01*
X61977Y66619D01*
X56126Y66619D01*
G37*
%LPD*%
%LPC*%
G36*
X30726Y66619D02*
X30726Y66619D01*
X30079Y66792D01*
X29500Y67127D01*
X29027Y67600D01*
X28692Y68179D01*
X28519Y68826D01*
X28519Y74677D01*
X36577Y74677D01*
X36577Y66619D01*
X30726Y66619D01*
G37*
%LPD*%
%LPC*%
G36*
X446023Y395223D02*
X446023Y395223D01*
X446023Y404242D01*
X448867Y404242D01*
X455042Y398067D01*
X455042Y395223D01*
X446023Y395223D01*
G37*
%LPD*%
%LPC*%
G36*
X433958Y395223D02*
X433958Y395223D01*
X433958Y398067D01*
X440133Y404242D01*
X442977Y404242D01*
X442977Y395223D01*
X433958Y395223D01*
G37*
%LPD*%
%LPC*%
G36*
X446023Y383158D02*
X446023Y383158D01*
X446023Y392177D01*
X455042Y392177D01*
X455042Y389333D01*
X448867Y383158D01*
X446023Y383158D01*
G37*
%LPD*%
%LPC*%
G36*
X440133Y383158D02*
X440133Y383158D01*
X433958Y389333D01*
X433958Y392177D01*
X442977Y392177D01*
X442977Y383158D01*
X440133Y383158D01*
G37*
%LPD*%
%LPC*%
G36*
X534923Y382523D02*
X534923Y382523D01*
X534923Y390145D01*
X537188Y390145D01*
X542545Y384788D01*
X542545Y382523D01*
X534923Y382523D01*
G37*
%LPD*%
%LPC*%
G36*
X331723Y357123D02*
X331723Y357123D01*
X331723Y364745D01*
X333988Y364745D01*
X339345Y359388D01*
X339345Y357123D01*
X331723Y357123D01*
G37*
%LPD*%
%LPC*%
G36*
X230123Y331723D02*
X230123Y331723D01*
X230123Y339345D01*
X232388Y339345D01*
X237745Y333988D01*
X237745Y331723D01*
X230123Y331723D01*
G37*
%LPD*%
%LPC*%
G36*
X26923Y268223D02*
X26923Y268223D01*
X26923Y275845D01*
X29188Y275845D01*
X34545Y270488D01*
X34545Y268223D01*
X26923Y268223D01*
G37*
%LPD*%
%LPC*%
G36*
X321055Y357123D02*
X321055Y357123D01*
X321055Y359388D01*
X326412Y364745D01*
X328677Y364745D01*
X328677Y357123D01*
X321055Y357123D01*
G37*
%LPD*%
%LPC*%
G36*
X219455Y331723D02*
X219455Y331723D01*
X219455Y333988D01*
X224812Y339345D01*
X227077Y339345D01*
X227077Y331723D01*
X219455Y331723D01*
G37*
%LPD*%
%LPC*%
G36*
X331723Y346455D02*
X331723Y346455D01*
X331723Y354077D01*
X339345Y354077D01*
X339345Y351812D01*
X333988Y346455D01*
X331723Y346455D01*
G37*
%LPD*%
%LPC*%
G36*
X534923Y371855D02*
X534923Y371855D01*
X534923Y379477D01*
X542545Y379477D01*
X542545Y377212D01*
X537188Y371855D01*
X534923Y371855D01*
G37*
%LPD*%
%LPC*%
G36*
X524255Y382523D02*
X524255Y382523D01*
X524255Y384788D01*
X529612Y390145D01*
X531877Y390145D01*
X531877Y382523D01*
X524255Y382523D01*
G37*
%LPD*%
%LPC*%
G36*
X16255Y268223D02*
X16255Y268223D01*
X16255Y270488D01*
X21612Y275845D01*
X23877Y275845D01*
X23877Y268223D01*
X16255Y268223D01*
G37*
%LPD*%
%LPC*%
G36*
X26923Y257555D02*
X26923Y257555D01*
X26923Y265177D01*
X34545Y265177D01*
X34545Y262912D01*
X29188Y257555D01*
X26923Y257555D01*
G37*
%LPD*%
%LPC*%
G36*
X529612Y371855D02*
X529612Y371855D01*
X524255Y377212D01*
X524255Y379477D01*
X531877Y379477D01*
X531877Y371855D01*
X529612Y371855D01*
G37*
%LPD*%
%LPC*%
G36*
X21612Y257555D02*
X21612Y257555D01*
X16255Y262912D01*
X16255Y265177D01*
X23877Y265177D01*
X23877Y257555D01*
X21612Y257555D01*
G37*
%LPD*%
%LPC*%
G36*
X326412Y346455D02*
X326412Y346455D01*
X321055Y351812D01*
X321055Y354077D01*
X328677Y354077D01*
X328677Y346455D01*
X326412Y346455D01*
G37*
%LPD*%
%LPC*%
G36*
X330199Y355599D02*
X330199Y355599D01*
X330199Y355601D01*
X330201Y355601D01*
X330201Y355599D01*
X330199Y355599D01*
G37*
%LPD*%
%LPC*%
G36*
X63499Y76199D02*
X63499Y76199D01*
X63499Y76201D01*
X63501Y76201D01*
X63501Y76199D01*
X63499Y76199D01*
G37*
%LPD*%
%LPC*%
G36*
X533399Y380999D02*
X533399Y380999D01*
X533399Y381001D01*
X533401Y381001D01*
X533401Y380999D01*
X533399Y380999D01*
G37*
%LPD*%
%LPC*%
G36*
X63499Y406399D02*
X63499Y406399D01*
X63499Y406401D01*
X63501Y406401D01*
X63501Y406399D01*
X63499Y406399D01*
G37*
%LPD*%
%LPC*%
G36*
X444499Y393699D02*
X444499Y393699D01*
X444499Y393701D01*
X444501Y393701D01*
X444501Y393699D01*
X444499Y393699D01*
G37*
%LPD*%
%LPC*%
G36*
X25399Y266699D02*
X25399Y266699D01*
X25399Y266701D01*
X25401Y266701D01*
X25401Y266699D01*
X25399Y266699D01*
G37*
%LPD*%
%LPC*%
G36*
X38099Y25399D02*
X38099Y25399D01*
X38099Y25401D01*
X38101Y25401D01*
X38101Y25399D01*
X38099Y25399D01*
G37*
%LPD*%
%LPC*%
G36*
X38099Y76199D02*
X38099Y76199D01*
X38099Y76201D01*
X38101Y76201D01*
X38101Y76199D01*
X38099Y76199D01*
G37*
%LPD*%
D10*
X38100Y25400D03*
X38100Y76200D03*
X63500Y25400D03*
X63500Y76200D03*
X88900Y25400D03*
X88900Y76200D03*
X114300Y25400D03*
X114300Y76200D03*
X139700Y25400D03*
X139700Y76200D03*
X165100Y25400D03*
X165100Y76200D03*
X190500Y25400D03*
X190500Y76200D03*
X215900Y25400D03*
X215900Y76200D03*
X241300Y25400D03*
X241300Y76200D03*
X266700Y25400D03*
X266700Y76200D03*
X292100Y25400D03*
X292100Y76200D03*
X317500Y25400D03*
X317500Y76200D03*
X342900Y25400D03*
X342900Y76200D03*
X368300Y25400D03*
X368300Y76200D03*
X393700Y25400D03*
X393700Y76200D03*
X419100Y25400D03*
X419100Y76200D03*
X444500Y25400D03*
X444500Y76200D03*
X469900Y25400D03*
X469900Y76200D03*
X495300Y25400D03*
X495300Y76200D03*
X520700Y25400D03*
X520700Y76200D03*
X546100Y25400D03*
X546100Y76200D03*
X571500Y25400D03*
X571500Y76200D03*
X596900Y25400D03*
X596900Y76200D03*
X622300Y25400D03*
X622300Y76200D03*
X647700Y25400D03*
X647700Y76200D03*
D11*
X565404Y419100D02*
X552196Y419100D01*
X552196Y393700D02*
X565404Y393700D01*
X565404Y368300D02*
X552196Y368300D01*
X552196Y342900D02*
X565404Y342900D01*
X565404Y317500D02*
X552196Y317500D01*
X552196Y292100D02*
X565404Y292100D01*
X565404Y266700D02*
X552196Y266700D01*
X552196Y241300D02*
X565404Y241300D01*
X565404Y215900D02*
X552196Y215900D01*
X552196Y190500D02*
X565404Y190500D01*
X565404Y165100D02*
X552196Y165100D01*
X552196Y139700D02*
X565404Y139700D01*
X628396Y139700D02*
X641604Y139700D01*
X641604Y165100D02*
X628396Y165100D01*
X628396Y190500D02*
X641604Y190500D01*
X641604Y215900D02*
X628396Y215900D01*
X628396Y241300D02*
X641604Y241300D01*
X641604Y266700D02*
X628396Y266700D01*
X628396Y292100D02*
X641604Y292100D01*
X641604Y317500D02*
X628396Y317500D01*
X628396Y342900D02*
X641604Y342900D01*
X641604Y368300D02*
X628396Y368300D01*
X628396Y393700D02*
X641604Y393700D01*
X641604Y419100D02*
X628396Y419100D01*
X50800Y146304D02*
X50800Y133096D01*
X76200Y133096D02*
X76200Y146304D01*
X203200Y146304D02*
X203200Y133096D01*
X228600Y133096D02*
X228600Y146304D01*
X101600Y146304D02*
X101600Y133096D01*
X127000Y133096D02*
X127000Y146304D01*
X177800Y146304D02*
X177800Y133096D01*
X152400Y133096D02*
X152400Y146304D01*
X254000Y146304D02*
X254000Y133096D01*
X279400Y133096D02*
X279400Y146304D01*
X304800Y146304D02*
X304800Y133096D01*
X330200Y133096D02*
X330200Y146304D01*
X355600Y146304D02*
X355600Y133096D01*
X381000Y133096D02*
X381000Y146304D01*
X406400Y146304D02*
X406400Y133096D01*
X431800Y133096D02*
X431800Y146304D01*
X431800Y285496D02*
X431800Y298704D01*
X406400Y298704D02*
X406400Y285496D01*
X381000Y285496D02*
X381000Y298704D01*
X355600Y298704D02*
X355600Y285496D01*
X330200Y285496D02*
X330200Y298704D01*
X304800Y298704D02*
X304800Y285496D01*
X279400Y285496D02*
X279400Y298704D01*
X254000Y298704D02*
X254000Y285496D01*
X228600Y285496D02*
X228600Y298704D01*
X203200Y298704D02*
X203200Y285496D01*
X177800Y285496D02*
X177800Y298704D01*
X152400Y298704D02*
X152400Y285496D01*
X127000Y285496D02*
X127000Y298704D01*
X101600Y298704D02*
X101600Y285496D01*
X76200Y285496D02*
X76200Y298704D01*
X50800Y298704D02*
X50800Y285496D01*
D12*
X63500Y399288D02*
X63500Y413512D01*
X38100Y413512D02*
X38100Y399288D01*
D13*
X25400Y355600D03*
X101600Y355600D03*
D12*
X279400Y399288D02*
X279400Y413512D01*
X254000Y413512D02*
X254000Y399288D01*
X152400Y399288D02*
X152400Y413512D01*
X177800Y413512D02*
X177800Y399288D01*
D14*
X330200Y355600D03*
X254000Y355600D03*
X228600Y330200D03*
X152400Y330200D03*
D15*
X660400Y342900D03*
X660400Y317500D03*
X127000Y330200D03*
D16*
X25400Y292100D03*
X25400Y266700D03*
X533400Y406400D03*
X533400Y381000D03*
D17*
X444500Y393700D03*
D18*
X419100Y393700D03*
D19*
X334963Y139700D02*
X330200Y139700D01*
X334963Y139700D02*
X373063Y101600D01*
X412750Y101600D01*
X433388Y80963D01*
X433388Y68263D01*
X436563Y65088D01*
X484188Y65088D01*
X495300Y76200D01*
X304800Y136525D02*
X304800Y139700D01*
X304800Y136525D02*
X349250Y92075D01*
X371475Y92075D01*
X382588Y80963D01*
X382588Y68263D01*
X403225Y47625D01*
X473075Y47625D01*
X495300Y25400D01*
X284163Y139700D02*
X279400Y139700D01*
X284163Y139700D02*
X336550Y87313D01*
X357188Y87313D01*
X368300Y76200D01*
X177800Y198438D02*
X177800Y292100D01*
X406400Y206375D02*
X406400Y160338D01*
X420688Y146050D01*
X420688Y127000D01*
X436563Y111125D01*
D20*
X177800Y198438D03*
X406400Y206375D03*
X436563Y111125D03*
D19*
X203200Y265113D02*
X203200Y292100D01*
X490538Y211138D02*
X490538Y136525D01*
X515938Y111125D01*
D20*
X203200Y265113D03*
X490538Y211138D03*
X515938Y111125D03*
D19*
X279400Y187325D02*
X279400Y292100D01*
X298450Y173038D02*
X298450Y166688D01*
X319088Y146050D01*
X319088Y130175D01*
X352425Y96838D01*
X374650Y96838D01*
X393700Y77788D01*
X393700Y76200D01*
D20*
X279400Y187325D03*
X298450Y173038D03*
D19*
X228600Y185738D02*
X228600Y292100D01*
X228600Y185738D02*
X188913Y146050D01*
X188913Y100013D01*
D20*
X188913Y100013D03*
D19*
X190500Y76200D02*
X127000Y139700D01*
X152400Y160338D02*
X152400Y292100D01*
X152400Y160338D02*
X166688Y146050D01*
X166688Y109538D01*
X188913Y87313D01*
X204788Y87313D01*
X215900Y76200D01*
X381000Y139700D02*
X385763Y139700D01*
X438150Y87313D01*
X509588Y87313D01*
X520700Y76200D01*
X212725Y406400D02*
X177800Y406400D01*
X230188Y365125D02*
X257175Y338138D01*
X381000Y338138D01*
X417513Y301625D01*
X417513Y230188D01*
X387350Y200025D01*
X387350Y139700D01*
X381000Y139700D01*
D20*
X212725Y406400D03*
X230188Y365125D03*
D19*
X406400Y139700D02*
X406400Y128588D01*
X442913Y92075D01*
X517525Y92075D01*
X522288Y87313D01*
X528638Y87313D01*
X534988Y80963D01*
X534988Y36513D01*
X546100Y25400D01*
X458788Y279400D02*
X458788Y284163D01*
X458788Y279400D02*
X441325Y261938D01*
X441325Y152400D01*
X446088Y147638D01*
X446088Y101600D01*
D20*
X458788Y284163D03*
X446088Y101600D03*
D19*
X406400Y227013D02*
X406400Y292100D01*
X406400Y227013D02*
X342900Y163513D01*
X342900Y153988D01*
X274638Y100013D02*
X274638Y95250D01*
X292100Y77788D01*
X292100Y76200D01*
D20*
X342900Y153988D03*
X274638Y100013D03*
D19*
X381000Y268288D02*
X381000Y292100D01*
X381000Y268288D02*
X268288Y155575D01*
X268288Y130175D01*
X311150Y87313D01*
X328613Y87313D01*
X339725Y76200D01*
X342900Y76200D01*
X355600Y257175D02*
X355600Y292100D01*
X455613Y250825D02*
X455613Y214313D01*
X450850Y209550D01*
X450850Y163513D01*
X514350Y100013D01*
X522288Y100013D01*
D20*
X355600Y257175D03*
X455613Y250825D03*
X522288Y100013D03*
D19*
X587375Y85725D02*
X587375Y258763D01*
X587375Y85725D02*
X582613Y80963D01*
X582613Y36513D01*
X571500Y25400D01*
D20*
X587375Y258763D03*
D19*
X76200Y292100D02*
X76200Y160338D01*
X90488Y146050D01*
X90488Y120650D01*
X128588Y82550D01*
X128588Y68263D01*
X136525Y60325D01*
X250825Y60325D01*
X266700Y76200D01*
X101600Y133350D02*
X101600Y139700D01*
X101600Y133350D02*
X153988Y80963D01*
X153988Y68263D01*
X157163Y65088D01*
X230188Y65088D01*
X241300Y76200D01*
X165100Y325438D02*
X165100Y338138D01*
X165100Y325438D02*
X138113Y298450D01*
X138113Y176213D01*
X101600Y139700D01*
D20*
X165100Y338138D03*
D19*
X288925Y230188D02*
X288925Y215900D01*
X288925Y230188D02*
X344488Y285750D01*
X344488Y328613D01*
X469900Y136525D02*
X469900Y111125D01*
X469900Y136525D02*
X446088Y160338D01*
X446088Y258763D01*
X530225Y342900D01*
X558800Y342900D01*
D20*
X288925Y215900D03*
X344488Y328613D03*
X469900Y111125D03*
D19*
X558800Y312738D02*
X558800Y317500D01*
X558800Y312738D02*
X460375Y214313D01*
X460375Y206375D01*
X203200Y173038D02*
X203200Y168275D01*
X177800Y142875D01*
X177800Y139700D01*
D20*
X460375Y206375D03*
X203200Y173038D03*
D19*
X376238Y61913D02*
X381000Y61913D01*
X417513Y25400D01*
X419100Y25400D01*
X558800Y287338D02*
X558800Y292100D01*
X558800Y287338D02*
X534988Y263525D01*
X534988Y100013D01*
D20*
X376238Y61913D03*
X534988Y100013D03*
D19*
X228600Y139700D02*
X228600Y166688D01*
X269875Y207963D01*
X269875Y244475D01*
X544513Y55563D02*
X544513Y47625D01*
X544513Y55563D02*
X557213Y68263D01*
X557213Y119063D01*
X539750Y136525D01*
X539750Y247650D01*
X558800Y266700D01*
D20*
X269875Y244475D03*
X544513Y47625D03*
D19*
X254000Y133350D02*
X254000Y139700D01*
X254000Y133350D02*
X306388Y80963D01*
X306388Y17463D01*
X314325Y9525D01*
X454025Y9525D01*
X469900Y25400D01*
X341313Y236538D02*
X341313Y241300D01*
X341313Y236538D02*
X254000Y149225D01*
X254000Y139700D01*
D20*
X341313Y241300D03*
D19*
X558800Y215900D02*
X558800Y211138D01*
X577850Y192088D01*
X577850Y101600D01*
X363538Y46038D02*
X342900Y25400D01*
D20*
X577850Y101600D03*
X363538Y46038D03*
D19*
X438150Y38100D02*
X457200Y38100D01*
X438150Y38100D02*
X430213Y30163D01*
X430213Y17463D01*
X427038Y14288D01*
X334963Y14288D01*
X328613Y20638D01*
X328613Y46038D01*
D20*
X457200Y38100D03*
X328613Y46038D03*
D19*
X590550Y349250D02*
X635000Y393700D01*
D20*
X590550Y349250D03*
D19*
X552450Y331788D02*
X495300Y274638D01*
X552450Y331788D02*
X598488Y331788D01*
X635000Y368300D01*
D20*
X495300Y274638D03*
D19*
X598488Y153988D02*
X635000Y190500D01*
X527050Y25400D02*
X520700Y25400D01*
X527050Y25400D02*
X538163Y14288D01*
X655638Y14288D01*
X658813Y17463D01*
X658813Y161925D01*
X633413Y187325D01*
X635000Y190500D01*
D20*
X598488Y153988D03*
D19*
X661988Y265113D02*
X635000Y292100D01*
D20*
X661988Y265113D03*
D19*
X635000Y266700D02*
X671513Y230188D01*
D20*
X671513Y230188D03*
D19*
X635000Y139700D02*
X596900Y139700D01*
X271463Y90488D02*
X266700Y90488D01*
X271463Y90488D02*
X277813Y84138D01*
X277813Y68263D01*
X246063Y36513D01*
X176213Y36513D01*
X165100Y25400D01*
D20*
X596900Y139700D03*
X266700Y90488D03*
D19*
X25400Y355600D02*
X25400Y393700D01*
X38100Y406400D01*
X300038Y292100D02*
X304800Y292100D01*
X300038Y292100D02*
X273050Y319088D01*
X176213Y319088D01*
D20*
X176213Y319088D03*
D21*
X25400Y266700D02*
X25400Y88900D01*
X38100Y76200D01*
X38100Y25400D01*
X38100Y76200D02*
X63500Y76200D01*
X63500Y350838D02*
X63500Y369888D01*
X63500Y406400D01*
X63500Y350838D02*
X11113Y298450D01*
X11113Y282575D01*
X23813Y269875D01*
X25400Y266700D01*
X441325Y393700D02*
X444500Y393700D01*
X441325Y393700D02*
X403225Y355600D01*
X330200Y355600D01*
X431800Y265113D02*
X431800Y139700D01*
X431800Y265113D02*
X446088Y279400D01*
X446088Y390525D01*
X444500Y393700D01*
X155575Y369888D02*
X63500Y369888D01*
X155575Y369888D02*
X195263Y330200D01*
X228600Y330200D01*
X585788Y419100D02*
X635000Y419100D01*
X585788Y419100D02*
X571500Y433388D01*
X546100Y433388D01*
X533400Y420688D01*
X533400Y406400D01*
X101600Y355600D02*
X88900Y355600D01*
X25400Y292100D01*
X295275Y393700D02*
X419100Y393700D01*
X295275Y393700D02*
X279400Y377825D01*
X165100Y377825D01*
D20*
X165100Y377825D03*
D19*
X104775Y292100D02*
X101600Y292100D01*
X104775Y292100D02*
X141288Y328613D01*
X141288Y339725D01*
D20*
X141288Y339725D03*
D19*
X50800Y269875D02*
X50800Y139700D01*
X50800Y269875D02*
X65088Y284163D01*
X65088Y301625D01*
X93663Y330200D01*
X127000Y330200D01*
M02*
