G04 EAGLE Gerber RS-274X export*
G75*
%MOMM*%
%FSLAX34Y34*%
%LPD*%
%INSilkscreen Top*%
%IPPOS*%
%AMOC8*
5,1,8,0,0,1.08239X$1,22.5*%
G01*
%ADD10C,0.101600*%
%ADD11C,0.127000*%
%ADD12C,0.152400*%
%ADD13C,0.177800*%
%ADD14R,0.381000X0.508000*%
%ADD15C,0.254000*%

G36*
X609665Y37477D02*
X609665Y37477D01*
X609731Y37479D01*
X609774Y37497D01*
X609821Y37505D01*
X609878Y37539D01*
X609938Y37564D01*
X609973Y37595D01*
X610014Y37620D01*
X610056Y37671D01*
X610104Y37715D01*
X610126Y37757D01*
X610155Y37794D01*
X610176Y37856D01*
X610207Y37915D01*
X610215Y37969D01*
X610227Y38006D01*
X610226Y38046D01*
X610234Y38100D01*
X610234Y63500D01*
X610223Y63565D01*
X610221Y63631D01*
X610203Y63674D01*
X610195Y63721D01*
X610161Y63778D01*
X610136Y63838D01*
X610105Y63873D01*
X610080Y63914D01*
X610029Y63956D01*
X609985Y64004D01*
X609943Y64026D01*
X609906Y64055D01*
X609844Y64076D01*
X609785Y64107D01*
X609731Y64115D01*
X609694Y64127D01*
X609654Y64126D01*
X609600Y64134D01*
X584200Y64134D01*
X584135Y64123D01*
X584069Y64121D01*
X584026Y64103D01*
X583979Y64095D01*
X583922Y64061D01*
X583862Y64036D01*
X583827Y64005D01*
X583786Y63980D01*
X583745Y63929D01*
X583696Y63885D01*
X583674Y63843D01*
X583645Y63806D01*
X583624Y63744D01*
X583593Y63685D01*
X583585Y63631D01*
X583573Y63594D01*
X583574Y63566D01*
X583573Y63564D01*
X583573Y63549D01*
X583566Y63500D01*
X583566Y38100D01*
X583577Y38035D01*
X583579Y37969D01*
X583597Y37926D01*
X583605Y37879D01*
X583639Y37822D01*
X583664Y37762D01*
X583695Y37727D01*
X583720Y37686D01*
X583771Y37645D01*
X583815Y37596D01*
X583857Y37574D01*
X583894Y37545D01*
X583956Y37524D01*
X584015Y37493D01*
X584069Y37485D01*
X584106Y37473D01*
X584146Y37474D01*
X584200Y37466D01*
X609600Y37466D01*
X609665Y37477D01*
G37*
G36*
X609665Y5727D02*
X609665Y5727D01*
X609731Y5729D01*
X609774Y5747D01*
X609821Y5755D01*
X609878Y5789D01*
X609938Y5814D01*
X609973Y5845D01*
X610014Y5870D01*
X610056Y5921D01*
X610104Y5965D01*
X610126Y6007D01*
X610155Y6044D01*
X610176Y6106D01*
X610207Y6165D01*
X610215Y6219D01*
X610227Y6256D01*
X610226Y6296D01*
X610234Y6350D01*
X610234Y12700D01*
X610223Y12765D01*
X610221Y12831D01*
X610203Y12874D01*
X610195Y12921D01*
X610161Y12978D01*
X610136Y13038D01*
X610105Y13073D01*
X610080Y13114D01*
X610029Y13156D01*
X609985Y13204D01*
X609943Y13226D01*
X609906Y13255D01*
X609844Y13276D01*
X609785Y13307D01*
X609731Y13315D01*
X609694Y13327D01*
X609654Y13326D01*
X609600Y13334D01*
X584200Y13334D01*
X584135Y13323D01*
X584069Y13321D01*
X584026Y13303D01*
X583979Y13295D01*
X583922Y13261D01*
X583862Y13236D01*
X583827Y13205D01*
X583786Y13180D01*
X583745Y13129D01*
X583696Y13085D01*
X583674Y13043D01*
X583645Y13006D01*
X583624Y12944D01*
X583593Y12885D01*
X583585Y12831D01*
X583573Y12794D01*
X583573Y12787D01*
X583573Y12786D01*
X583574Y12753D01*
X583566Y12700D01*
X583566Y6350D01*
X583577Y6285D01*
X583579Y6219D01*
X583597Y6176D01*
X583605Y6129D01*
X583639Y6072D01*
X583664Y6012D01*
X583695Y5977D01*
X583720Y5936D01*
X583771Y5895D01*
X583815Y5846D01*
X583857Y5824D01*
X583894Y5795D01*
X583956Y5774D01*
X584015Y5743D01*
X584069Y5735D01*
X584106Y5723D01*
X584146Y5724D01*
X584200Y5716D01*
X609600Y5716D01*
X609665Y5727D01*
G37*
G36*
X609665Y88277D02*
X609665Y88277D01*
X609731Y88279D01*
X609774Y88297D01*
X609821Y88305D01*
X609878Y88339D01*
X609938Y88364D01*
X609973Y88395D01*
X610014Y88420D01*
X610056Y88471D01*
X610104Y88515D01*
X610126Y88557D01*
X610155Y88594D01*
X610176Y88656D01*
X610207Y88715D01*
X610215Y88769D01*
X610227Y88806D01*
X610226Y88846D01*
X610234Y88900D01*
X610234Y94615D01*
X610223Y94680D01*
X610221Y94746D01*
X610203Y94789D01*
X610195Y94836D01*
X610161Y94893D01*
X610136Y94953D01*
X610105Y94988D01*
X610080Y95029D01*
X610029Y95071D01*
X609985Y95119D01*
X609943Y95141D01*
X609906Y95170D01*
X609844Y95191D01*
X609785Y95222D01*
X609731Y95230D01*
X609694Y95242D01*
X609654Y95241D01*
X609600Y95249D01*
X584200Y95249D01*
X584135Y95238D01*
X584069Y95236D01*
X584026Y95218D01*
X583979Y95210D01*
X583922Y95176D01*
X583862Y95151D01*
X583827Y95120D01*
X583786Y95095D01*
X583745Y95044D01*
X583696Y95000D01*
X583674Y94958D01*
X583645Y94921D01*
X583624Y94859D01*
X583593Y94800D01*
X583585Y94746D01*
X583573Y94709D01*
X583573Y94703D01*
X583573Y94702D01*
X583574Y94668D01*
X583566Y94615D01*
X583566Y88900D01*
X583577Y88835D01*
X583579Y88769D01*
X583597Y88726D01*
X583605Y88679D01*
X583639Y88622D01*
X583664Y88562D01*
X583695Y88527D01*
X583720Y88486D01*
X583771Y88445D01*
X583815Y88396D01*
X583857Y88374D01*
X583894Y88345D01*
X583956Y88324D01*
X584015Y88293D01*
X584069Y88285D01*
X584106Y88273D01*
X584146Y88274D01*
X584200Y88266D01*
X609600Y88266D01*
X609665Y88277D01*
G37*
D10*
X486493Y165608D02*
X488442Y167557D01*
X488442Y169506D01*
X486493Y171455D01*
X476748Y171455D01*
X476748Y169506D02*
X476748Y173404D01*
X480646Y177302D02*
X486493Y177302D01*
X488442Y179251D01*
X488442Y185098D01*
X480646Y185098D01*
X480646Y188996D02*
X492340Y188996D01*
X480646Y188996D02*
X480646Y194843D01*
X482595Y196792D01*
X486493Y196792D01*
X488442Y194843D01*
X488442Y188996D01*
X480646Y200690D02*
X480646Y202639D01*
X488442Y202639D01*
X488442Y200690D02*
X488442Y204588D01*
X476748Y202639D02*
X474799Y202639D01*
X478697Y210435D02*
X486493Y210435D01*
X488442Y212384D01*
X480646Y212384D02*
X480646Y208486D01*
X488442Y218231D02*
X488442Y222129D01*
X488442Y218231D02*
X486493Y216282D01*
X482595Y216282D01*
X480646Y218231D01*
X480646Y222129D01*
X482595Y224078D01*
X484544Y224078D01*
X484544Y216282D01*
X488442Y227976D02*
X480646Y227976D01*
X484544Y227976D02*
X480646Y231874D01*
X480646Y233823D01*
X482595Y237721D02*
X482595Y245517D01*
X488442Y249415D02*
X476748Y249415D01*
X476748Y255262D01*
X478697Y257211D01*
X482595Y257211D01*
X484544Y255262D01*
X484544Y249415D01*
X484544Y253313D02*
X488442Y257211D01*
X488442Y261109D02*
X480646Y261109D01*
X476748Y265007D01*
X480646Y268905D01*
X488442Y268905D01*
X482595Y268905D02*
X482595Y261109D01*
X488442Y272803D02*
X476748Y272803D01*
X480646Y276701D01*
X476748Y280599D01*
X488442Y280599D01*
X480646Y296191D02*
X488442Y300089D01*
X480646Y303987D01*
X478697Y307885D02*
X486493Y307885D01*
X478697Y307885D02*
X476748Y309834D01*
X476748Y313732D01*
X478697Y315681D01*
X486493Y315681D01*
X488442Y313732D01*
X488442Y309834D01*
X486493Y307885D01*
X478697Y315681D01*
X486493Y319579D02*
X488442Y319579D01*
X486493Y319579D02*
X486493Y321528D01*
X488442Y321528D01*
X488442Y319579D01*
X480646Y325426D02*
X476748Y329324D01*
X488442Y329324D01*
X488442Y325426D02*
X488442Y333222D01*
X499696Y165608D02*
X505543Y165608D01*
X507492Y167557D01*
X505543Y169506D01*
X507492Y171455D01*
X505543Y173404D01*
X499696Y173404D01*
X499696Y177302D02*
X505543Y177302D01*
X507492Y179251D01*
X505543Y181200D01*
X507492Y183149D01*
X505543Y185098D01*
X499696Y185098D01*
X499696Y188996D02*
X505543Y188996D01*
X507492Y190945D01*
X505543Y192894D01*
X507492Y194843D01*
X505543Y196792D01*
X499696Y196792D01*
X505543Y200690D02*
X507492Y200690D01*
X505543Y200690D02*
X505543Y202639D01*
X507492Y202639D01*
X507492Y200690D01*
X507492Y206537D02*
X507492Y212384D01*
X505543Y214333D01*
X503594Y212384D01*
X503594Y208486D01*
X501645Y206537D01*
X499696Y208486D01*
X499696Y214333D01*
X499696Y218231D02*
X507492Y218231D01*
X499696Y218231D02*
X499696Y220180D01*
X501645Y222129D01*
X507492Y222129D01*
X501645Y222129D02*
X499696Y224078D01*
X501645Y226027D01*
X507492Y226027D01*
X507492Y229925D02*
X495798Y229925D01*
X507492Y229925D02*
X507492Y235772D01*
X505543Y237721D01*
X501645Y237721D01*
X499696Y235772D01*
X499696Y229925D01*
X499696Y243568D02*
X499696Y247466D01*
X501645Y249415D01*
X507492Y249415D01*
X507492Y243568D01*
X505543Y241619D01*
X503594Y243568D01*
X503594Y249415D01*
X507492Y253313D02*
X495798Y253313D01*
X503594Y253313D02*
X507492Y259160D01*
X503594Y253313D02*
X499696Y259160D01*
X507492Y265007D02*
X507492Y268905D01*
X507492Y265007D02*
X505543Y263058D01*
X501645Y263058D01*
X499696Y265007D01*
X499696Y268905D01*
X501645Y270854D01*
X503594Y270854D01*
X503594Y263058D01*
X507492Y274752D02*
X499696Y274752D01*
X503594Y274752D02*
X499696Y278650D01*
X499696Y280599D01*
X505543Y284497D02*
X507492Y284497D01*
X505543Y284497D02*
X505543Y286446D01*
X507492Y286446D01*
X507492Y284497D01*
X499696Y292293D02*
X499696Y298140D01*
X499696Y292293D02*
X501645Y290344D01*
X505543Y290344D01*
X507492Y292293D01*
X507492Y298140D01*
X507492Y303987D02*
X507492Y307885D01*
X505543Y309834D01*
X501645Y309834D01*
X499696Y307885D01*
X499696Y303987D01*
X501645Y302038D01*
X505543Y302038D01*
X507492Y303987D01*
X507492Y313732D02*
X499696Y313732D01*
X499696Y315681D01*
X501645Y317630D01*
X507492Y317630D01*
X501645Y317630D02*
X499696Y319579D01*
X501645Y321528D01*
X507492Y321528D01*
D11*
X527050Y38100D02*
X673100Y38100D01*
X527050Y38100D02*
X514350Y38100D01*
X501650Y38100D01*
X488950Y38100D01*
X476250Y38100D01*
X463550Y38100D01*
X450850Y38100D01*
X438150Y38100D01*
X425450Y38100D01*
X412750Y38100D01*
X400050Y38100D01*
X387350Y38100D01*
X374650Y38100D01*
X361950Y38100D01*
X349250Y38100D01*
X336550Y38100D01*
X323850Y38100D01*
X311150Y38100D01*
X298450Y38100D01*
X285750Y38100D01*
X273050Y38100D01*
X260350Y38100D01*
X247650Y38100D01*
X234950Y38100D01*
X222250Y38100D01*
X209550Y38100D01*
X196850Y38100D01*
X184150Y38100D01*
X171450Y38100D01*
X158750Y38100D01*
X146050Y38100D01*
X133350Y38100D01*
X120650Y38100D01*
X107950Y38100D01*
X95250Y38100D01*
X82550Y38100D01*
X69850Y38100D01*
X57150Y38100D01*
X44450Y38100D01*
X31750Y38100D01*
X12700Y38100D01*
X12700Y63500D01*
X31750Y63500D01*
X44450Y63500D01*
X57150Y63500D01*
X69850Y63500D01*
X82550Y63500D01*
X95250Y63500D01*
X107950Y63500D01*
X120650Y63500D01*
X133350Y63500D01*
X146050Y63500D01*
X158750Y63500D01*
X171450Y63500D01*
X184150Y63500D01*
X196850Y63500D01*
X209550Y63500D01*
X222250Y63500D01*
X234950Y63500D01*
X247650Y63500D01*
X260350Y63500D01*
X273050Y63500D01*
X285750Y63500D01*
X298450Y63500D01*
X311150Y63500D01*
X323850Y63500D01*
X336550Y63500D01*
X349250Y63500D01*
X361950Y63500D01*
X374650Y63500D01*
X387350Y63500D01*
X400050Y63500D01*
X412750Y63500D01*
X425450Y63500D01*
X438150Y63500D01*
X450850Y63500D01*
X463550Y63500D01*
X476250Y63500D01*
X488950Y63500D01*
X501650Y63500D01*
X514350Y63500D01*
X527050Y63500D01*
X673100Y63500D01*
X673100Y38100D01*
X527050Y38100D02*
X527050Y19050D01*
X514350Y19050D01*
X514350Y38100D01*
X501650Y38100D02*
X501650Y19050D01*
X488950Y19050D01*
X488950Y38100D01*
X476250Y38100D02*
X476250Y19050D01*
X463550Y19050D01*
X463550Y38100D01*
X450850Y38100D02*
X450850Y19050D01*
X438150Y19050D01*
X438150Y38100D01*
X425450Y38100D02*
X425450Y19050D01*
X412750Y19050D01*
X412750Y38100D01*
X400050Y38100D02*
X400050Y19050D01*
X387350Y19050D01*
X387350Y38100D01*
X374650Y38100D02*
X374650Y19050D01*
X361950Y19050D01*
X361950Y38100D01*
X527050Y63500D02*
X527050Y82550D01*
X514350Y82550D01*
X514350Y63500D01*
X501650Y63500D02*
X501650Y82550D01*
X488950Y82550D01*
X488950Y63500D01*
X476250Y63500D02*
X476250Y82550D01*
X463550Y82550D01*
X463550Y63500D01*
X450850Y63500D02*
X450850Y82550D01*
X438150Y82550D01*
X438150Y63500D01*
X425450Y63500D02*
X425450Y82550D01*
X412750Y82550D01*
X412750Y63500D01*
X400050Y63500D02*
X400050Y82550D01*
X387350Y82550D01*
X387350Y63500D01*
X374650Y63500D02*
X374650Y82550D01*
X361950Y82550D01*
X361950Y63500D01*
X349250Y63500D02*
X349250Y82550D01*
X336550Y82550D01*
X336550Y63500D01*
X323850Y63500D02*
X323850Y82550D01*
X311150Y82550D01*
X311150Y63500D01*
X298450Y63500D02*
X298450Y82550D01*
X285750Y82550D01*
X285750Y63500D01*
X273050Y63500D02*
X273050Y82550D01*
X260350Y82550D01*
X260350Y63500D01*
X247650Y63500D02*
X247650Y82550D01*
X234950Y82550D01*
X234950Y63500D01*
X222250Y63500D02*
X222250Y82550D01*
X209550Y82550D01*
X209550Y63500D01*
X196850Y63500D02*
X196850Y82550D01*
X184150Y82550D01*
X184150Y63500D01*
X171450Y63500D02*
X171450Y82550D01*
X158750Y82550D01*
X158750Y63500D01*
X146050Y63500D02*
X146050Y82550D01*
X133350Y82550D01*
X133350Y63500D01*
X120650Y63500D02*
X120650Y82550D01*
X107950Y82550D01*
X107950Y63500D01*
X95250Y63500D02*
X95250Y82550D01*
X82550Y82550D01*
X82550Y63500D01*
X69850Y63500D02*
X69850Y82550D01*
X57150Y82550D01*
X57150Y63500D01*
X349250Y38100D02*
X349250Y19050D01*
X336550Y19050D01*
X336550Y38100D01*
X323850Y38100D02*
X323850Y19050D01*
X311150Y19050D01*
X311150Y38100D01*
X298450Y38100D02*
X298450Y19050D01*
X285750Y19050D01*
X285750Y38100D01*
X273050Y38100D02*
X273050Y19050D01*
X260350Y19050D01*
X260350Y38100D01*
X247650Y38100D02*
X247650Y19050D01*
X234950Y19050D01*
X234950Y38100D01*
X222250Y38100D02*
X222250Y19050D01*
X209550Y19050D01*
X209550Y38100D01*
X196850Y38100D02*
X196850Y19050D01*
X184150Y19050D01*
X184150Y38100D01*
X171450Y38100D02*
X171450Y19050D01*
X158750Y19050D01*
X158750Y38100D01*
X146050Y38100D02*
X146050Y19050D01*
X133350Y19050D01*
X133350Y38100D01*
X120650Y38100D02*
X120650Y19050D01*
X107950Y19050D01*
X107950Y38100D01*
X95250Y38100D02*
X95250Y19050D01*
X82550Y19050D01*
X82550Y38100D01*
X69850Y38100D02*
X69850Y19050D01*
X57150Y19050D01*
X57150Y38100D01*
X44450Y38100D02*
X44450Y19050D01*
X31750Y19050D01*
X31750Y38100D01*
X44450Y63500D02*
X44450Y82550D01*
X31750Y82550D01*
X31750Y63500D01*
X0Y95250D02*
X0Y6350D01*
X0Y95250D02*
X685800Y95250D01*
X685800Y6350D01*
X0Y6350D01*
D10*
X13198Y9398D02*
X24892Y9398D01*
X13198Y9398D02*
X13198Y15245D01*
X15147Y17194D01*
X17096Y17194D01*
X19045Y15245D01*
X20994Y17194D01*
X22943Y17194D01*
X24892Y15245D01*
X24892Y9398D01*
X19045Y9398D02*
X19045Y15245D01*
X17096Y21092D02*
X13198Y24990D01*
X24892Y24990D01*
X24892Y21092D02*
X24892Y28888D01*
X24892Y70446D02*
X13198Y70446D01*
X13198Y66548D02*
X13198Y74344D01*
X17096Y78242D02*
X13198Y82140D01*
X24892Y82140D01*
X24892Y78242D02*
X24892Y86038D01*
X672592Y21004D02*
X672592Y13208D01*
X664796Y21004D01*
X662847Y21004D01*
X660898Y19055D01*
X660898Y15157D01*
X662847Y13208D01*
X660898Y30749D02*
X672592Y30749D01*
X666745Y24902D02*
X660898Y30749D01*
X666745Y32698D02*
X666745Y24902D01*
X672592Y70358D02*
X672592Y78154D01*
X672592Y70358D02*
X664796Y78154D01*
X662847Y78154D01*
X660898Y76205D01*
X660898Y72307D01*
X662847Y70358D01*
X660898Y87899D02*
X672592Y87899D01*
X666745Y82052D02*
X660898Y87899D01*
X666745Y89848D02*
X666745Y82052D01*
D12*
X590550Y429260D02*
X568960Y429260D01*
X590550Y429260D02*
X590552Y429102D01*
X590558Y428943D01*
X590568Y428785D01*
X590582Y428628D01*
X590599Y428470D01*
X590621Y428314D01*
X590646Y428157D01*
X590676Y428002D01*
X590709Y427847D01*
X590746Y427693D01*
X590787Y427540D01*
X590832Y427388D01*
X590881Y427238D01*
X590933Y427088D01*
X590989Y426940D01*
X591049Y426793D01*
X591112Y426648D01*
X591179Y426505D01*
X591249Y426363D01*
X591323Y426223D01*
X591401Y426085D01*
X591482Y425949D01*
X591566Y425815D01*
X591653Y425683D01*
X591744Y425553D01*
X591838Y425426D01*
X591935Y425301D01*
X592036Y425178D01*
X592139Y425058D01*
X592245Y424941D01*
X592354Y424826D01*
X592466Y424714D01*
X592581Y424605D01*
X592698Y424499D01*
X592818Y424396D01*
X592941Y424295D01*
X593066Y424198D01*
X593193Y424104D01*
X593323Y424013D01*
X593455Y423926D01*
X593589Y423842D01*
X593725Y423761D01*
X593863Y423683D01*
X594003Y423609D01*
X594145Y423539D01*
X594288Y423472D01*
X594433Y423409D01*
X594580Y423349D01*
X594728Y423293D01*
X594878Y423241D01*
X595028Y423192D01*
X595180Y423147D01*
X595333Y423106D01*
X595487Y423069D01*
X595642Y423036D01*
X595797Y423006D01*
X595954Y422981D01*
X596110Y422959D01*
X596268Y422942D01*
X596425Y422928D01*
X596583Y422918D01*
X596742Y422912D01*
X596900Y422910D01*
X597058Y422912D01*
X597217Y422918D01*
X597375Y422928D01*
X597532Y422942D01*
X597690Y422959D01*
X597846Y422981D01*
X598003Y423006D01*
X598158Y423036D01*
X598313Y423069D01*
X598467Y423106D01*
X598620Y423147D01*
X598772Y423192D01*
X598922Y423241D01*
X599072Y423293D01*
X599220Y423349D01*
X599367Y423409D01*
X599512Y423472D01*
X599655Y423539D01*
X599797Y423609D01*
X599937Y423683D01*
X600075Y423761D01*
X600211Y423842D01*
X600345Y423926D01*
X600477Y424013D01*
X600607Y424104D01*
X600734Y424198D01*
X600859Y424295D01*
X600982Y424396D01*
X601102Y424499D01*
X601219Y424605D01*
X601334Y424714D01*
X601446Y424826D01*
X601555Y424941D01*
X601661Y425058D01*
X601764Y425178D01*
X601865Y425301D01*
X601962Y425426D01*
X602056Y425553D01*
X602147Y425683D01*
X602234Y425815D01*
X602318Y425949D01*
X602399Y426085D01*
X602477Y426223D01*
X602551Y426363D01*
X602621Y426505D01*
X602688Y426648D01*
X602751Y426793D01*
X602811Y426940D01*
X602867Y427088D01*
X602919Y427238D01*
X602968Y427388D01*
X603013Y427540D01*
X603054Y427693D01*
X603091Y427847D01*
X603124Y428002D01*
X603154Y428157D01*
X603179Y428314D01*
X603201Y428470D01*
X603218Y428628D01*
X603232Y428785D01*
X603242Y428943D01*
X603248Y429102D01*
X603250Y429260D01*
X624840Y129540D02*
X568960Y129540D01*
X568960Y429260D01*
X624840Y429260D02*
X624840Y129540D01*
X624840Y429260D02*
X603250Y429260D01*
D13*
X605534Y367919D02*
X592187Y367919D01*
X605534Y367919D02*
X608203Y370588D01*
X608203Y375927D01*
X605534Y378596D01*
X592187Y378596D01*
X605534Y384291D02*
X608203Y386960D01*
X608203Y392298D01*
X605534Y394968D01*
X602864Y394968D01*
X600195Y392298D01*
X600195Y386960D01*
X597526Y384291D01*
X594857Y384291D01*
X592187Y386960D01*
X592187Y392298D01*
X594857Y394968D01*
X589518Y389629D02*
X610872Y389629D01*
X608203Y400662D02*
X608203Y411339D01*
X608203Y400662D02*
X597526Y411339D01*
X594857Y411339D01*
X592187Y408670D01*
X592187Y403331D01*
X594857Y400662D01*
X594224Y156936D02*
X604901Y156936D01*
X594224Y156936D02*
X588885Y162275D01*
X594224Y167613D01*
X604901Y167613D01*
X596893Y167613D02*
X596893Y156936D01*
X604901Y178646D02*
X588885Y178646D01*
X588885Y173308D02*
X588885Y183985D01*
X588885Y189679D02*
X604901Y189679D01*
X588885Y189679D02*
X588885Y200357D01*
X596893Y195018D02*
X596893Y189679D01*
X604901Y206051D02*
X604901Y216728D01*
X604901Y206051D02*
X594224Y216728D01*
X591555Y216728D01*
X588885Y214059D01*
X588885Y208720D01*
X591555Y206051D01*
X604901Y222423D02*
X604901Y233100D01*
X604901Y222423D02*
X594224Y233100D01*
X591555Y233100D01*
X588885Y230430D01*
X588885Y225092D01*
X591555Y222423D01*
X588885Y238794D02*
X599562Y238794D01*
X604901Y244133D01*
X599562Y249471D01*
X588885Y249471D01*
X594224Y255166D02*
X588885Y260504D01*
X604901Y260504D01*
X604901Y255166D02*
X604901Y265843D01*
X602232Y271537D02*
X591555Y271537D01*
X588885Y274207D01*
X588885Y279545D01*
X591555Y282214D01*
X602232Y282214D01*
X604901Y279545D01*
X604901Y274207D01*
X602232Y271537D01*
X591555Y282214D01*
D12*
X444500Y283210D02*
X38100Y283210D01*
X38100Y148590D02*
X444500Y148590D01*
X444500Y283210D01*
X38100Y283210D02*
X38100Y226060D01*
X38100Y205740D02*
X38100Y148590D01*
X38100Y205740D02*
X38347Y205743D01*
X38595Y205752D01*
X38842Y205767D01*
X39088Y205788D01*
X39334Y205815D01*
X39579Y205848D01*
X39824Y205887D01*
X40067Y205932D01*
X40309Y205983D01*
X40550Y206040D01*
X40789Y206102D01*
X41027Y206171D01*
X41263Y206245D01*
X41497Y206325D01*
X41729Y206410D01*
X41959Y206502D01*
X42187Y206598D01*
X42412Y206701D01*
X42635Y206808D01*
X42855Y206922D01*
X43072Y207040D01*
X43287Y207164D01*
X43498Y207293D01*
X43706Y207427D01*
X43911Y207566D01*
X44112Y207710D01*
X44310Y207858D01*
X44504Y208012D01*
X44694Y208170D01*
X44880Y208333D01*
X45062Y208500D01*
X45240Y208672D01*
X45414Y208848D01*
X45584Y209028D01*
X45749Y209213D01*
X45909Y209401D01*
X46065Y209593D01*
X46217Y209789D01*
X46363Y209988D01*
X46505Y210191D01*
X46641Y210398D01*
X46773Y210607D01*
X46899Y210820D01*
X47020Y211036D01*
X47136Y211254D01*
X47246Y211476D01*
X47351Y211700D01*
X47451Y211926D01*
X47545Y212155D01*
X47633Y212386D01*
X47716Y212620D01*
X47793Y212855D01*
X47864Y213092D01*
X47930Y213330D01*
X47989Y213570D01*
X48043Y213812D01*
X48091Y214055D01*
X48133Y214298D01*
X48169Y214543D01*
X48199Y214789D01*
X48223Y215035D01*
X48241Y215282D01*
X48253Y215529D01*
X48259Y215776D01*
X48259Y216024D01*
X48253Y216271D01*
X48241Y216518D01*
X48223Y216765D01*
X48199Y217011D01*
X48169Y217257D01*
X48133Y217502D01*
X48091Y217745D01*
X48043Y217988D01*
X47989Y218230D01*
X47930Y218470D01*
X47864Y218708D01*
X47793Y218945D01*
X47716Y219180D01*
X47633Y219414D01*
X47545Y219645D01*
X47451Y219874D01*
X47351Y220100D01*
X47246Y220324D01*
X47136Y220546D01*
X47020Y220764D01*
X46899Y220980D01*
X46773Y221193D01*
X46641Y221402D01*
X46505Y221609D01*
X46363Y221812D01*
X46217Y222011D01*
X46065Y222207D01*
X45909Y222399D01*
X45749Y222587D01*
X45584Y222772D01*
X45414Y222952D01*
X45240Y223128D01*
X45062Y223300D01*
X44880Y223467D01*
X44694Y223630D01*
X44504Y223788D01*
X44310Y223942D01*
X44112Y224090D01*
X43911Y224234D01*
X43706Y224373D01*
X43498Y224507D01*
X43287Y224636D01*
X43072Y224760D01*
X42855Y224878D01*
X42635Y224992D01*
X42412Y225099D01*
X42187Y225202D01*
X41959Y225298D01*
X41729Y225390D01*
X41497Y225475D01*
X41263Y225555D01*
X41027Y225629D01*
X40789Y225698D01*
X40550Y225760D01*
X40309Y225817D01*
X40067Y225868D01*
X39824Y225913D01*
X39579Y225952D01*
X39334Y225985D01*
X39088Y226012D01*
X38842Y226033D01*
X38595Y226048D01*
X38347Y226057D01*
X38100Y226060D01*
X30816Y150622D02*
X17258Y150622D01*
X30816Y150622D02*
X33528Y153334D01*
X33528Y158757D01*
X30816Y161469D01*
X17258Y161469D01*
X30816Y166994D02*
X33528Y169705D01*
X33528Y175129D01*
X30816Y177840D01*
X28105Y177840D01*
X25393Y175129D01*
X25393Y169705D01*
X22681Y166994D01*
X19970Y166994D01*
X17258Y169705D01*
X17258Y175129D01*
X19970Y177840D01*
X14546Y172417D02*
X36240Y172417D01*
X19970Y183365D02*
X17258Y186077D01*
X17258Y191500D01*
X19970Y194212D01*
X22681Y194212D01*
X25393Y191500D01*
X25393Y188788D01*
X25393Y191500D02*
X28105Y194212D01*
X30816Y194212D01*
X33528Y191500D01*
X33528Y186077D01*
X30816Y183365D01*
X73152Y207772D02*
X73152Y218619D01*
X78575Y224042D01*
X83999Y218619D01*
X83999Y207772D01*
X83999Y215907D02*
X73152Y215907D01*
X97659Y224042D02*
X100370Y221330D01*
X97659Y224042D02*
X92235Y224042D01*
X89524Y221330D01*
X89524Y218619D01*
X92235Y215907D01*
X97659Y215907D01*
X100370Y213195D01*
X100370Y210484D01*
X97659Y207772D01*
X92235Y207772D01*
X89524Y210484D01*
X111318Y221330D02*
X116742Y224042D01*
X111318Y221330D02*
X105895Y215907D01*
X105895Y210484D01*
X108607Y207772D01*
X114030Y207772D01*
X116742Y210484D01*
X116742Y213195D01*
X114030Y215907D01*
X105895Y215907D01*
X130402Y224042D02*
X133113Y221330D01*
X130402Y224042D02*
X124978Y224042D01*
X122267Y221330D01*
X122267Y210484D01*
X124978Y207772D01*
X130402Y207772D01*
X133113Y210484D01*
X146773Y207772D02*
X146773Y224042D01*
X138638Y215907D01*
X149485Y215907D01*
X155010Y210484D02*
X155010Y221330D01*
X157721Y224042D01*
X163145Y224042D01*
X165856Y221330D01*
X165856Y210484D01*
X163145Y207772D01*
X157721Y207772D01*
X155010Y210484D01*
X165856Y221330D01*
X171381Y221330D02*
X171381Y210484D01*
X171381Y221330D02*
X174093Y224042D01*
X179516Y224042D01*
X182228Y221330D01*
X182228Y210484D01*
X179516Y207772D01*
X174093Y207772D01*
X171381Y210484D01*
X182228Y221330D01*
X187753Y221330D02*
X190465Y224042D01*
X195888Y224042D01*
X198600Y221330D01*
X198600Y218619D01*
X195888Y215907D01*
X198600Y213195D01*
X198600Y210484D01*
X195888Y207772D01*
X190465Y207772D01*
X187753Y210484D01*
X187753Y213195D01*
X190465Y215907D01*
X187753Y218619D01*
X187753Y221330D01*
X190465Y215907D02*
X195888Y215907D01*
X48260Y393700D02*
X50800Y396240D01*
X53340Y393700D01*
X50800Y416560D02*
X48260Y419100D01*
X50800Y416560D02*
X53340Y419100D01*
X73660Y419100D01*
X76200Y416560D01*
X27940Y419100D02*
X25400Y416560D01*
X27940Y419100D02*
X48260Y419100D01*
X25400Y416560D02*
X25400Y396240D01*
X27940Y393700D01*
X48260Y393700D01*
X53340Y393700D02*
X73660Y393700D01*
X76200Y396240D01*
X76200Y416560D01*
D11*
X41753Y379732D02*
X43660Y377825D01*
X45566Y377825D01*
X47473Y379732D01*
X47473Y389265D01*
X45566Y389265D02*
X49380Y389265D01*
X53447Y389265D02*
X53447Y377825D01*
X53447Y389265D02*
X59167Y389265D01*
X61074Y387358D01*
X61074Y383545D01*
X59167Y381638D01*
X53447Y381638D01*
X65141Y385452D02*
X68954Y389265D01*
X68954Y377825D01*
X65141Y377825D02*
X72767Y377825D01*
X18365Y423545D02*
X18365Y434985D01*
X24085Y434985D01*
X25992Y433078D01*
X25992Y429265D01*
X24085Y427358D01*
X18365Y427358D01*
X22178Y427358D02*
X25992Y423545D01*
X30059Y423545D02*
X30059Y431172D01*
X33872Y434985D01*
X37686Y431172D01*
X37686Y423545D01*
X37686Y429265D02*
X30059Y429265D01*
X41753Y423545D02*
X41753Y434985D01*
X45566Y431172D01*
X49379Y434985D01*
X49379Y423545D01*
X53447Y434985D02*
X61073Y434985D01*
X53447Y434985D02*
X53447Y423545D01*
X61073Y423545D01*
X57260Y429265D02*
X53447Y429265D01*
X65141Y423545D02*
X65141Y434985D01*
X72767Y423545D01*
X72767Y434985D01*
D12*
X40640Y365760D02*
X40540Y365758D01*
X40441Y365752D01*
X40341Y365742D01*
X40243Y365729D01*
X40144Y365711D01*
X40047Y365690D01*
X39951Y365665D01*
X39855Y365636D01*
X39761Y365603D01*
X39668Y365567D01*
X39577Y365527D01*
X39487Y365483D01*
X39399Y365436D01*
X39313Y365386D01*
X39229Y365332D01*
X39147Y365275D01*
X39068Y365215D01*
X38990Y365151D01*
X38916Y365085D01*
X38844Y365016D01*
X38775Y364944D01*
X38709Y364870D01*
X38645Y364792D01*
X38585Y364713D01*
X38528Y364631D01*
X38474Y364547D01*
X38424Y364461D01*
X38377Y364373D01*
X38333Y364283D01*
X38293Y364192D01*
X38257Y364099D01*
X38224Y364005D01*
X38195Y363909D01*
X38170Y363813D01*
X38149Y363716D01*
X38131Y363617D01*
X38118Y363519D01*
X38108Y363419D01*
X38102Y363320D01*
X38100Y363220D01*
X38100Y347980D02*
X38102Y347880D01*
X38108Y347781D01*
X38118Y347681D01*
X38131Y347583D01*
X38149Y347484D01*
X38170Y347387D01*
X38195Y347291D01*
X38224Y347195D01*
X38257Y347101D01*
X38293Y347008D01*
X38333Y346917D01*
X38377Y346827D01*
X38424Y346739D01*
X38474Y346653D01*
X38528Y346569D01*
X38585Y346487D01*
X38645Y346408D01*
X38709Y346330D01*
X38775Y346256D01*
X38844Y346184D01*
X38916Y346115D01*
X38990Y346049D01*
X39068Y345985D01*
X39147Y345925D01*
X39229Y345868D01*
X39313Y345814D01*
X39399Y345764D01*
X39487Y345717D01*
X39577Y345673D01*
X39668Y345633D01*
X39761Y345597D01*
X39855Y345564D01*
X39951Y345535D01*
X40047Y345510D01*
X40144Y345489D01*
X40243Y345471D01*
X40341Y345458D01*
X40441Y345448D01*
X40540Y345442D01*
X40640Y345440D01*
X86360Y345440D02*
X86460Y345442D01*
X86559Y345448D01*
X86659Y345458D01*
X86757Y345471D01*
X86856Y345489D01*
X86953Y345510D01*
X87049Y345535D01*
X87145Y345564D01*
X87239Y345597D01*
X87332Y345633D01*
X87423Y345673D01*
X87513Y345717D01*
X87601Y345764D01*
X87687Y345814D01*
X87771Y345868D01*
X87853Y345925D01*
X87932Y345985D01*
X88010Y346049D01*
X88084Y346115D01*
X88156Y346184D01*
X88225Y346256D01*
X88291Y346330D01*
X88355Y346408D01*
X88415Y346487D01*
X88472Y346569D01*
X88526Y346653D01*
X88576Y346739D01*
X88623Y346827D01*
X88667Y346917D01*
X88707Y347008D01*
X88743Y347101D01*
X88776Y347195D01*
X88805Y347291D01*
X88830Y347387D01*
X88851Y347484D01*
X88869Y347583D01*
X88882Y347681D01*
X88892Y347781D01*
X88898Y347880D01*
X88900Y347980D01*
X88900Y363220D02*
X88898Y363320D01*
X88892Y363419D01*
X88882Y363519D01*
X88869Y363617D01*
X88851Y363716D01*
X88830Y363813D01*
X88805Y363909D01*
X88776Y364005D01*
X88743Y364099D01*
X88707Y364192D01*
X88667Y364283D01*
X88623Y364373D01*
X88576Y364461D01*
X88526Y364547D01*
X88472Y364631D01*
X88415Y364713D01*
X88355Y364792D01*
X88291Y364870D01*
X88225Y364944D01*
X88156Y365016D01*
X88084Y365085D01*
X88010Y365151D01*
X87932Y365215D01*
X87853Y365275D01*
X87771Y365332D01*
X87687Y365386D01*
X87601Y365436D01*
X87513Y365483D01*
X87423Y365527D01*
X87332Y365567D01*
X87239Y365603D01*
X87145Y365636D01*
X87049Y365665D01*
X86953Y365690D01*
X86856Y365711D01*
X86757Y365729D01*
X86659Y365742D01*
X86559Y365752D01*
X86460Y365758D01*
X86360Y365760D01*
X38100Y363220D02*
X38100Y347980D01*
X40640Y365760D02*
X44450Y365760D01*
X45720Y364490D01*
X44450Y345440D02*
X40640Y345440D01*
X44450Y345440D02*
X45720Y346710D01*
X81280Y364490D02*
X82550Y365760D01*
X81280Y364490D02*
X45720Y364490D01*
X81280Y346710D02*
X82550Y345440D01*
X81280Y346710D02*
X45720Y346710D01*
X82550Y365760D02*
X86360Y365760D01*
X86360Y345440D02*
X82550Y345440D01*
X88900Y347980D02*
X88900Y363220D01*
D14*
X90805Y355600D03*
X36195Y355600D03*
D10*
X38608Y369062D02*
X38608Y377960D01*
X43057Y377960D01*
X44540Y376477D01*
X44540Y373511D01*
X43057Y372028D01*
X38608Y372028D01*
X41574Y372028D02*
X44540Y369062D01*
X47729Y374994D02*
X50695Y377960D01*
X50695Y369062D01*
X47729Y369062D02*
X53661Y369062D01*
X50718Y360180D02*
X47752Y357214D01*
X50718Y360180D02*
X50718Y351282D01*
X47752Y351282D02*
X53684Y351282D01*
X56873Y352765D02*
X56873Y358697D01*
X58356Y360180D01*
X61322Y360180D01*
X62805Y358697D01*
X62805Y352765D01*
X61322Y351282D01*
X58356Y351282D01*
X56873Y352765D01*
X62805Y358697D01*
X65995Y360180D02*
X65995Y351282D01*
X65995Y354248D02*
X71926Y360180D01*
X67478Y355731D02*
X71926Y351282D01*
D12*
X264160Y393700D02*
X266700Y396240D01*
X269240Y393700D01*
X266700Y416560D02*
X264160Y419100D01*
X266700Y416560D02*
X269240Y419100D01*
X289560Y419100D01*
X292100Y416560D01*
X243840Y419100D02*
X241300Y416560D01*
X243840Y419100D02*
X264160Y419100D01*
X241300Y416560D02*
X241300Y396240D01*
X243840Y393700D01*
X264160Y393700D01*
X269240Y393700D02*
X289560Y393700D01*
X292100Y396240D01*
X292100Y416560D01*
D11*
X257653Y379732D02*
X259560Y377825D01*
X261466Y377825D01*
X263373Y379732D01*
X263373Y389265D01*
X261466Y389265D02*
X265280Y389265D01*
X269347Y389265D02*
X269347Y377825D01*
X269347Y389265D02*
X275067Y389265D01*
X276974Y387358D01*
X276974Y383545D01*
X275067Y381638D01*
X269347Y381638D01*
X281041Y377825D02*
X288667Y377825D01*
X281041Y377825D02*
X288667Y385452D01*
X288667Y387358D01*
X286761Y389265D01*
X282948Y389265D01*
X281041Y387358D01*
X257653Y423545D02*
X257653Y431172D01*
X261466Y434985D01*
X265280Y431172D01*
X265280Y423545D01*
X265280Y429265D02*
X257653Y429265D01*
X269347Y431172D02*
X273160Y434985D01*
X273160Y423545D01*
X269347Y423545D02*
X276974Y423545D01*
X281041Y434985D02*
X288667Y434985D01*
X288667Y433078D01*
X281041Y425452D01*
X281041Y423545D01*
D12*
X167640Y419100D02*
X165100Y416560D01*
X162560Y419100D01*
X165100Y396240D02*
X167640Y393700D01*
X165100Y396240D02*
X162560Y393700D01*
X142240Y393700D01*
X139700Y396240D01*
X187960Y393700D02*
X190500Y396240D01*
X187960Y393700D02*
X167640Y393700D01*
X190500Y396240D02*
X190500Y416560D01*
X187960Y419100D01*
X167640Y419100D01*
X162560Y419100D02*
X142240Y419100D01*
X139700Y416560D01*
X139700Y396240D01*
D11*
X142242Y423545D02*
X140335Y425452D01*
X142242Y423545D02*
X144148Y423545D01*
X146055Y425452D01*
X146055Y434985D01*
X144148Y434985D02*
X147962Y434985D01*
X152029Y434985D02*
X152029Y423545D01*
X152029Y434985D02*
X157749Y434985D01*
X159655Y433078D01*
X159655Y429265D01*
X157749Y427358D01*
X152029Y427358D01*
X163723Y433078D02*
X165630Y434985D01*
X169443Y434985D01*
X171349Y433078D01*
X171349Y431172D01*
X169443Y429265D01*
X167536Y429265D01*
X169443Y429265D02*
X171349Y427358D01*
X171349Y425452D01*
X169443Y423545D01*
X165630Y423545D01*
X163723Y425452D01*
X140335Y389265D02*
X140335Y377825D01*
X146055Y377825D01*
X147962Y379732D01*
X147962Y387358D01*
X146055Y389265D01*
X140335Y389265D01*
X152029Y385452D02*
X155842Y389265D01*
X155842Y377825D01*
X152029Y377825D02*
X159655Y377825D01*
D12*
X314960Y345440D02*
X315060Y345442D01*
X315159Y345448D01*
X315259Y345458D01*
X315357Y345471D01*
X315456Y345489D01*
X315553Y345510D01*
X315649Y345535D01*
X315745Y345564D01*
X315839Y345597D01*
X315932Y345633D01*
X316023Y345673D01*
X316113Y345717D01*
X316201Y345764D01*
X316287Y345814D01*
X316371Y345868D01*
X316453Y345925D01*
X316532Y345985D01*
X316610Y346049D01*
X316684Y346115D01*
X316756Y346184D01*
X316825Y346256D01*
X316891Y346330D01*
X316955Y346408D01*
X317015Y346487D01*
X317072Y346569D01*
X317126Y346653D01*
X317176Y346739D01*
X317223Y346827D01*
X317267Y346917D01*
X317307Y347008D01*
X317343Y347101D01*
X317376Y347195D01*
X317405Y347291D01*
X317430Y347387D01*
X317451Y347484D01*
X317469Y347583D01*
X317482Y347681D01*
X317492Y347781D01*
X317498Y347880D01*
X317500Y347980D01*
X317500Y363220D02*
X317498Y363320D01*
X317492Y363419D01*
X317482Y363519D01*
X317469Y363617D01*
X317451Y363716D01*
X317430Y363813D01*
X317405Y363909D01*
X317376Y364005D01*
X317343Y364099D01*
X317307Y364192D01*
X317267Y364283D01*
X317223Y364373D01*
X317176Y364461D01*
X317126Y364547D01*
X317072Y364631D01*
X317015Y364713D01*
X316955Y364792D01*
X316891Y364870D01*
X316825Y364944D01*
X316756Y365016D01*
X316684Y365085D01*
X316610Y365151D01*
X316532Y365215D01*
X316453Y365275D01*
X316371Y365332D01*
X316287Y365386D01*
X316201Y365436D01*
X316113Y365483D01*
X316023Y365527D01*
X315932Y365567D01*
X315839Y365603D01*
X315745Y365636D01*
X315649Y365665D01*
X315553Y365690D01*
X315456Y365711D01*
X315357Y365729D01*
X315259Y365742D01*
X315159Y365752D01*
X315060Y365758D01*
X314960Y365760D01*
X269240Y365760D02*
X269140Y365758D01*
X269041Y365752D01*
X268941Y365742D01*
X268843Y365729D01*
X268744Y365711D01*
X268647Y365690D01*
X268551Y365665D01*
X268455Y365636D01*
X268361Y365603D01*
X268268Y365567D01*
X268177Y365527D01*
X268087Y365483D01*
X267999Y365436D01*
X267913Y365386D01*
X267829Y365332D01*
X267747Y365275D01*
X267668Y365215D01*
X267590Y365151D01*
X267516Y365085D01*
X267444Y365016D01*
X267375Y364944D01*
X267309Y364870D01*
X267245Y364792D01*
X267185Y364713D01*
X267128Y364631D01*
X267074Y364547D01*
X267024Y364461D01*
X266977Y364373D01*
X266933Y364283D01*
X266893Y364192D01*
X266857Y364099D01*
X266824Y364005D01*
X266795Y363909D01*
X266770Y363813D01*
X266749Y363716D01*
X266731Y363617D01*
X266718Y363519D01*
X266708Y363419D01*
X266702Y363320D01*
X266700Y363220D01*
X266700Y347980D02*
X266702Y347880D01*
X266708Y347781D01*
X266718Y347681D01*
X266731Y347583D01*
X266749Y347484D01*
X266770Y347387D01*
X266795Y347291D01*
X266824Y347195D01*
X266857Y347101D01*
X266893Y347008D01*
X266933Y346917D01*
X266977Y346827D01*
X267024Y346739D01*
X267074Y346653D01*
X267128Y346569D01*
X267185Y346487D01*
X267245Y346408D01*
X267309Y346330D01*
X267375Y346256D01*
X267444Y346184D01*
X267516Y346115D01*
X267590Y346049D01*
X267668Y345985D01*
X267747Y345925D01*
X267829Y345868D01*
X267913Y345814D01*
X267999Y345764D01*
X268087Y345717D01*
X268177Y345673D01*
X268268Y345633D01*
X268361Y345597D01*
X268455Y345564D01*
X268551Y345535D01*
X268647Y345510D01*
X268744Y345489D01*
X268843Y345471D01*
X268941Y345458D01*
X269041Y345448D01*
X269140Y345442D01*
X269240Y345440D01*
X317500Y347980D02*
X317500Y363220D01*
X314960Y345440D02*
X311150Y345440D01*
X309880Y346710D01*
X311150Y365760D02*
X314960Y365760D01*
X311150Y365760D02*
X309880Y364490D01*
X274320Y346710D02*
X273050Y345440D01*
X274320Y346710D02*
X309880Y346710D01*
X274320Y364490D02*
X273050Y365760D01*
X274320Y364490D02*
X309880Y364490D01*
X273050Y345440D02*
X269240Y345440D01*
X269240Y365760D02*
X273050Y365760D01*
X266700Y363220D02*
X266700Y347980D01*
D14*
X264795Y355600D03*
X319405Y355600D03*
D10*
X299765Y342146D02*
X299765Y333248D01*
X299765Y342146D02*
X304214Y342146D01*
X305697Y340663D01*
X305697Y337697D01*
X304214Y336214D01*
X299765Y336214D01*
X302731Y336214D02*
X305697Y333248D01*
X308887Y333248D02*
X314818Y333248D01*
X308887Y333248D02*
X314818Y339180D01*
X314818Y340663D01*
X313335Y342146D01*
X310370Y342146D01*
X308887Y340663D01*
X284466Y359926D02*
X281500Y356960D01*
X284466Y359926D02*
X284466Y351028D01*
X281500Y351028D02*
X287432Y351028D01*
X290621Y352511D02*
X290621Y358443D01*
X292104Y359926D01*
X295070Y359926D01*
X296553Y358443D01*
X296553Y352511D01*
X295070Y351028D01*
X292104Y351028D01*
X290621Y352511D01*
X296553Y358443D01*
X299743Y359926D02*
X299743Y351028D01*
X299743Y353994D02*
X305674Y359926D01*
X301226Y355477D02*
X305674Y351028D01*
D12*
X215900Y322580D02*
X215898Y322480D01*
X215892Y322381D01*
X215882Y322281D01*
X215869Y322183D01*
X215851Y322084D01*
X215830Y321987D01*
X215805Y321891D01*
X215776Y321795D01*
X215743Y321701D01*
X215707Y321608D01*
X215667Y321517D01*
X215623Y321427D01*
X215576Y321339D01*
X215526Y321253D01*
X215472Y321169D01*
X215415Y321087D01*
X215355Y321008D01*
X215291Y320930D01*
X215225Y320856D01*
X215156Y320784D01*
X215084Y320715D01*
X215010Y320649D01*
X214932Y320585D01*
X214853Y320525D01*
X214771Y320468D01*
X214687Y320414D01*
X214601Y320364D01*
X214513Y320317D01*
X214423Y320273D01*
X214332Y320233D01*
X214239Y320197D01*
X214145Y320164D01*
X214049Y320135D01*
X213953Y320110D01*
X213856Y320089D01*
X213757Y320071D01*
X213659Y320058D01*
X213559Y320048D01*
X213460Y320042D01*
X213360Y320040D01*
X215900Y337820D02*
X215898Y337920D01*
X215892Y338019D01*
X215882Y338119D01*
X215869Y338217D01*
X215851Y338316D01*
X215830Y338413D01*
X215805Y338509D01*
X215776Y338605D01*
X215743Y338699D01*
X215707Y338792D01*
X215667Y338883D01*
X215623Y338973D01*
X215576Y339061D01*
X215526Y339147D01*
X215472Y339231D01*
X215415Y339313D01*
X215355Y339392D01*
X215291Y339470D01*
X215225Y339544D01*
X215156Y339616D01*
X215084Y339685D01*
X215010Y339751D01*
X214932Y339815D01*
X214853Y339875D01*
X214771Y339932D01*
X214687Y339986D01*
X214601Y340036D01*
X214513Y340083D01*
X214423Y340127D01*
X214332Y340167D01*
X214239Y340203D01*
X214145Y340236D01*
X214049Y340265D01*
X213953Y340290D01*
X213856Y340311D01*
X213757Y340329D01*
X213659Y340342D01*
X213559Y340352D01*
X213460Y340358D01*
X213360Y340360D01*
X167640Y340360D02*
X167540Y340358D01*
X167441Y340352D01*
X167341Y340342D01*
X167243Y340329D01*
X167144Y340311D01*
X167047Y340290D01*
X166951Y340265D01*
X166855Y340236D01*
X166761Y340203D01*
X166668Y340167D01*
X166577Y340127D01*
X166487Y340083D01*
X166399Y340036D01*
X166313Y339986D01*
X166229Y339932D01*
X166147Y339875D01*
X166068Y339815D01*
X165990Y339751D01*
X165916Y339685D01*
X165844Y339616D01*
X165775Y339544D01*
X165709Y339470D01*
X165645Y339392D01*
X165585Y339313D01*
X165528Y339231D01*
X165474Y339147D01*
X165424Y339061D01*
X165377Y338973D01*
X165333Y338883D01*
X165293Y338792D01*
X165257Y338699D01*
X165224Y338605D01*
X165195Y338509D01*
X165170Y338413D01*
X165149Y338316D01*
X165131Y338217D01*
X165118Y338119D01*
X165108Y338019D01*
X165102Y337920D01*
X165100Y337820D01*
X165100Y322580D02*
X165102Y322480D01*
X165108Y322381D01*
X165118Y322281D01*
X165131Y322183D01*
X165149Y322084D01*
X165170Y321987D01*
X165195Y321891D01*
X165224Y321795D01*
X165257Y321701D01*
X165293Y321608D01*
X165333Y321517D01*
X165377Y321427D01*
X165424Y321339D01*
X165474Y321253D01*
X165528Y321169D01*
X165585Y321087D01*
X165645Y321008D01*
X165709Y320930D01*
X165775Y320856D01*
X165844Y320784D01*
X165916Y320715D01*
X165990Y320649D01*
X166068Y320585D01*
X166147Y320525D01*
X166229Y320468D01*
X166313Y320414D01*
X166399Y320364D01*
X166487Y320317D01*
X166577Y320273D01*
X166668Y320233D01*
X166761Y320197D01*
X166855Y320164D01*
X166951Y320135D01*
X167047Y320110D01*
X167144Y320089D01*
X167243Y320071D01*
X167341Y320058D01*
X167441Y320048D01*
X167540Y320042D01*
X167640Y320040D01*
X215900Y322580D02*
X215900Y337820D01*
X213360Y320040D02*
X209550Y320040D01*
X208280Y321310D01*
X209550Y340360D02*
X213360Y340360D01*
X209550Y340360D02*
X208280Y339090D01*
X172720Y321310D02*
X171450Y320040D01*
X172720Y321310D02*
X208280Y321310D01*
X172720Y339090D02*
X171450Y340360D01*
X172720Y339090D02*
X208280Y339090D01*
X171450Y320040D02*
X167640Y320040D01*
X167640Y340360D02*
X171450Y340360D01*
X165100Y337820D02*
X165100Y322580D01*
D14*
X163195Y330200D03*
X217805Y330200D03*
D10*
X198165Y316746D02*
X198165Y307848D01*
X198165Y316746D02*
X202614Y316746D01*
X204097Y315263D01*
X204097Y312297D01*
X202614Y310814D01*
X198165Y310814D01*
X201131Y310814D02*
X204097Y307848D01*
X207287Y315263D02*
X208770Y316746D01*
X211735Y316746D01*
X213218Y315263D01*
X213218Y313780D01*
X211735Y312297D01*
X210253Y312297D01*
X211735Y312297D02*
X213218Y310814D01*
X213218Y309331D01*
X211735Y307848D01*
X208770Y307848D01*
X207287Y309331D01*
X182866Y334526D02*
X179900Y331560D01*
X182866Y334526D02*
X182866Y325628D01*
X179900Y325628D02*
X185832Y325628D01*
X189021Y327111D02*
X189021Y333043D01*
X190504Y334526D01*
X193470Y334526D01*
X194953Y333043D01*
X194953Y327111D01*
X193470Y325628D01*
X190504Y325628D01*
X189021Y327111D01*
X194953Y333043D01*
X198143Y334526D02*
X198143Y325628D01*
X198143Y328594D02*
X204074Y334526D01*
X199626Y330077D02*
X204074Y325628D01*
D12*
X38100Y300990D02*
X38100Y257810D01*
X12700Y257810D02*
X12700Y300990D01*
X15240Y255270D02*
X35560Y255270D01*
X35560Y303530D02*
X15240Y303530D01*
X38100Y257810D02*
X38098Y257710D01*
X38092Y257611D01*
X38082Y257511D01*
X38069Y257413D01*
X38051Y257314D01*
X38030Y257217D01*
X38005Y257121D01*
X37976Y257025D01*
X37943Y256931D01*
X37907Y256838D01*
X37867Y256747D01*
X37823Y256657D01*
X37776Y256569D01*
X37726Y256483D01*
X37672Y256399D01*
X37615Y256317D01*
X37555Y256238D01*
X37491Y256160D01*
X37425Y256086D01*
X37356Y256014D01*
X37284Y255945D01*
X37210Y255879D01*
X37132Y255815D01*
X37053Y255755D01*
X36971Y255698D01*
X36887Y255644D01*
X36801Y255594D01*
X36713Y255547D01*
X36623Y255503D01*
X36532Y255463D01*
X36439Y255427D01*
X36345Y255394D01*
X36249Y255365D01*
X36153Y255340D01*
X36056Y255319D01*
X35957Y255301D01*
X35859Y255288D01*
X35759Y255278D01*
X35660Y255272D01*
X35560Y255270D01*
X38100Y300990D02*
X38098Y301090D01*
X38092Y301189D01*
X38082Y301289D01*
X38069Y301387D01*
X38051Y301486D01*
X38030Y301583D01*
X38005Y301679D01*
X37976Y301775D01*
X37943Y301869D01*
X37907Y301962D01*
X37867Y302053D01*
X37823Y302143D01*
X37776Y302231D01*
X37726Y302317D01*
X37672Y302401D01*
X37615Y302483D01*
X37555Y302562D01*
X37491Y302640D01*
X37425Y302714D01*
X37356Y302786D01*
X37284Y302855D01*
X37210Y302921D01*
X37132Y302985D01*
X37053Y303045D01*
X36971Y303102D01*
X36887Y303156D01*
X36801Y303206D01*
X36713Y303253D01*
X36623Y303297D01*
X36532Y303337D01*
X36439Y303373D01*
X36345Y303406D01*
X36249Y303435D01*
X36153Y303460D01*
X36056Y303481D01*
X35957Y303499D01*
X35859Y303512D01*
X35759Y303522D01*
X35660Y303528D01*
X35560Y303530D01*
X12700Y257810D02*
X12702Y257710D01*
X12708Y257611D01*
X12718Y257511D01*
X12731Y257413D01*
X12749Y257314D01*
X12770Y257217D01*
X12795Y257121D01*
X12824Y257025D01*
X12857Y256931D01*
X12893Y256838D01*
X12933Y256747D01*
X12977Y256657D01*
X13024Y256569D01*
X13074Y256483D01*
X13128Y256399D01*
X13185Y256317D01*
X13245Y256238D01*
X13309Y256160D01*
X13375Y256086D01*
X13444Y256014D01*
X13516Y255945D01*
X13590Y255879D01*
X13668Y255815D01*
X13747Y255755D01*
X13829Y255698D01*
X13913Y255644D01*
X13999Y255594D01*
X14087Y255547D01*
X14177Y255503D01*
X14268Y255463D01*
X14361Y255427D01*
X14455Y255394D01*
X14551Y255365D01*
X14647Y255340D01*
X14744Y255319D01*
X14843Y255301D01*
X14941Y255288D01*
X15041Y255278D01*
X15140Y255272D01*
X15240Y255270D01*
X12700Y300990D02*
X12702Y301090D01*
X12708Y301189D01*
X12718Y301289D01*
X12731Y301387D01*
X12749Y301486D01*
X12770Y301583D01*
X12795Y301679D01*
X12824Y301775D01*
X12857Y301869D01*
X12893Y301962D01*
X12933Y302053D01*
X12977Y302143D01*
X13024Y302231D01*
X13074Y302317D01*
X13128Y302401D01*
X13185Y302483D01*
X13245Y302562D01*
X13309Y302640D01*
X13375Y302714D01*
X13444Y302786D01*
X13516Y302855D01*
X13590Y302921D01*
X13668Y302985D01*
X13747Y303045D01*
X13829Y303102D01*
X13913Y303156D01*
X13999Y303206D01*
X14087Y303253D01*
X14177Y303297D01*
X14268Y303337D01*
X14361Y303373D01*
X14455Y303406D01*
X14551Y303435D01*
X14647Y303460D01*
X14744Y303481D01*
X14843Y303499D01*
X14941Y303512D01*
X15041Y303522D01*
X15140Y303528D01*
X15240Y303530D01*
X25400Y276860D02*
X25400Y275590D01*
D15*
X25400Y276860D02*
X33020Y276860D01*
X25400Y276860D02*
X17780Y276860D01*
X25400Y281940D02*
X33020Y281940D01*
X25400Y281940D02*
X17780Y281940D01*
D12*
X25400Y281940D02*
X25400Y283210D01*
X546100Y372110D02*
X546100Y415290D01*
X520700Y415290D02*
X520700Y372110D01*
X523240Y369570D02*
X543560Y369570D01*
X543560Y417830D02*
X523240Y417830D01*
X546100Y372110D02*
X546098Y372010D01*
X546092Y371911D01*
X546082Y371811D01*
X546069Y371713D01*
X546051Y371614D01*
X546030Y371517D01*
X546005Y371421D01*
X545976Y371325D01*
X545943Y371231D01*
X545907Y371138D01*
X545867Y371047D01*
X545823Y370957D01*
X545776Y370869D01*
X545726Y370783D01*
X545672Y370699D01*
X545615Y370617D01*
X545555Y370538D01*
X545491Y370460D01*
X545425Y370386D01*
X545356Y370314D01*
X545284Y370245D01*
X545210Y370179D01*
X545132Y370115D01*
X545053Y370055D01*
X544971Y369998D01*
X544887Y369944D01*
X544801Y369894D01*
X544713Y369847D01*
X544623Y369803D01*
X544532Y369763D01*
X544439Y369727D01*
X544345Y369694D01*
X544249Y369665D01*
X544153Y369640D01*
X544056Y369619D01*
X543957Y369601D01*
X543859Y369588D01*
X543759Y369578D01*
X543660Y369572D01*
X543560Y369570D01*
X546100Y415290D02*
X546098Y415390D01*
X546092Y415489D01*
X546082Y415589D01*
X546069Y415687D01*
X546051Y415786D01*
X546030Y415883D01*
X546005Y415979D01*
X545976Y416075D01*
X545943Y416169D01*
X545907Y416262D01*
X545867Y416353D01*
X545823Y416443D01*
X545776Y416531D01*
X545726Y416617D01*
X545672Y416701D01*
X545615Y416783D01*
X545555Y416862D01*
X545491Y416940D01*
X545425Y417014D01*
X545356Y417086D01*
X545284Y417155D01*
X545210Y417221D01*
X545132Y417285D01*
X545053Y417345D01*
X544971Y417402D01*
X544887Y417456D01*
X544801Y417506D01*
X544713Y417553D01*
X544623Y417597D01*
X544532Y417637D01*
X544439Y417673D01*
X544345Y417706D01*
X544249Y417735D01*
X544153Y417760D01*
X544056Y417781D01*
X543957Y417799D01*
X543859Y417812D01*
X543759Y417822D01*
X543660Y417828D01*
X543560Y417830D01*
X520700Y372110D02*
X520702Y372010D01*
X520708Y371911D01*
X520718Y371811D01*
X520731Y371713D01*
X520749Y371614D01*
X520770Y371517D01*
X520795Y371421D01*
X520824Y371325D01*
X520857Y371231D01*
X520893Y371138D01*
X520933Y371047D01*
X520977Y370957D01*
X521024Y370869D01*
X521074Y370783D01*
X521128Y370699D01*
X521185Y370617D01*
X521245Y370538D01*
X521309Y370460D01*
X521375Y370386D01*
X521444Y370314D01*
X521516Y370245D01*
X521590Y370179D01*
X521668Y370115D01*
X521747Y370055D01*
X521829Y369998D01*
X521913Y369944D01*
X521999Y369894D01*
X522087Y369847D01*
X522177Y369803D01*
X522268Y369763D01*
X522361Y369727D01*
X522455Y369694D01*
X522551Y369665D01*
X522647Y369640D01*
X522744Y369619D01*
X522843Y369601D01*
X522941Y369588D01*
X523041Y369578D01*
X523140Y369572D01*
X523240Y369570D01*
X520700Y415290D02*
X520702Y415390D01*
X520708Y415489D01*
X520718Y415589D01*
X520731Y415687D01*
X520749Y415786D01*
X520770Y415883D01*
X520795Y415979D01*
X520824Y416075D01*
X520857Y416169D01*
X520893Y416262D01*
X520933Y416353D01*
X520977Y416443D01*
X521024Y416531D01*
X521074Y416617D01*
X521128Y416701D01*
X521185Y416783D01*
X521245Y416862D01*
X521309Y416940D01*
X521375Y417014D01*
X521444Y417086D01*
X521516Y417155D01*
X521590Y417221D01*
X521668Y417285D01*
X521747Y417345D01*
X521829Y417402D01*
X521913Y417456D01*
X521999Y417506D01*
X522087Y417553D01*
X522177Y417597D01*
X522268Y417637D01*
X522361Y417673D01*
X522455Y417706D01*
X522551Y417735D01*
X522647Y417760D01*
X522744Y417781D01*
X522843Y417799D01*
X522941Y417812D01*
X523041Y417822D01*
X523140Y417828D01*
X523240Y417830D01*
X533400Y391160D02*
X533400Y389890D01*
D15*
X533400Y391160D02*
X541020Y391160D01*
X533400Y391160D02*
X525780Y391160D01*
X533400Y396240D02*
X541020Y396240D01*
X533400Y396240D02*
X525780Y396240D01*
D12*
X533400Y396240D02*
X533400Y397510D01*
X408940Y393700D02*
X401320Y393700D01*
X405130Y389890D02*
X405130Y397510D01*
X397510Y393700D02*
X397520Y394542D01*
X397551Y395383D01*
X397603Y396223D01*
X397675Y397061D01*
X397768Y397897D01*
X397881Y398731D01*
X398015Y399562D01*
X398169Y400390D01*
X398343Y401213D01*
X398538Y402032D01*
X398752Y402846D01*
X398987Y403654D01*
X399241Y404456D01*
X399514Y405252D01*
X399808Y406041D01*
X400120Y406822D01*
X400452Y407596D01*
X400802Y408361D01*
X401171Y409117D01*
X401559Y409864D01*
X401965Y410601D01*
X402388Y411329D01*
X402830Y412045D01*
X403289Y412751D01*
X403765Y413444D01*
X404258Y414127D01*
X404768Y414796D01*
X405293Y415453D01*
X405835Y416097D01*
X406393Y416728D01*
X406966Y417344D01*
X407553Y417947D01*
X408156Y418534D01*
X408772Y419107D01*
X409403Y419665D01*
X410047Y420207D01*
X410704Y420732D01*
X411373Y421242D01*
X412056Y421735D01*
X412749Y422211D01*
X413455Y422670D01*
X414171Y423112D01*
X414899Y423535D01*
X415636Y423941D01*
X416383Y424329D01*
X417139Y424698D01*
X417904Y425048D01*
X418678Y425380D01*
X419459Y425692D01*
X420248Y425986D01*
X421044Y426259D01*
X421846Y426513D01*
X422654Y426748D01*
X423468Y426962D01*
X424287Y427157D01*
X425110Y427331D01*
X425938Y427485D01*
X426769Y427619D01*
X427603Y427732D01*
X428439Y427825D01*
X429277Y427897D01*
X430117Y427949D01*
X430958Y427980D01*
X431800Y427990D01*
X432642Y427980D01*
X433483Y427949D01*
X434323Y427897D01*
X435161Y427825D01*
X435997Y427732D01*
X436831Y427619D01*
X437662Y427485D01*
X438490Y427331D01*
X439313Y427157D01*
X440132Y426962D01*
X440946Y426748D01*
X441754Y426513D01*
X442556Y426259D01*
X443352Y425986D01*
X444141Y425692D01*
X444922Y425380D01*
X445696Y425048D01*
X446461Y424698D01*
X447217Y424329D01*
X447964Y423941D01*
X448701Y423535D01*
X449429Y423112D01*
X450145Y422670D01*
X450851Y422211D01*
X451544Y421735D01*
X452227Y421242D01*
X452896Y420732D01*
X453553Y420207D01*
X454197Y419665D01*
X454828Y419107D01*
X455444Y418534D01*
X456047Y417947D01*
X456634Y417344D01*
X457207Y416728D01*
X457765Y416097D01*
X458307Y415453D01*
X458832Y414796D01*
X459342Y414127D01*
X459835Y413444D01*
X460311Y412751D01*
X460770Y412045D01*
X461212Y411329D01*
X461635Y410601D01*
X462041Y409864D01*
X462429Y409117D01*
X462798Y408361D01*
X463148Y407596D01*
X463480Y406822D01*
X463792Y406041D01*
X464086Y405252D01*
X464359Y404456D01*
X464613Y403654D01*
X464848Y402846D01*
X465062Y402032D01*
X465257Y401213D01*
X465431Y400390D01*
X465585Y399562D01*
X465719Y398731D01*
X465832Y397897D01*
X465925Y397061D01*
X465997Y396223D01*
X466049Y395383D01*
X466080Y394542D01*
X466090Y393700D01*
X466080Y392858D01*
X466049Y392017D01*
X465997Y391177D01*
X465925Y390339D01*
X465832Y389503D01*
X465719Y388669D01*
X465585Y387838D01*
X465431Y387010D01*
X465257Y386187D01*
X465062Y385368D01*
X464848Y384554D01*
X464613Y383746D01*
X464359Y382944D01*
X464086Y382148D01*
X463792Y381359D01*
X463480Y380578D01*
X463148Y379804D01*
X462798Y379039D01*
X462429Y378283D01*
X462041Y377536D01*
X461635Y376799D01*
X461212Y376071D01*
X460770Y375355D01*
X460311Y374649D01*
X459835Y373956D01*
X459342Y373273D01*
X458832Y372604D01*
X458307Y371947D01*
X457765Y371303D01*
X457207Y370672D01*
X456634Y370056D01*
X456047Y369453D01*
X455444Y368866D01*
X454828Y368293D01*
X454197Y367735D01*
X453553Y367193D01*
X452896Y366668D01*
X452227Y366158D01*
X451544Y365665D01*
X450851Y365189D01*
X450145Y364730D01*
X449429Y364288D01*
X448701Y363865D01*
X447964Y363459D01*
X447217Y363071D01*
X446461Y362702D01*
X445696Y362352D01*
X444922Y362020D01*
X444141Y361708D01*
X443352Y361414D01*
X442556Y361141D01*
X441754Y360887D01*
X440946Y360652D01*
X440132Y360438D01*
X439313Y360243D01*
X438490Y360069D01*
X437662Y359915D01*
X436831Y359781D01*
X435997Y359668D01*
X435161Y359575D01*
X434323Y359503D01*
X433483Y359451D01*
X432642Y359420D01*
X431800Y359410D01*
X430958Y359420D01*
X430117Y359451D01*
X429277Y359503D01*
X428439Y359575D01*
X427603Y359668D01*
X426769Y359781D01*
X425938Y359915D01*
X425110Y360069D01*
X424287Y360243D01*
X423468Y360438D01*
X422654Y360652D01*
X421846Y360887D01*
X421044Y361141D01*
X420248Y361414D01*
X419459Y361708D01*
X418678Y362020D01*
X417904Y362352D01*
X417139Y362702D01*
X416383Y363071D01*
X415636Y363459D01*
X414899Y363865D01*
X414171Y364288D01*
X413455Y364730D01*
X412749Y365189D01*
X412056Y365665D01*
X411373Y366158D01*
X410704Y366668D01*
X410047Y367193D01*
X409403Y367735D01*
X408772Y368293D01*
X408156Y368866D01*
X407553Y369453D01*
X406966Y370056D01*
X406393Y370672D01*
X405835Y371303D01*
X405293Y371947D01*
X404768Y372604D01*
X404258Y373273D01*
X403765Y373956D01*
X403289Y374649D01*
X402830Y375355D01*
X402388Y376071D01*
X401965Y376799D01*
X401559Y377536D01*
X401171Y378283D01*
X400802Y379039D01*
X400452Y379804D01*
X400120Y380578D01*
X399808Y381359D01*
X399514Y382148D01*
X399241Y382944D01*
X398987Y383746D01*
X398752Y384554D01*
X398538Y385368D01*
X398343Y386187D01*
X398169Y387010D01*
X398015Y387838D01*
X397881Y388669D01*
X397768Y389503D01*
X397675Y390339D01*
X397603Y391177D01*
X397551Y392017D01*
X397520Y392858D01*
X397510Y393700D01*
D11*
X430535Y426095D02*
X432442Y424188D01*
X430535Y426095D02*
X426722Y426095D01*
X424815Y424188D01*
X424815Y416562D01*
X426722Y414655D01*
X430535Y414655D01*
X432442Y416562D01*
X436509Y424188D02*
X438416Y426095D01*
X442229Y426095D01*
X444135Y424188D01*
X444135Y422282D01*
X442229Y420375D01*
X440322Y420375D01*
X442229Y420375D02*
X444135Y418468D01*
X444135Y416562D01*
X442229Y414655D01*
X438416Y414655D01*
X436509Y416562D01*
X415928Y374025D02*
X412115Y370212D01*
X415928Y374025D02*
X415928Y362585D01*
X412115Y362585D02*
X419742Y362585D01*
X423809Y364492D02*
X423809Y372118D01*
X425716Y374025D01*
X429529Y374025D01*
X431435Y372118D01*
X431435Y364492D01*
X429529Y362585D01*
X425716Y362585D01*
X423809Y364492D01*
X431435Y372118D01*
X435503Y372118D02*
X435503Y364492D01*
X435503Y372118D02*
X437410Y374025D01*
X441223Y374025D01*
X443129Y372118D01*
X443129Y364492D01*
X441223Y362585D01*
X437410Y362585D01*
X435503Y364492D01*
X443129Y372118D01*
X447197Y370212D02*
X447197Y364492D01*
X449104Y362585D01*
X454823Y362585D01*
X454823Y370212D01*
X458891Y374025D02*
X458891Y362585D01*
X458891Y374025D02*
X466517Y374025D01*
X462704Y368305D02*
X458891Y368305D01*
M02*
