M48
;GenerationSoftware,Autodesk,EAGLE,9.6.1*%
;CreationDate,2023-12-13T06:39:08Z*%
FMAT,2
ICI,OFF
METRIC,TZ,000.000
T5C0.610
T4C0.813
T3C0.900
T2C0.914
T1C1.016
%
G90
M71
T1
X66040Y31750
X66040Y34290
X12700Y33020
T2
X17780Y40640
X15240Y40640
X25400Y40640
X27940Y40640
X3810Y40640
X6350Y40640
T3
X29210Y7620
X31750Y2540
X31750Y7620
X34290Y2540
X34290Y7620
X36830Y2540
X36830Y7620
X39370Y2540
X39370Y7620
X41910Y2540
X41910Y7620
X44450Y2540
X44450Y7620
X46990Y2540
X46990Y7620
X54610Y7620
X49530Y7620
X52070Y2540
X52070Y7620
X54610Y2540
X49530Y2540
X21590Y7620
X24130Y2540
X24130Y7620
X26670Y2540
X26670Y7620
X29210Y2540
X64770Y7620
X64770Y2540
X62230Y7620
X62230Y2540
X59690Y7620
X59690Y2540
X57150Y7620
X57150Y2540
X3810Y2540
X3810Y7620
X6350Y2540
X6350Y7620
X8890Y2540
X8890Y7620
X11430Y2540
X11430Y7620
X13970Y2540
X13970Y7620
X16510Y2540
X16510Y7620
X19050Y2540
X19050Y7620
X21590Y2540
T4
X40640Y29210
X38100Y29210
X35560Y29210
X33020Y29210
X30480Y29210
X27940Y29210
X25400Y29210
X22860Y29210
X20320Y29210
X17780Y29210
X15240Y29210
X12700Y29210
X10160Y29210
X7620Y29210
X2540Y35560
X10160Y35560
X33020Y35560
X25400Y35560
X22860Y33020
X15240Y33020
X2540Y29210
X2540Y26670
X53340Y40640
X53340Y38100
X44450Y39370
X41910Y39370
X5080Y29210
X55880Y41910
X55880Y39370
X55880Y36830
X55880Y34290
X55880Y31750
X55880Y29210
X55880Y26670
X55880Y24130
X55880Y21590
X55880Y19050
X55880Y16510
X55880Y13970
X63500Y13970
X63500Y16510
X63500Y19050
X63500Y21590
X63500Y24130
X63500Y26670
X63500Y29210
X63500Y31750
X63500Y34290
X63500Y36830
X63500Y39370
X63500Y41910
X5080Y13970
X7620Y13970
X20320Y13970
X22860Y13970
X10160Y13970
X12700Y13970
X17780Y13970
X15240Y13970
X25400Y13970
X27940Y13970
X30480Y13970
X33020Y13970
X35560Y13970
X38100Y13970
X40640Y13970
X43180Y13970
X43180Y29210
T5
X17780Y19844
X40640Y20638
X43656Y11112
X20320Y26511
X49054Y21114
X51594Y11112
X27940Y18733
X29845Y17304
X18891Y10001
X21273Y40640
X23019Y36513
X45879Y28416
X44609Y10160
X34290Y15399
X27464Y10001
X35560Y25717
X45561Y25082
X52229Y10001
X58737Y25876
X16510Y33814
X28892Y21590
X46990Y11112
X46037Y20638
X20320Y17304
X37624Y6191
X53499Y10001
X14129Y33973
X32861Y4604
X45720Y3810
X36354Y4604
X57785Y10160
X16510Y37783
X17621Y31909
X26670Y9049
X59690Y13970
X34131Y24130
X54451Y4763
X26987Y24447
X67151Y23019
X66199Y26511
X34449Y32861
X49530Y27464
X59055Y34925
X59849Y15399
M30