G04 EAGLE Gerber RS-274X export*
G75*
%MOMM*%
%FSLAX34Y34*%
%LPD*%
%INTop Copper*%
%IPPOS*%
%AMOC8*
5,1,8,0,0,1.08239X$1,22.5*%
G01*
%ADD10R,1.408000X1.408000*%
%ADD11C,1.320800*%
%ADD12C,1.422400*%
%ADD13P,1.429621X8X22.500000*%
%ADD14P,1.429621X8X202.500000*%
%ADD15P,1.649562X8X22.500000*%
%ADD16P,1.429621X8X292.500000*%
%ADD17P,1.732040X8X22.500000*%
%ADD18C,1.600200*%
%ADD19C,0.254000*%
%ADD20C,1.016000*%
%ADD21C,0.812800*%


D10*
X38100Y25400D03*
X38100Y76200D03*
X63500Y25400D03*
X63500Y76200D03*
X88900Y25400D03*
X88900Y76200D03*
X114300Y25400D03*
X114300Y76200D03*
X139700Y25400D03*
X139700Y76200D03*
X165100Y25400D03*
X165100Y76200D03*
X190500Y25400D03*
X190500Y76200D03*
X215900Y25400D03*
X215900Y76200D03*
X241300Y25400D03*
X241300Y76200D03*
X266700Y25400D03*
X266700Y76200D03*
X292100Y25400D03*
X292100Y76200D03*
X317500Y25400D03*
X317500Y76200D03*
X342900Y25400D03*
X342900Y76200D03*
X368300Y25400D03*
X368300Y76200D03*
X393700Y25400D03*
X393700Y76200D03*
X419100Y25400D03*
X419100Y76200D03*
X444500Y25400D03*
X444500Y76200D03*
X469900Y25400D03*
X469900Y76200D03*
X495300Y25400D03*
X495300Y76200D03*
X520700Y25400D03*
X520700Y76200D03*
X546100Y25400D03*
X546100Y76200D03*
X571500Y25400D03*
X571500Y76200D03*
X596900Y25400D03*
X596900Y76200D03*
X622300Y25400D03*
X622300Y76200D03*
X647700Y25400D03*
X647700Y76200D03*
D11*
X565404Y419100D02*
X552196Y419100D01*
X552196Y393700D02*
X565404Y393700D01*
X565404Y368300D02*
X552196Y368300D01*
X552196Y342900D02*
X565404Y342900D01*
X565404Y317500D02*
X552196Y317500D01*
X552196Y292100D02*
X565404Y292100D01*
X565404Y266700D02*
X552196Y266700D01*
X552196Y241300D02*
X565404Y241300D01*
X565404Y215900D02*
X552196Y215900D01*
X552196Y190500D02*
X565404Y190500D01*
X565404Y165100D02*
X552196Y165100D01*
X552196Y139700D02*
X565404Y139700D01*
X628396Y139700D02*
X641604Y139700D01*
X641604Y165100D02*
X628396Y165100D01*
X628396Y190500D02*
X641604Y190500D01*
X641604Y215900D02*
X628396Y215900D01*
X628396Y241300D02*
X641604Y241300D01*
X641604Y266700D02*
X628396Y266700D01*
X628396Y292100D02*
X641604Y292100D01*
X641604Y317500D02*
X628396Y317500D01*
X628396Y342900D02*
X641604Y342900D01*
X641604Y368300D02*
X628396Y368300D01*
X628396Y393700D02*
X641604Y393700D01*
X641604Y419100D02*
X628396Y419100D01*
X50800Y146304D02*
X50800Y133096D01*
X76200Y133096D02*
X76200Y146304D01*
X203200Y146304D02*
X203200Y133096D01*
X228600Y133096D02*
X228600Y146304D01*
X101600Y146304D02*
X101600Y133096D01*
X127000Y133096D02*
X127000Y146304D01*
X177800Y146304D02*
X177800Y133096D01*
X152400Y133096D02*
X152400Y146304D01*
X254000Y146304D02*
X254000Y133096D01*
X279400Y133096D02*
X279400Y146304D01*
X304800Y146304D02*
X304800Y133096D01*
X330200Y133096D02*
X330200Y146304D01*
X355600Y146304D02*
X355600Y133096D01*
X381000Y133096D02*
X381000Y146304D01*
X406400Y146304D02*
X406400Y133096D01*
X431800Y133096D02*
X431800Y146304D01*
X431800Y285496D02*
X431800Y298704D01*
X406400Y298704D02*
X406400Y285496D01*
X381000Y285496D02*
X381000Y298704D01*
X355600Y298704D02*
X355600Y285496D01*
X330200Y285496D02*
X330200Y298704D01*
X304800Y298704D02*
X304800Y285496D01*
X279400Y285496D02*
X279400Y298704D01*
X254000Y298704D02*
X254000Y285496D01*
X228600Y285496D02*
X228600Y298704D01*
X203200Y298704D02*
X203200Y285496D01*
X177800Y285496D02*
X177800Y298704D01*
X152400Y298704D02*
X152400Y285496D01*
X127000Y285496D02*
X127000Y298704D01*
X101600Y298704D02*
X101600Y285496D01*
X76200Y285496D02*
X76200Y298704D01*
X50800Y298704D02*
X50800Y285496D01*
D12*
X63500Y399288D02*
X63500Y413512D01*
X38100Y413512D02*
X38100Y399288D01*
D13*
X25400Y355600D03*
X101600Y355600D03*
D12*
X279400Y399288D02*
X279400Y413512D01*
X254000Y413512D02*
X254000Y399288D01*
X152400Y399288D02*
X152400Y413512D01*
X177800Y413512D02*
X177800Y399288D01*
D14*
X330200Y355600D03*
X254000Y355600D03*
X228600Y330200D03*
X152400Y330200D03*
D15*
X660400Y342900D03*
X660400Y317500D03*
X127000Y330200D03*
D16*
X25400Y292100D03*
X25400Y266700D03*
X533400Y406400D03*
X533400Y381000D03*
D17*
X444500Y393700D03*
D18*
X419100Y393700D03*
D19*
X182563Y203200D02*
X177800Y198438D01*
X182563Y203200D02*
X403225Y203200D01*
X406400Y206375D01*
X436563Y111125D02*
X449263Y111125D01*
X455613Y104775D01*
X455613Y76200D01*
X444500Y76200D01*
D20*
X177800Y198438D03*
X406400Y206375D03*
X436563Y111125D03*
D19*
X228600Y239713D02*
X203200Y265113D01*
X228600Y239713D02*
X261938Y239713D01*
X271463Y230188D01*
X471488Y230188D01*
X490538Y211138D01*
X515938Y111125D02*
X492125Y87313D01*
X487363Y87313D01*
X481013Y80963D01*
X481013Y65088D01*
X430213Y65088D01*
X419100Y76200D01*
D20*
X203200Y265113D03*
X490538Y211138D03*
X515938Y111125D03*
D19*
X293688Y173038D02*
X279400Y187325D01*
X293688Y173038D02*
X298450Y173038D01*
D20*
X279400Y187325D03*
X298450Y173038D03*
D19*
X188913Y100013D02*
X165100Y76200D01*
D20*
X188913Y100013D03*
D19*
X212725Y365125D02*
X212725Y406400D01*
X212725Y365125D02*
X230188Y365125D01*
D20*
X212725Y406400D03*
X230188Y365125D03*
D19*
X431800Y292100D02*
X439738Y284163D01*
X458788Y284163D01*
X446088Y101600D02*
X431800Y87313D01*
X328613Y87313D01*
X317500Y76200D01*
D20*
X458788Y284163D03*
X446088Y101600D03*
D19*
X342900Y120650D02*
X342900Y153988D01*
X342900Y120650D02*
X295275Y120650D01*
X274638Y100013D01*
D20*
X342900Y153988D03*
X274638Y100013D03*
D19*
X361950Y250825D02*
X355600Y257175D01*
X361950Y250825D02*
X455613Y250825D01*
X531813Y109538D02*
X522288Y100013D01*
X531813Y109538D02*
X538163Y109538D01*
X546100Y101600D01*
X546100Y76200D01*
D20*
X355600Y257175D03*
X455613Y250825D03*
X522288Y100013D03*
D19*
X330200Y292100D02*
X347663Y309563D01*
X520700Y309563D01*
X552450Y277813D01*
X568325Y277813D01*
X587375Y258763D01*
D20*
X587375Y258763D03*
D19*
X576263Y376238D02*
X558800Y393700D01*
X576263Y376238D02*
X576263Y354013D01*
X344488Y354013D01*
X309563Y319088D01*
X188913Y319088D01*
X179388Y309563D01*
X93663Y309563D01*
X76200Y292100D01*
X557213Y366713D02*
X558800Y368300D01*
X557213Y366713D02*
X279400Y366713D01*
X254000Y341313D01*
X168275Y341313D01*
X165100Y338138D01*
D20*
X165100Y338138D03*
D19*
X152400Y207963D02*
X152400Y139700D01*
X152400Y207963D02*
X244475Y207963D01*
X252413Y215900D01*
X288925Y215900D01*
X344488Y328613D02*
X358775Y342900D01*
X558800Y342900D01*
X469900Y111125D02*
X469900Y76200D01*
D20*
X288925Y215900D03*
X344488Y328613D03*
X469900Y111125D03*
D19*
X230188Y87313D02*
X177800Y139700D01*
X230188Y87313D02*
X230188Y55563D01*
X341313Y55563D01*
X360363Y36513D01*
X382588Y36513D01*
X393700Y25400D01*
X450850Y196850D02*
X460375Y206375D01*
X450850Y196850D02*
X227013Y196850D01*
X203200Y173038D01*
D20*
X460375Y206375D03*
X203200Y173038D03*
D19*
X203200Y139700D02*
X255588Y87313D01*
X255588Y61913D01*
X376238Y61913D01*
X534988Y61913D02*
X534988Y100013D01*
X534988Y61913D02*
X485775Y61913D01*
X484188Y60325D01*
X377825Y60325D01*
X376238Y61913D01*
D20*
X376238Y61913D03*
X534988Y100013D03*
D19*
X292100Y266700D02*
X269875Y244475D01*
X292100Y266700D02*
X490538Y266700D01*
X492125Y265113D01*
X557213Y265113D01*
X558800Y266700D01*
X444500Y47625D02*
X444500Y25400D01*
X444500Y47625D02*
X544513Y47625D01*
D20*
X269875Y244475D03*
X544513Y47625D03*
D19*
X558800Y241300D02*
X341313Y241300D01*
D20*
X341313Y241300D03*
D19*
X557213Y80963D02*
X577850Y101600D01*
X557213Y80963D02*
X557213Y57150D01*
X511175Y57150D01*
X506413Y52388D01*
X369888Y52388D01*
X363538Y46038D01*
D20*
X577850Y101600D03*
X363538Y46038D03*
D19*
X558800Y419100D02*
X552450Y425450D01*
X219075Y425450D01*
X180975Y387350D01*
X42863Y387350D01*
X14288Y358775D01*
X14288Y38100D01*
X127000Y38100D01*
X139700Y25400D01*
X557213Y163513D02*
X558800Y165100D01*
X557213Y163513D02*
X180975Y163513D01*
X163513Y146050D01*
X163513Y87313D01*
X157163Y87313D01*
X153988Y84138D01*
X153988Y36513D01*
X179388Y36513D01*
X190500Y25400D01*
X558800Y190500D02*
X585788Y163513D01*
X601663Y163513D01*
X608013Y157163D01*
X608013Y38100D01*
X457200Y38100D01*
X328613Y46038D02*
X323850Y41275D01*
X231775Y41275D01*
X215900Y25400D01*
D20*
X457200Y38100D03*
X328613Y46038D03*
D19*
X254000Y292100D02*
X276225Y314325D01*
X534988Y314325D01*
X552450Y331788D01*
X573088Y331788D01*
X590550Y349250D01*
D20*
X590550Y349250D03*
D19*
X144463Y274638D02*
X127000Y292100D01*
X144463Y274638D02*
X495300Y274638D01*
D20*
X495300Y274638D03*
D19*
X635000Y342900D02*
X660400Y342900D01*
X660400Y317500D02*
X635000Y317500D01*
X171450Y234950D02*
X76200Y139700D01*
X171450Y234950D02*
X241300Y234950D01*
X250825Y225425D01*
X454025Y225425D01*
X477838Y201613D01*
X603250Y201613D01*
X635000Y169863D01*
X635000Y165100D01*
X374650Y158750D02*
X355600Y139700D01*
X374650Y158750D02*
X544513Y158750D01*
X549275Y153988D01*
X598488Y153988D01*
D20*
X598488Y153988D03*
D19*
X661988Y265113D02*
X661988Y14288D01*
X379413Y14288D01*
X368300Y25400D01*
D20*
X661988Y265113D03*
D19*
X671513Y230188D02*
X671513Y9525D01*
X333375Y9525D01*
X317500Y25400D01*
D20*
X671513Y230188D03*
D19*
X635000Y241300D02*
X600075Y276225D01*
X600075Y407988D01*
X547688Y407988D01*
X536575Y419100D01*
X292100Y419100D01*
X279400Y406400D01*
X577850Y120650D02*
X596900Y139700D01*
X577850Y120650D02*
X350838Y120650D01*
X320675Y90488D01*
X266700Y90488D01*
D20*
X596900Y139700D03*
X266700Y90488D03*
D19*
X635000Y215900D02*
X652463Y233363D01*
X652463Y306388D01*
X625475Y306388D01*
X604838Y327025D01*
X604838Y430213D01*
X176213Y430213D01*
X152400Y406400D01*
X176213Y319088D02*
X61913Y319088D01*
X25400Y355600D01*
D20*
X176213Y319088D03*
D21*
X431800Y139700D02*
X558800Y139700D01*
X533400Y381000D02*
X520700Y393700D01*
X444500Y393700D01*
X230188Y331788D02*
X228600Y330200D01*
X230188Y331788D02*
X306388Y331788D01*
X330200Y355600D01*
X530225Y409575D02*
X533400Y406400D01*
X530225Y409575D02*
X434975Y409575D01*
X419100Y393700D01*
X50800Y292100D02*
X39688Y292100D01*
X25400Y292100D01*
X71438Y119063D02*
X114300Y76200D01*
X71438Y119063D02*
X44450Y119063D01*
X36513Y127000D01*
X36513Y257175D01*
X39688Y260350D01*
X39688Y292100D01*
X142875Y355600D02*
X165100Y377825D01*
X142875Y355600D02*
X101600Y355600D01*
D20*
X165100Y377825D03*
D19*
X157163Y355600D02*
X141288Y339725D01*
X157163Y355600D02*
X254000Y355600D01*
X254000Y406400D01*
D20*
X141288Y339725D03*
D19*
X152400Y330200D02*
X127000Y330200D01*
M02*
